<?xml version="1.0" encoding="UTF-8"?><svg id="Layer_2" xmlns="http://www.w3.org/2000/svg" viewBox="0 0 301.17 108.86"><defs><style>.cls-1{fill:#1d1e23;}</style></defs><g id="Layer_1-2"><g><g><path class="cls-1" d="m31.4,37.06h8.98l20.01,51.49h-8.9l-4.71-12.21h-21.77l-4.71,12.21h-8.9l20.01-51.49Zm-3.24,31.19h15.45l-7.72-20.08-7.72,20.08Z"/><path class="cls-1" d="m100.18,78.7v-10.89h-11.7v-8.24h20.38v23.39s-6.55,6.47-19.05,6.47c-15.08,0-27.07-11.4-27.07-26.63s11.62-26.63,26.7-26.63c12.65,0,19.05,7.72,19.05,7.72l-6.03,5.88s-4.27-5.37-13.02-5.37c-10.37,0-17.73,8.46-17.73,18.39s7.72,18.39,18.1,18.39c7.36,0,10.37-2.5,10.37-2.5Z"/><path class="cls-1" d="m126.96,57.95h20.6v8.39h-20.6v13.83h22.8v8.39h-31.63v-51.49h31.19v8.39h-22.36v12.51Z"/><path class="cls-1" d="m166.24,37.06l25.75,35.46v-35.46h8.83v51.49h-7.94l-25.75-35.38v35.38h-8.83v-51.49h7.94Z"/><path class="cls-1" d="m248.78,74.87l5.89,5.81s-6.77,8.75-19.79,8.75c-14.86,0-26.11-11.4-26.11-26.63s11.26-26.63,26.11-26.63c12.36,0,19.05,8.09,19.05,8.09l-5.96,5.81s-4.63-5.66-13.09-5.66c-10.15,0-17.14,8.46-17.14,18.39s6.99,18.39,17.14,18.39c9.05,0,13.9-6.33,13.9-6.33Z"/><path class="cls-1" d="m282.99,88.55h-8.83v-20.3l-17.58-31.19h9.71l12.58,23.02,12.58-23.02h9.12l-17.58,31.19v20.3Z"/></g><g><path class="cls-1" d="m32.26,3.89h2.58l5.76,14.83h-2.56l-1.36-3.52h-6.27l-1.36,3.52h-2.56l5.76-14.83Zm-.93,8.98h4.45l-2.22-5.78-2.23,5.78Z"/><path class="cls-1" d="m44.59,3.89l7.42,10.21V3.89h2.54v14.83h-2.29l-7.42-10.19v10.19h-2.54V3.89h2.29Z"/><path class="cls-1" d="m59.97,3.89l7.42,10.21V3.89h2.54v14.83h-2.29l-7.42-10.19v10.19h-2.54V3.89h2.29Z"/><path class="cls-1" d="m74.27,15.63c.93,0,1.67.74,1.67,1.67s-.74,1.67-1.67,1.67-1.67-.74-1.67-1.67.74-1.67,1.67-1.67Z"/><path class="cls-1" d="m84.84,3.89h5.04c2.95,0,4.92,2.03,4.92,4.75s-1.97,4.75-4.92,4.75h-2.5v5.34h-2.54V3.89Zm7.37,4.75c0-1.4-.91-2.33-2.65-2.33h-2.18v4.66h2.18c1.74,0,2.65-.93,2.65-2.33Z"/><path class="cls-1" d="m110.99,11.31c0,4.39-3.18,7.67-7.5,7.67s-7.5-3.28-7.5-7.67,3.18-7.67,7.5-7.67,7.5,3.28,7.5,7.67Zm-2.59,0c0-2.86-1.93-5.25-4.92-5.25s-4.92,2.39-4.92,5.25,1.93,5.25,4.92,5.25,4.92-2.39,4.92-5.25Z"/><path class="cls-1" d="m113.27,3.89h4.87c2.95,0,4.92,1.91,4.92,4.62,0,2.22-1.19,3.92-3.31,4.45l3.71,5.76h-2.97l-3.52-5.59h-1.17v5.59h-2.54V3.89Zm7.2,4.62c0-1.46-1.02-2.2-2.65-2.2h-2.01v4.41h2.01c1.63,0,2.65-.74,2.65-2.2Z"/><path class="cls-1" d="m128.44,6.3h-4.09v-2.42h10.72v2.42h-4.09v12.42h-2.54V6.3Z"/></g><path class="cls-1" d="m14.71,22.32c-.59-.02-1.11-.38-1.34-.92-.22-.54-.11-1.17.3-1.6,1.82-1.82,3.63-3.63,5.45-5.45.23-.23.47-.47.7-.7.11-.11.23-.23.34-.34.1-.11.21-.22.3-.34.42-.5.76-1.02,1.05-1.6.57-1.16.84-2.44.8-3.73-.09-2.62-1.46-5.02-3.68-6.42C17.54.53,16.3.12,15.01.02c-.36-.03-.62-.02-.98-.02h-.96c-.64,0-1.28,0-1.91,0-1.18,0-2.37,0-3.55,0,.59.02,1.11.38,1.34.92.22.54.11,1.17-.3,1.6-1.62,1.62-3.23,3.23-4.85,4.85-.42.42-.83.83-1.25,1.25-.21.21-.39.38-.58.61-.18.21-.35.42-.51.65-.66.94-1.11,2.01-1.32,3.14-.42,2.29.19,4.64,1.67,6.44,1.48,1.79,3.67,2.85,5.99,2.88,1.12,0,2.25,0,3.37,0h3.55Z"/></g></g></svg>