<?xml version="1.0" encoding="UTF-8"?><svg id="Layer_2" xmlns="http://www.w3.org/2000/svg" viewBox="0 0 243.4 248.22"><defs><style>.cls-1{fill:#b7b7b7;}.cls-2{fill:#909df0;}.cls-3{fill:#0b0e11;}</style></defs><g id="Icons"><g><g><path class="cls-3" d="m237.75,14.67l-2-.04c.05-2.92-2.6-6.72-6.64-7.73l.49-1.94c5.12,1.28,8.22,6.04,8.16,9.71Z"/><path class="cls-3" d="m241.4,12.76c-.16-4.62-5.11-10.06-9.8-10.78l.3-1.98c5.72.88,11.3,7.05,11.5,12.69l-2,.07Z"/><path class="cls-3" d="m189.86,64.46c-.27,0-.52-.11-.71-.29l-10.1-10.1c-.39-.39-.39-1.02,0-1.41l12.8-12.79c.38-.38,1.04-.38,1.41,0l10.1,10.1c.39.39.39,1.02,0,1.41l-12.79,12.8c-.19.19-.44.29-.71.29Zm-8.69-11.1l8.69,8.69,11.38-11.38-8.69-8.69-11.38,11.38Z"/><path class="cls-3" d="m221.51,104.19c-.26,0-.51-.1-.71-.29l-30.3-30.3c-.39-.39-.39-1.02,0-1.41l18.86-18.86c.38-.38,1.04-.38,1.41,0l30.3,30.3c.19.19.29.44.29.71s-.11.52-.29.71l-18.86,18.86c-.2.2-.45.29-.71.29Zm-28.89-31.3l28.89,28.89,17.44-17.44-28.89-28.89-17.44,17.44Z"/><path class="cls-3" d="m181.78,67.15c-.26,0-.51-.1-.71-.29l-4.71-4.71c-.39-.39-.39-1.02,0-1.41l5.39-5.39c.38-.38,1.04-.38,1.41,0l4.71,4.71c.19.19.29.44.29.71s-.11.52-.29.71l-5.39,5.39c-.2.2-.45.29-.71.29Zm-3.3-5.71l3.3,3.3,3.97-3.97-3.3-3.3-3.97,3.97Z"/><path class="cls-3" d="m170.33,78.6c-.26,0-.51-.1-.71-.29l-4.71-4.71c-.19-.19-.29-.44-.29-.71s.11-.52.29-.71l11.45-11.45,1.41,1.41-10.74,10.74,3.3,3.3,10.74-10.74,1.41,1.41-11.45,11.45c-.2.2-.45.29-.71.29Z"/><path class="cls-3" d="m212.08,50.31c-.26,0-.51-.1-.71-.29l-18.18-18.18c-.39-.39-.39-1.02,0-1.41l4.04-4.04c.39-.39,1.02-.39,1.41,0l2.46,2.46-1.41,1.41-1.75-1.75-2.63,2.63,16.77,16.77,2.63-2.63-10.01-10.01,1.41-1.41,10.72,10.72c.39.39.39,1.02,0,1.41l-4.04,4.04c-.2.2-.45.29-.71.29Z"/><path class="cls-3" d="m216.83,45.98l-1.41-1.41,3.33-3.33-16.77-16.77-3.33,3.33-1.41-1.41,4.04-4.04c.39-.39,1.02-.39,1.41,0l18.18,18.18c.39.39.39,1.02,0,1.41l-4.04,4.04Z"/><path class="cls-3" d="m221.61,39.48c-2.78,0-5.51-.89-7.54-2.92l1.41-1.41c3.52,3.52,9.9,2.72,13.61-.28l-20.73-20.73c-1.07,1.31-1.87,2.96-2.29,4.72l-1.95-.46c.58-2.47,1.82-4.75,3.49-6.42.37-.38,1.04-.38,1.41,0l22.22,22.22c.39.39.39,1.02,0,1.41-2.41,2.41-6.07,3.88-9.64,3.88Z"/><rect class="cls-3" x="218.62" y="20.83" width="5.53" height="2" transform="translate(49.42 162.95) rotate(-45)"/><path class="cls-3" d="m226.04,21.99c-1.28,0-2.49-.5-3.4-1.41-.91-.91-1.41-2.12-1.41-3.4s.5-2.49,1.41-3.4c.91-.91,2.12-1.41,3.4-1.41s2.49.5,3.4,1.41c.91.91,1.41,2.12,1.41,3.4s-.5,2.49-1.41,3.4c-.91.91-2.12,1.41-3.4,1.41Zm0-7.62c-.75,0-1.46.29-1.99.82-.53.53-.82,1.24-.82,1.99s.29,1.46.82,1.99c1.06,1.06,2.91,1.06,3.97,0,.53-.53.82-1.24.82-1.99s-.29-1.46-.82-1.99c-.53-.53-1.24-.82-1.99-.82Z"/><rect class="cls-3" x="199.3" y="54.4" width="2" height="6.67" transform="translate(17.84 158.54) rotate(-45)"/><rect class="cls-2" x="213.44" y="58.69" width="2" height="37.14" transform="translate(8.18 174.26) rotate(-45)"/><rect class="cls-2" x="202.17" y="72.56" width="17.14" height="2" transform="translate(9.72 170.57) rotate(-45)"/><rect class="cls-2" x="212.27" y="82.66" width="17.14" height="2" transform="translate(5.53 180.67) rotate(-45)"/><path class="cls-3" d="m170.33,53.01c-.26,0-.51-.1-.71-.29l-30.3-30.3c-.39-.39-.39-1.02,0-1.41l18.86-18.86c.39-.39,1.02-.39,1.41,0l30.3,30.3c.19.19.29.44.29.71s-.11.52-.29.71l-18.86,18.86c-.2.2-.45.29-.71.29Zm-28.89-31.3l28.89,28.89,17.44-17.44-28.89-28.89-17.44,17.44Z"/><rect class="cls-3" x="184.48" y="39.58" width="2" height="6.67" transform="translate(23.98 143.73) rotate(-45)"/><rect class="cls-2" x="164.95" y="10.2" width="2" height="37.14" transform="translate(28.26 125.78) rotate(-45)"/><rect class="cls-2" x="161.09" y="31.48" width="17.14" height="2" transform="translate(26.74 129.5) rotate(-45.01)"/><rect class="cls-2" x="150.99" y="21.38" width="17.14" height="2" transform="translate(30.92 119.39) rotate(-45.01)"/><rect class="cls-3" x="193.8" y="39.22" width="7.62" height="2" transform="translate(29.45 151.53) rotate(-45.01)"/><rect class="cls-3" x="199.18" y="44.83" width="7.62" height="2" transform="translate(27.06 156.97) rotate(-45)"/></g><g><path class="cls-1" d="m193.5,135.94c-.19,0-.38-.05-.54-.16-.28-.18-.46-.5-.46-.84v-4.72h-52.55c-.22,0-.43-.07-.6-.2-1.81-1.37-2.71-2.48-2.9-3.6-.82-4.62,2.37-7.98,4.71-10.44.77-.81,1.49-1.57,1.91-2.21,3.06-4.65,3.97-6.03,3.7-11.59-.07-1.44-.63-2.61-1.16-3.74-.69-1.45-1.4-2.95-.56-4.51,3.98-7.46,16.05-12.69,20.41-13.61,8.12-1.71,22.11-.37,22.7-.31.28.03.54.17.71.4,12.16,16.55,17.58,35.03,15.27,52.04-.06.46-.44.82-.9.86-.05,0-4.58.42-9.31,2.54-.13.06-.27.09-.41.09Zm-53.21-7.72h53.21c.55,0,1,.45,1,1v4.21c3.34-1.3,6.35-1.83,7.74-2.02,1.97-16.16-3.25-33.67-14.73-49.46-2.47-.22-14.62-1.17-21.65.32-4.85,1.02-15.68,6.25-19.06,12.59-.34.64-.01,1.41.61,2.71.56,1.19,1.27,2.67,1.36,4.5.3,6.22-.86,7.98-3.98,12.71-.57.87-1.36,1.69-2.18,2.57-2.26,2.38-4.83,5.09-4.19,8.71.05.3.37.97,1.88,2.15Z"/><path class="cls-1" d="m101.17,130.22h-11.59c-.37,0-.7-.2-.88-.52-.18-.32-.16-.71.04-1.02.73-1.13,1.57-2.31,2.5-3.51,5.53-7.08,2.15-14.54.33-18.55-.6-1.32-.93-2.05-.89-2.66.23-3.46,1.86-7,3.3-10.12,1.6-3.47,3.11-6.74,2.26-8.89-.4-1.01-1.33-1.8-2.84-2.42-5.26-2.15-9.25-4.24-12.58-6.58l1.15-1.64c3.2,2.24,7.07,4.27,12.19,6.36,2.04.84,3.33,1.99,3.94,3.54,1.16,2.95-.52,6.6-2.3,10.46-1.43,3.11-2.91,6.32-3.12,9.41.03.18.39.99.71,1.7,1.85,4.08,5.7,12.58-.57,20.61-.48.61-.93,1.22-1.35,1.82h9.26c2.47-2.74,7.32-7.74,15.47-5.91,3.66.82,6.48.4,8.39-1.25,1.94-1.68,2.9-4.66,2.64-8.18-.52-6.97-2.09-10.12-5.79-11.64-3.1-1.27-3.05-3.94-3-6.52.04-2.09.08-4.25-1.28-6.29-1.27-1.91-3.68-2.66-6-3.39-3.13-.98-6.67-2.09-6.99-6.31-.14-1.9,3.37-11.78,8.19-13.84,2.01-.86,3.31-1.2,4.69-1.57,1.62-.43,3.46-.91,6.97-2.41,3.77-1.61,3.46-6.8,3.21-10.97-.14-2.27-.25-4.07.24-5.27.05-.13.11-.26.17-.39l.09-.19,1.83.82-.1.22c-.05.1-.1.2-.14.3-.32.77-.21,2.53-.1,4.39.28,4.54.65,10.76-4.42,12.93-3.64,1.56-5.55,2.06-7.24,2.51-1.36.36-2.54.67-4.41,1.47-3.87,1.65-7.07,10.66-6.98,11.85.21,2.73,2.26,3.51,5.59,4.55,2.53.79,5.4,1.69,7.07,4.19,1.7,2.56,1.65,5.26,1.62,7.43-.05,2.62,0,3.91,1.76,4.63,5.16,2.11,6.54,6.86,7.03,13.34.31,4.16-.9,7.75-3.32,9.84-2.42,2.09-5.83,2.65-10.14,1.68-6.46-1.45-10.47,1.84-13.84,5.62-.19.21-.46.33-.75.33Z"/><path class="cls-3" d="m199.58,156.08l-1.88-.68c9.68-26.62,4.7-56.92-13-79.07l1.56-1.25c18.13,22.69,23.23,53.73,13.32,81.01Z"/><path class="cls-3" d="m165.75,59.05c-24.01-15.82-53.9-17.97-79.96-5.74l-.85-1.81c26.7-12.53,57.32-10.33,81.91,5.88l-1.1,1.67Z"/><path class="cls-3" d="m41.76,156.08c-5.19-14.33-6.39-29.79-3.49-44.69l1.96.38c-2.83,14.55-1.65,29.63,3.41,43.63l-1.88.68Z"/></g><path class="cls-1" d="m38.08,210.95c-.74-.69-1.47-1.39-2.19-2.09l1.4-1.43c.71.69,1.42,1.38,2.15,2.06l-1.36,1.46Zm-4.32-4.24c-.7-.72-1.39-1.46-2.08-2.2l1.47-1.35c.67.73,1.35,1.45,2.04,2.16l-1.44,1.39Zm-4.1-4.45c-.66-.76-1.32-1.53-1.96-2.3l1.54-1.28c.63.76,1.28,1.52,1.93,2.26l-1.5,1.32Zm-3.87-4.65c-.63-.79-1.24-1.59-1.85-2.4l1.6-1.2c.6.79,1.2,1.58,1.82,2.36l-1.57,1.24Zm-3.63-4.84c-.58-.82-1.16-1.65-1.72-2.49l1.66-1.12c.55.82,1.12,1.64,1.7,2.44l-1.63,1.16Zm-3.38-5.01c-.54-.85-1.07-1.71-1.6-2.57l1.71-1.03c.51.85,1.04,1.69,1.57,2.53l-1.69,1.08Z"/><path class="cls-1" d="m6.31,161.79c-.32-.95-.63-1.91-.93-2.88l1.91-.59c.29.95.6,1.89.92,2.83l-1.89.64Zm-1.79-5.78c-.27-.97-.54-1.94-.79-2.92l1.94-.5c.25.96.5,1.92.77,2.87l-1.92.54Zm-1.5-5.86c-.22-.98-.44-1.97-.64-2.96l1.96-.4c.2.97.41,1.94.63,2.91l-1.95.45Zm-1.2-5.93c-.17-.99-.34-1.99-.49-2.99l1.98-.3c.15.98.31,1.96.48,2.94l-1.97.35Zm-.9-5.98c-.12-1-.24-2-.33-3.01l1.99-.2c.1.99.21,1.98.33,2.96l-1.98.25Zm-.59-6.02c-.07-1-.13-2.01-.18-3.02l2-.1c.05.99.11,1.98.18,2.97l-1.99.15Zm-.29-6.04c-.02-.95-.03-1.9-.03-2.85v-.17h2v.17c0,.94.01,1.87.03,2.8l-2,.05Zm2.01-6l-2-.05c.03-1.01.07-2.02.12-3.02l2,.1c-.05.99-.09,1.98-.11,2.97Zm.3-5.94l-1.99-.15c.08-1.01.17-2.01.27-3.01l1.99.2c-.1.98-.19,1.97-.26,2.96Z"/><path class="cls-1" d="m73.33,15.16l-.76-1.85c.92-.38,1.86-.75,2.81-1.11l.71,1.87c-.94.36-1.86.72-2.77,1.09Zm5.56-2.13l-.67-1.88c.94-.34,1.9-.66,2.86-.98l.63,1.9c-.95.31-1.89.64-2.82.97Zm5.65-1.88l-.59-1.91c.96-.3,1.92-.58,2.9-.86l.55,1.92c-.96.27-1.91.55-2.86.85Zm5.73-1.63l-.51-1.94c.97-.25,1.95-.5,2.93-.73l.46,1.95c-.97.23-1.93.47-2.89.72Zm55.94-1.11c-.96-.22-1.93-.43-2.91-.63l.4-1.96c.99.2,1.98.41,2.96.64l-.44,1.95Zm-50.14-.27l-.42-1.96c.98-.21,1.97-.41,2.96-.6l.38,1.96c-.98.19-1.95.38-2.92.59Zm44.31-.91c-.97-.17-1.95-.33-2.94-.48l.3-1.98c1,.15,1.99.31,2.99.49l-.35,1.97Zm-38.47-.21l-.33-1.97c.99-.17,1.99-.32,2.99-.46l.28,1.98c-.98.14-1.96.29-2.94.46Zm32.58-.67c-.98-.12-1.97-.23-2.96-.33l.2-1.99c1.01.1,2.01.21,3.01.33l-.25,1.98Zm-26.69-.17l-.23-1.99c1-.12,2.01-.22,3.01-.31l.18,1.99c-.98.09-1.97.19-2.96.31Zm20.77-.41c-.99-.07-1.98-.13-2.97-.18l.1-2c1.01.05,2.02.11,3.02.18l-.15,1.99Zm-14.85-.12l-.13-2c1.01-.06,2.02-.11,3.03-.15l.07,2c-.99.03-1.98.08-2.97.14Zm8.91-.16c-.92-.02-1.85-.03-2.78-.03h-.19s0-2,0-2h.2c.95,0,1.89.01,2.83.03l-.05,2Z"/><path class="cls-1" d="m234.05,159.87l-1.9-.61c.3-.94.59-1.89.87-2.84l1.92.56c-.28.97-.58,1.93-.88,2.89Zm1.7-5.81l-1.93-.51c.25-.96.49-1.92.72-2.88l1.95.46c-.23.98-.48,1.96-.74,2.93Zm1.4-5.89l-1.96-.41c.2-.97.4-1.94.58-2.92l1.97.36c-.18.99-.38,1.98-.59,2.97Zm1.1-5.95l-1.98-.31c.15-.98.3-1.96.43-2.94l1.98.26c-.13,1-.28,2-.44,2.99Zm.8-6l-1.99-.21c.11-.98.2-1.97.28-2.96l1.99.16c-.08,1.01-.18,2.01-.28,3.01Zm.49-6.03l-2-.11c.06-.99.1-1.98.13-2.97l2,.06c-.03,1.01-.08,2.02-.13,3.02Zm.19-6.04h-2s0-.85,0-.85c0-.71,0-1.43-.02-2.14l2-.04c.01.72.02,1.45.02,2.18v.85Zm-2.11-5.96c-.04-.99-.1-1.98-.16-2.97l2-.14c.07,1,.12,2.01.17,3.02l-2,.09Zm-.4-5.94c-.09-.99-.2-1.98-.31-2.96l1.99-.24c.12,1,.22,2,.32,3.01l-1.99.19Zm-.7-5.91c-.14-.98-.3-1.96-.46-2.94l1.97-.34c.17.99.33,1.99.47,2.99l-1.98.29Zm-1-5.86c-.19-.97-.39-1.95-.61-2.91l1.95-.44c.22.98.43,1.97.62,2.96l-1.96.39Z"/><path class="cls-1" d="m200.56,211.94l-1.35-1.48c.73-.67,1.46-1.35,2.17-2.03l1.38,1.44c-.73.7-1.46,1.39-2.21,2.06Zm4.37-4.19l-1.42-1.41c.7-.7,1.39-1.42,2.07-2.14l1.45,1.37c-.69.73-1.39,1.46-2.1,2.17Zm4.15-4.4l-1.49-1.34c.66-.74,1.32-1.48,1.96-2.24l1.52,1.3c-.65.77-1.32,1.53-1.99,2.28Zm3.93-4.6l-1.55-1.26c.62-.77,1.24-1.55,1.84-2.33l1.58,1.22c-.62.8-1.24,1.59-1.88,2.37Zm3.69-4.79l-1.61-1.18c.58-.8,1.16-1.61,1.72-2.42l1.64,1.14c-.57.83-1.16,1.65-1.75,2.46Z"/><g><path class="cls-2" d="m69.12,212.22c.78-9.01,4.95-15.01,13.93-16.72,5.57,11.15,18.11,11.15,22.29,0,9.4,2.59,13.51,8.5,13.93,16.72h-50.16Z"/><rect class="cls-3" x="47.5" y="245.22" width="146" height="3"/><path class="cls-3" d="m194,230.22H48c-.83,0-1.5-.67-1.5-1.5v-99c0-.83.67-1.5,1.5-1.5h146c.83,0,1.5.67,1.5,1.5v99c0,.83-.67,1.5-1.5,1.5Zm-144.5-3h143v-96H49.5v96Z"/><path class="cls-3" d="m186,214.22H56c-.83,0-1.5-.67-1.5-1.5v-75c0-.83.67-1.5,1.5-1.5h130c.83,0,1.5.67,1.5,1.5v75c0,.83-.67,1.5-1.5,1.5Zm-128.5-3h127v-72H57.5v72Z"/><path class="cls-3" d="m153.5,246.22h-3v-5h-28v-3h29.5c.83,0,1.5.67,1.5,1.5v6.5Z"/><path class="cls-3" d="m90.5,246.22h-3v-6.5c0-.83.67-1.5,1.5-1.5h23.5v3h-22v5Z"/><rect class="cls-3" x="108.5" y="230.22" width="3" height="8"/><rect class="cls-3" x="129.5" y="230.22" width="3" height="8"/><path class="cls-3" d="m120.66,218.09c-1.54,0-2.79,1.25-2.79,2.79s1.25,2.79,2.79,2.79,2.79-1.25,2.79-2.79-1.25-2.79-2.79-2.79Z"/><path class="cls-3" d="m72.1,206.47l-2.84-.96c2.34-6.91,8.77-9.22,12.23-10.47,3.54-1.28,5.02-2.17,5.02-4.43v-1.39h3v1.39c0,4.73-4.05,6.19-7,7.25-4.12,1.49-8.67,3.5-10.4,8.61Z"/><path class="cls-3" d="m115.96,206.66c-1.68-5.24-6.28-7.29-10.46-8.8-2.95-1.07-7-2.52-7-7.25v-1.39h3v1.39c0,2.26,1.48,3.15,5.02,4.43,3.25,1.17,10.03,3.62,12.3,10.7l-2.86.92Z"/><path class="cls-3" d="m94.5,193.1c-5.44,0-12-5.94-12-13.32v-5.34c0-.74.54-1.37,1.27-1.48,3.22-.49,12.14-2.51,14.79-5.92.29-.38.75-.59,1.22-.58.48.01.92.25,1.19.64,3.36,4.81,4.96,6.17,4.97,6.18.34.29.55.71.55,1.16v5.34c0,7.38-6.56,13.32-12,13.32Zm-9-17.4v4.08c0,5.46,5.03,10.32,9,10.32s9-4.86,9-10.32v-4.69c-.68-.68-1.96-2.1-3.94-4.81-3.89,3.25-11.05,4.87-14.06,5.43Z"/><path class="cls-3" d="m113.54,191.85l-2.57-1.54c.74-1.23,1.01-2.65.76-3.98-.14-.76-.45-1.53-.78-2.35-.31-.77-.62-1.56-.83-2.43-.64-2.59-.28-4.5.07-6.33.29-1.56.6-3.18.32-5.44-.2-1.64-1.19-7.24-5.7-10.57-2.73-2.01-6.19-2.73-10.31-2.12-.2.09-.41.14-.64.14h-.36c-.23,0-.45-.05-.64-.14-4.12-.6-7.58.11-10.31,2.12-4.51,3.33-5.51,8.93-5.7,10.57-.27,2.26.03,3.88.32,5.44.35,1.84.7,3.74.07,6.33-.21.86-.53,1.66-.83,2.43-.33.82-.63,1.59-.78,2.35-.23,1.23-.02,2.54.6,3.7l-2.65,1.4c-.93-1.76-1.25-3.77-.89-5.66.2-1.05.57-1.99.94-2.9.28-.7.55-1.37.71-2.03.48-1.96.22-3.33-.1-5.07-.32-1.7-.68-3.63-.35-6.35.23-1.94,1.43-8.58,6.9-12.62,3.48-2.57,7.82-3.45,12.91-2.62,5.09-.83,9.43.05,12.91,2.62,5.48,4.04,6.67,10.69,6.9,12.62.33,2.72-.03,4.65-.35,6.35-.33,1.73-.58,3.1-.1,5.07.16.66.43,1.32.71,2.03.36.91.74,1.86.94,2.9.39,2.06-.01,4.22-1.13,6.09Z"/><path class="cls-2" d="m165.6,159.22h-38.2c-4.36,0-7.9,3.54-7.9,7.9v16.2c0,4.36,3.54,7.9,7.9,7.9h1.79l-2.02,9.66,13.24-9.66h25.2c4.36,0,7.9-3.54,7.9-7.9v-16.2c0-4.36-3.54-7.9-7.9-7.9Z"/><path class="cls-3" d="m138.08,173.5c-1.15,0-2.09.94-2.09,2.09s.94,2.09,2.09,2.09,2.09-.94,2.09-2.09-.94-2.09-2.09-2.09Z"/><path class="cls-3" d="m147.83,173.5c-1.15,0-2.09.94-2.09,2.09s.94,2.09,2.09,2.09,2.09-.94,2.09-2.09-.94-2.09-2.09-2.09Z"/><path class="cls-3" d="m157.59,173.5c-1.15,0-2.09.94-2.09,2.09s.94,2.09,2.09,2.09,2.09-.94,2.09-2.09-.94-2.09-2.09-2.09Z"/></g><g><path class="cls-3" d="m59.54,28.18l-1.57-1.24c1.53-1.95,1.68-5.91-.55-8.67l1.56-1.25c2.92,3.62,2.56,8.61.56,11.16Z"/><path class="cls-3" d="m65.32,29.76l-1.64-1.15c2.28-3.24,1.71-9.51-1.13-12.44l1.43-1.39c3.54,3.64,4.18,10.92,1.33,14.98Z"/><path class="cls-3" d="m37.47,28.18c-2-2.55-2.35-7.54.56-11.16l1.56,1.25c-2.23,2.77-2.08,6.72-.55,8.67l-1.57,1.24Z"/><path class="cls-3" d="m31.69,29.76c-2.85-4.06-2.21-11.34,1.33-14.98l1.43,1.39c-2.84,2.92-3.41,9.2-1.13,12.44l-1.64,1.15Z"/><path class="cls-3" d="m18.18,67.46c-1.86-2.37-2.19-7.01.52-10.37l1.56,1.25c-2.03,2.52-1.9,6.1-.5,7.88l-1.57,1.24Z"/><path class="cls-3" d="m32.25,67.46l-1.57-1.24c1.39-1.77,1.52-5.36-.5-7.88l1.56-1.25c2.71,3.36,2.38,8,.52,10.37Z"/><path class="cls-3" d="m12.85,68.92c-2.64-3.76-2.05-10.51,1.23-13.88l1.43,1.39c-2.59,2.66-3.11,8.39-1.03,11.34l-1.64,1.15Z"/><path class="cls-2" d="m26.88,99.89l-7.44-6.62c-.21-.18-.33-.44-.34-.72,0-.28.1-.54.3-.74l7.75-7.66-5.18-4.07,1.24-1.57,6.07,4.78c.23.18.36.44.38.73.02.29-.09.57-.3.77l-7.8,7.71,6.65,5.91-1.33,1.49Z"/><path class="cls-3" d="m48.63,29.02c-2.6,0-4.72-2.12-4.72-4.72s2.12-4.72,4.72-4.72,4.72,2.12,4.72,4.72-2.12,4.72-4.72,4.72Zm0-7.44c-1.5,0-2.72,1.22-2.72,2.72s1.22,2.72,2.72,2.72,2.72-1.22,2.72-2.72-1.22-2.72-2.72-2.72Z"/><path class="cls-3" d="m25.06,59.86c-1.14,0-2.07.93-2.07,2.07s.93,2.07,2.07,2.07,2.07-.93,2.07-2.07-.93-2.07-2.07-2.07Z"/><rect class="cls-2" x="37.5" y="81.22" width="22" height="2"/><rect class="cls-2" x="40.5" y="65.22" width="16" height="2"/><rect class="cls-2" x="48.28" y="42.29" width="2" height="10.67" transform="translate(-17.99 60.68) rotate(-55.01)"/><rect class="cls-2" x="46.61" y="52.31" width="2" height="10.89" transform="translate(-27.16 61.19) rotate(-53.13)"/><rect class="cls-2" x="39.12" y="58.45" width="16.54" height="2" transform="translate(-26.19 40.32) rotate(-36.87)"/><rect class="cls-2" x="49.01" y="62.37" width="2" height="24.35" transform="translate(-39.66 70.45) rotate(-53.53)"/><rect class="cls-2" x="35.15" y="73.75" width="23.65" height="2" transform="translate(-35.23 42.56) rotate(-36.47)"/><rect class="cls-2" x="50.03" y="76.61" width="2" height="33.77" transform="translate(-54.46 78.77) rotate(-53.43)"/><rect class="cls-2" x="29.51" y="92.11" width="34.5" height="2" transform="translate(-46.27 46.19) rotate(-36.57)"/><rect class="cls-3" x="1.48" y="64.92" width="77.47" height="2" transform="translate(-32.59 91.66) rotate(-78.08)"/><path class="cls-3" d="m18.22,104.43l-1.96-.41,7.85-37.2c.1-.46.51-.79.98-.79.47,0,.88.33.98.79l5.39,25.65-1.96.41-4.42-21.01-6.87,32.56Z"/><path class="cls-3" d="m79.66,67.46l-1.57-1.24c1.39-1.77,1.52-5.36-.5-7.88l1.56-1.25c2.71,3.36,2.38,8,.52,10.37Z"/><path class="cls-3" d="m65.59,67.46c-1.86-2.37-2.19-7.01.52-10.37l1.56,1.25c-2.03,2.52-1.9,6.1-.5,7.88l-1.57,1.24Z"/><path class="cls-3" d="m84.98,68.92l-1.64-1.15c2.08-2.95,1.56-8.67-1.03-11.34l1.43-1.39c3.28,3.38,3.88,10.12,1.23,13.88Z"/><path class="cls-2" d="m70.96,99.89l-1.33-1.49,6.65-5.91-7.8-7.71c-.2-.2-.31-.48-.3-.77.02-.29.15-.55.38-.73l6.07-4.78,1.24,1.57-5.18,4.07,7.75,7.66c.2.19.3.46.3.74,0,.28-.13.54-.34.72l-7.44,6.62Z"/><path class="cls-3" d="m73.03,59.86c-1.14,0-2.07.93-2.07,2.07s.93,2.07,2.07,2.07,2.07-.93,2.07-2.07-.93-2.07-2.07-2.07Z"/><path class="cls-3" d="m79.53,104.03l-6.79-32.16-4.42,21.01-1.96-.41,5.39-25.65c.1-.46.51-.79.98-.79.47,0,.88.33.98.79l7.77,36.8-1.96.41Z"/><rect class="cls-3" x="56.05" y="27.18" width="2" height="77.47" transform="translate(-12.39 13.21) rotate(-11.92)"/><rect class="cls-3" x="5.5" y="103.22" width="82" height="2"/></g><path class="cls-3" d="m11.5,184.22c-4.96,0-9-4.04-9-9s4.04-9,9-9,9,4.04,9,9-4.04,9-9,9Zm0-16c-3.86,0-7,3.14-7,7s3.14,7,7,7,7-3.14,7-7-3.14-7-7-7Z"/><path class="cls-3" d="m228.5,188.22c-7.17,0-13-5.83-13-13s5.83-13,13-13,13,5.83,13,13-5.83,13-13,13Zm0-24c-6.07,0-11,4.93-11,11s4.93,11,11,11,11-4.93,11-11-4.93-11-11-11Z"/></g></g></svg>