<?xml version="1.0" encoding="UTF-8"?><svg id="Layer_2" xmlns="http://www.w3.org/2000/svg" viewBox="0 0 249 244.44"><defs><style>.cls-1{fill:#b7b7b7;}.cls-2{fill:#909df0;}.cls-3{fill:#0b0e11;}</style></defs><g id="Icons"><g><path class="cls-2" d="m99.14,165.55h-36.96c-1.1,0-1.99.89-1.99,1.99v17.38c0,1.1.89,1.99,1.99,1.99h36.96c1.1,0,1.99-.89,1.99-1.99v-17.38c0-1.1-.89-1.99-1.99-1.99Zm-19.69,6.41h-3.96v11.11h-2.7v-11.11h-3.97v-2.26h10.63v2.26Zm8.04,11.11h-2.88l-4.78-13.38h2.93l3.39,9.9,3.28-9.9h2.86l-4.79,13.38Z"/><g><rect class="cls-1" x="147.65" y="150.33" width="11.98" height="2" transform="translate(-42 242.06) rotate(-69.44)"/><path class="cls-2" d="m242.06,217h-8.06v-2h8.06c1.07,0,1.94-.87,1.94-1.94v-16.19c0-1.02-.68-1.93-1.65-2.22l-4.13-1.23c-4.21-1.26-7.92-3.92-10.46-7.51l-8.59-12.17c-.77-1.09-2.02-1.74-3.35-1.74h-18.82v-2h18.82c1.98,0,3.84.97,4.99,2.58l8.59,12.17c2.28,3.22,5.61,5.62,9.39,6.75l4.13,1.23c1.81.54,3.08,2.24,3.08,4.13v16.19c0,2.17-1.77,3.94-3.94,3.94Z"/><path class="cls-2" d="m223.43,191h-20.43c-.55,0-1-.45-1-1v-12c0-.55.45-1,1-1h12.01c.49,0,.95.24,1.24.64l8.01,11.8c.21.31.23.7.06,1.03-.17.33-.51.53-.88.53Zm-19.43-2h17.54l-6.79-10h-10.75v10Z"/><rect class="cls-2" x="197" y="215" width="14" height="2"/><rect class="cls-2" x="237" y="208" width="8" height="2"/><rect class="cls-3" x="133" y="230" width="111" height="2"/><path class="cls-3" d="m197,217h-37v-2h36v-6h2v7c0,.55-.45,1-1,1Z"/><path class="cls-3" d="m198,200h-2v-38.94c0-1.69-1.37-3.06-3.06-3.06h-63.94v-2h63.94c2.79,0,5.06,2.27,5.06,5.06v38.94Z"/><path class="cls-3" d="m222.56,230.97c-6.86,0-12.44-5.58-12.44-12.44s5.58-12.44,12.44-12.44,12.44,5.58,12.44,12.44-5.58,12.44-12.44,12.44Zm0-22.89c-5.76,0-10.44,4.69-10.44,10.44s4.69,10.44,10.44,10.44,10.44-4.69,10.44-10.44-4.69-10.44-10.44-10.44Z"/><path class="cls-3" d="m222.56,223.34c-2.65,0-4.81-2.16-4.81-4.81s2.16-4.81,4.81-4.81,4.81,2.16,4.81,4.81-2.16,4.81-4.81,4.81Zm0-7.63c-1.55,0-2.81,1.26-2.81,2.81s1.26,2.81,2.81,2.81,2.81-1.26,2.81-2.81-1.26-2.81-2.81-2.81Z"/><path class="cls-3" d="m148.44,230.97c-4.33,0-8.29-2.2-10.58-5.89l1.7-1.06c1.92,3.09,5.24,4.94,8.88,4.94,5.76,0,10.44-4.69,10.44-10.44s-4.69-10.44-10.44-10.44c-3.14,0-6.08,1.39-8.08,3.82l-1.55-1.27c2.38-2.89,5.88-4.55,9.62-4.55,6.86,0,12.44,5.58,12.44,12.44s-5.58,12.44-12.44,12.44Z"/><path class="cls-3" d="m148.44,223.34c-2.65,0-4.81-2.16-4.81-4.81s2.16-4.81,4.81-4.81,4.81,2.16,4.81,4.81-2.16,4.81-4.81,4.81Zm0-7.63c-1.55,0-2.81,1.26-2.81,2.81s1.26,2.81,2.81,2.81,2.81-1.26,2.81-2.81-1.26-2.81-2.81-2.81Z"/><path class="cls-2" d="m206.5,199h-3c-.83,0-1.5-.67-1.5-1.5s.67-1.5,1.5-1.5h3c.83,0,1.5.67,1.5,1.5s-.67,1.5-1.5,1.5Z"/><path class="cls-1" d="m167.92,151.42c-3.75,0-7.67-1.22-11.24-3.72-8.5-5.95-10.85-16.25-5.46-23.95.32-.45.94-.56,1.39-.25l28.19,19.74c.22.15.37.38.41.65.05.26-.01.53-.17.75-3.13,4.46-7.96,6.78-13.13,6.78Zm-15.61-25.69c-4.01,6.66-1.75,15.24,5.51,20.33,7.26,5.08,16.1,4.27,20.99-1.77l-26.5-18.56Z"/><rect class="cls-1" x="165.42" y="129.75" width="5.98" height="2" transform="translate(-38.68 181.46) rotate(-51.58)"/><path class="cls-1" d="m172.96,129.6c-.85,0-1.7-.25-2.44-.77-1.93-1.35-2.4-4.02-1.05-5.95.65-.93,1.63-1.56,2.76-1.76,1.12-.2,2.26.05,3.19.71,1.93,1.35,2.4,4.02,1.05,5.95-.83,1.18-2.16,1.82-3.5,1.82Zm0-6.54c-.72,0-1.42.34-1.86.97-.72,1.03-.47,2.44.56,3.16,1.03.72,2.44.47,3.16-.56.72-1.03.47-2.44-.56-3.16-.4-.28-.85-.41-1.3-.41Z"/><rect class="cls-1" x="160" y="149" width="2" height="7"/><path class="cls-3" d="m174,210h-11v-2h10v-38h-23v31h-2v-32c0-.55.45-1,1-1h25c.55,0,1,.45,1,1v40c0,.55-.45,1-1,1Z"/><path class="cls-3" d="m155.5,194h-1c-.83,0-1.5-.67-1.5-1.5s.67-1.5,1.5-1.5h1c.83,0,1.5.67,1.5,1.5s-.67,1.5-1.5,1.5Z"/></g><g><g><path class="cls-2" d="m124.94,156.18c.87-8.76-3.62-18.31-12.4-21.78,4.03-4.14,5.88-10.05,4.85-15.57-.75-4.03-2.91-7.73-3.88-11.72-2.56-10.57,2.5-15.45,1-28.01-1.46-12.29-17.28-42.63-50.8-34.67-11.61.79-20.57,4.55-26.09,10.74-7.08,7.93-9.97,18.12-10.78,24.95-1.48,12.44,3.52,17.26.99,27.72-.96,3.95-3.1,7.61-3.84,11.6-1.01,5.46.81,11.31,4.8,15.41-8.34,3.3-13.38,12.22-12.43,20.52l.63,4.71,8.59-5.1,17.81-8.13,7.23-6.48,1.5-8.92-10.74-11.31s-6.4-12.27-6.4-20.24v-12.39s23.76-14.38,27.43-18.98l3.67-4.6,2.94-4.85s21.6,20.97,36.76,22.61c0,0-10.53,2.34-22.57-2.87l14.43,7.89-1.07,18.75-4.37,11.77-6.65,9.19-1.16,2.62,7.81,3.56,6.15,7.59,2.3,6.65-.67,4.8,3.48,1.77,12.04,6.95,5.67,5.85s3.19-4.62,3.73-10.06Z"/><path class="cls-3" d="m66.75,124.63c-2.38,0-4.77-.67-6.37-2.01-.63-.53-.72-1.48-.19-2.11.53-.63,1.48-.72,2.11-.19,2.23,1.87,6.98,1.59,8.77.02.62-.55,1.57-.49,2.12.14.55.62.49,1.57-.14,2.12-1.54,1.35-3.92,2.03-6.31,2.03Z"/><path class="cls-3" d="m67.31,112h-.8c-.83,0-1.5-.67-1.5-1.5s.67-1.5,1.5-1.5h.8c1.49,0,2.7-1.21,2.7-2.7v-9.57c0-3.8,2.47-7.73,6.61-7.73h7.89c.83,0,1.5.67,1.5,1.5s-.67,1.5-1.5,1.5h-7.89c-2.49,0-3.61,2.77-3.61,4.73v9.57c0,3.14-2.56,5.7-5.7,5.7Z"/><circle class="cls-3" cx="53.31" cy="99.65" r="3.22"/><circle class="cls-3" cx="80.66" cy="99.65" r="3.22"/><path class="cls-3" d="m58.5,93h-9c-.83,0-1.5-.67-1.5-1.5s.67-1.5,1.5-1.5h9c.83,0,1.5.67,1.5,1.5s-.67,1.5-1.5,1.5Z"/><path class="cls-3" d="m6.52,244.44C3.41,235.86.14,195.29,0,193.57c0-.04,0-.08,0-.12,0-31.02,24.05-39.81,35.61-44.04,11.05-4.04,16.2-9.56,16.2-17.37h3c0,12.14-10.37,17.34-18.17,20.19-11.75,4.29-33.61,12.28-33.64,41.16.15,1.8,3.42,41.97,6.34,50.03l-2.82,1.02Z"/><path class="cls-3" d="m128.49,237.72c-.11-7.77.15-15.75.41-23.46.42-12.74.82-24.78-.79-31.27-2.91-11.75-10.71-21.46-21.42-26.66-1.83-.89-3.81-1.75-6.06-2.64l1.1-2.79c2.32.91,4.37,1.81,6.27,2.73,11.51,5.58,19.9,16.02,23.02,28.64,1.7,6.89,1.32,18.56.87,32.09-.25,7.68-.51,15.62-.41,23.32l-3,.04Z"/><path class="cls-3" d="m63.7,137.83c-13.73-2.08-29.69-19.09-29.69-37.91v-13.18c0-.63.39-1.19.98-1.41.2-.07,20.27-7.62,30.39-22.23.27-.39.72-.63,1.2-.65.48,0,.93.2,1.23.58,10.17,13.21,30.77,22.23,30.97,22.32.57.25.93.82.9,1.44l-.53,13.18c0,12.07-7.32,23.28-14.17,29.73l-2.06-2.18c8.04-7.56,13.23-18.4,13.23-27.61l.49-12.23c-4.11-1.89-20.27-9.79-29.96-21.27-9.65,12.66-25.53,19.67-29.67,21.34v12.16c0,17.08,14.85,33.08,27.14,34.94l-.45,2.97Z"/><path class="cls-3" d="m56.06,173.47c-9-2.9-17.78-12.01-21.35-22.16l2.83-1c3.28,9.32,11.28,17.66,19.44,20.3l-.92,2.85Z"/><path class="cls-3" d="m122.68,154.13l-2.95-.52c1.44-8.17-3.6-17.01-11.48-20.12-.47-.18-.81-.59-.91-1.08-.11-.49.04-1,.39-1.36,3.68-3.78,5.38-9.24,4.45-14.25-.38-2.04-1.15-4-1.96-6.07-.7-1.79-1.43-3.64-1.9-5.58-1.41-5.82-.63-9.98.18-14.4.73-3.93,1.48-7.99.79-13.79-.79-6.61-6.37-20.11-17.98-28.22-8.88-6.2-19.3-7.94-30.98-5.16-.08.02-.16.03-.25.04-11.1.75-19.77,4.29-25.07,10.24-7.85,8.8-9.9,19.81-10.41,24.13-.68,5.73.06,9.75.78,13.64.81,4.37,1.57,8.5.18,14.26-.46,1.92-1.18,3.75-1.88,5.52-.81,2.05-1.57,3.99-1.94,6.01-.92,4.96.77,10.35,4.4,14.09.35.36.5.87.39,1.36-.11.49-.45.9-.91,1.08-7.45,2.95-12.39,11.1-11.49,18.96l-2.98.34c-.97-8.48,3.88-17.24,11.47-21.22-3.35-4.29-4.8-9.93-3.83-15.16.43-2.3,1.28-4.46,2.1-6.55.69-1.75,1.34-3.41,1.76-5.13,1.24-5.14.57-8.78-.21-13.01-.72-3.92-1.55-8.36-.81-14.54.55-4.6,2.73-16.33,11.15-25.77,5.82-6.52,15.15-10.4,26.98-11.23,12.49-2.94,23.69-1.04,33.27,5.65,12.51,8.73,18.36,22.92,19.24,30.33.74,6.25-.09,10.73-.82,14.69-.79,4.27-1.47,7.95-.22,13.15.42,1.74,1.08,3.41,1.77,5.18.83,2.11,1.69,4.3,2.12,6.62.98,5.29-.49,10.98-3.88,15.31,8.05,4.21,13,13.72,11.43,22.57Z"/></g><g><path class="cls-3" d="m92.8,166.72l-1.76-2.43c4.94-3.57,8.14-9.71,8.14-15.64,0-10.21-8.31-18.52-18.52-18.52s-18.52,8.31-18.52,18.52c0,5.5,3.38,11.94,8.22,15.67l-1.83,2.38c-4.67-3.6-9.39-10.58-9.39-18.04,0-11.87,9.65-21.52,21.52-21.52s21.52,9.65,21.52,21.52c0,6.86-3.68,13.95-9.38,18.07Z"/><path class="cls-3" d="m99.52,189h-38.03c-1.92,0-3.49-1.56-3.49-3.49v-18.03c0-1.92,1.56-3.49,3.49-3.49h38.03c1.92,0,3.49,1.56,3.49,3.49v18.03c0,1.92-1.56,3.49-3.49,3.49Zm-38.03-22c-.27,0-.49.22-.49.49v18.03c0,.27.22.49.49.49h38.03c.27,0,.49-.22.49-.49v-18.03c0-.27-.22-.49-.49-.49h-38.03Z"/><path class="cls-3" d="m84.72,230h-8.12c-2.26,0-4.14-1.69-4.39-3.94l-.92-15.58,2.99-.18.92,15.5c.07.65.68,1.19,1.4,1.19h8.12c.72,0,1.33-.54,1.41-1.26l1.18-18.49,2.99.19-1.18,18.55c-.25,2.31-2.14,4-4.39,4Z"/><rect class="cls-3" x="86.58" y="189.95" width="6.43" height="3" transform="translate(-106.98 268.89) rotate(-86.35)"/><path class="cls-3" d="m83.5,235h-6c-.83,0-1.5-.67-1.5-1.5v-4.5h3v3h3v-3h3v4.5c0,.83-.67,1.5-1.5,1.5Z"/><rect class="cls-3" x="93" y="148" width="7" height="3"/><rect class="cls-3" x="61" y="148" width="26" height="3"/></g></g><g><rect class="cls-3" x="100" y="7" width="2" height="6"/><rect class="cls-3" x="100" y="22" width="2" height="5"/><rect class="cls-3" x="91" y="16" width="5" height="2"/><rect class="cls-3" x="105" y="16" width="6" height="2"/></g><g><rect class="cls-2" x="173" y="24" width="48" height="2"/><rect class="cls-2" x="192" y="50" width="29" height="2"/><rect class="cls-2" x="166" y="50" width="19" height="2"/><path class="cls-2" d="m205,50h-2v-15h-20v15h-2v-16c0-.55.45-1,1-1h22c.55,0,1,.45,1,1v16Z"/><path class="cls-1" d="m166,45h-13c-.55,0-1-.45-1-1v-13c0-.55.45-1,1-1h13c.55,0,1,.45,1,1v13c0,.55-.45,1-1,1Zm-12-2h11v-11h-11v11Z"/><path class="cls-1" d="m135,55h-6c-.55,0-1-.45-1-1V21c0-.55.45-1,1-1h6c.55,0,1,.45,1,1v8h-2v-7h-4v31h4v-20h2v21c0,.55-.45,1-1,1Z"/><rect class="cls-1" x="142.92" y="16.89" width="2" height="19.6" transform="translate(59.55 146.3) rotate(-65.31)"/><rect class="cls-1" x="134.08" y="46.94" width="19.69" height="2" transform="translate(-6.71 65.84) rotate(-25.2)"/><path class="cls-3" d="m216.93,59h-45.85c-3.35,0-6.07-2.72-6.07-6.07v-27.85c0-3.35,2.72-6.07,6.07-6.07h45.85c3.35,0,6.07,2.72,6.07,6.07v27.85c0,3.35-2.72,6.07-6.07,6.07Zm-45.85-38c-2.25,0-4.07,1.83-4.07,4.07v27.85c0,2.25,1.83,4.07,4.07,4.07h45.85c2.25,0,4.07-1.83,4.07-4.07v-27.85c0-2.25-1.83-4.07-4.07-4.07h-45.85Z"/><path class="cls-3" d="m238,38h-2.83c-.17,0-.34-.04-.49-.13l-5.14-2.87h-7.54v-2h7.8c.17,0,.34.04.49.13l5.14,2.87h1.57v-12h-1.57l-5.14,2.87c-.15.08-.32.13-.49.13h-4.8v-2h4.54l5.14-2.87c.15-.08.32-.13.49-.13h2.83c.55,0,1,.45,1,1v14c0,.55-.45,1-1,1Z"/><rect class="cls-3" x="162.98" y="9.85" width="2" height="13.09" transform="translate(14.94 86.7) rotate(-30.96)"/><path class="cls-3" d="m160.2,12h-20.39c-2.1,0-3.8-1.71-3.8-3.8V3.8c0-2.1,1.71-3.8,3.8-3.8h20.39c2.1,0,3.8,1.71,3.8,3.8v4.39c0,2.1-1.71,3.8-3.8,3.8Zm-20.39-10c-.99,0-1.8.81-1.8,1.8v4.39c0,.99.81,1.8,1.8,1.8h20.39c.99,0,1.8-.81,1.8-1.8V3.8c0-.99-.81-1.8-1.8-1.8h-20.39Z"/><path class="cls-3" d="m186,68h-6.53c-2.47,0-4.47-2.35-4.47-5.23v-3.77h2v3.77c0,1.78,1.11,3.23,2.47,3.23h6.53v2Z"/><path class="cls-3" d="m204.53,68h-6.53v-2h6.53c1.36,0,2.47-1.45,2.47-3.23v-3.77h2v3.77c0,2.89-2.01,5.23-4.47,5.23Z"/><path class="cls-3" d="m222,22h-2v-9.22c0-2.63-2.14-4.78-4.78-4.78h-25.59c-1.25,0-2.31.67-2.72,1.72-.31.79-.15,1.63.4,2.28h19.73c2.18,0,3.95,1.77,3.95,3.95l-2,.05c0-1.12-.88-2-1.95-2h-20.15c-.25,0-.49-.09-.67-.26-1.37-1.25-1.82-3.07-1.18-4.75.7-1.82,2.5-2.99,4.58-2.99h25.59c3.74,0,6.78,3.04,6.78,6.78v9.22Z"/><path class="cls-2" d="m209.84,32.93c-.82,0-1.48.66-1.48,1.48s.66,1.48,1.48,1.48,1.48-.66,1.48-1.48-.66-1.48-1.48-1.48Z"/><path class="cls-2" d="m215.75,32.93c-.82,0-1.48.66-1.48,1.48s.66,1.48,1.48,1.48,1.48-.66,1.48-1.48-.66-1.48-1.48-1.48Z"/><path class="cls-2" d="m209.84,37.85c-.82,0-1.48.66-1.48,1.48s.66,1.48,1.48,1.48,1.48-.66,1.48-1.48-.66-1.48-1.48-1.48Z"/><path class="cls-2" d="m215.75,37.85c-.82,0-1.48.66-1.48,1.48s.66,1.48,1.48,1.48,1.48-.66,1.48-1.48-.66-1.48-1.48-1.48Z"/><path class="cls-3" d="m192.12,77.74c-4.35,0-7.89-3.54-7.89-7.89s3.54-7.89,7.89-7.89,7.89,3.54,7.89,7.89-3.54,7.89-7.89,7.89Zm0-13.78c-3.25,0-5.89,2.64-5.89,5.89s2.64,5.89,5.89,5.89,5.89-2.64,5.89-5.89-2.64-5.89-5.89-5.89Z"/><rect class="cls-3" x="189" y="76" width="2" height="10"/><rect class="cls-3" x="194" y="76" width="2" height="10"/><path class="cls-3" d="m192.12,73.31c-1.91,0-3.46-1.55-3.46-3.46s1.55-3.46,3.46-3.46,3.46,1.55,3.46,3.46-1.55,3.46-3.46,3.46Zm0-4.92c-.81,0-1.46.66-1.46,1.46s.66,1.46,1.46,1.46,1.46-.66,1.46-1.46-.66-1.46-1.46-1.46Z"/></g><path class="cls-2" d="m67,26H12c-.55,0-1-.45-1-1V3c0-.55.45-1,1-1h55c.55,0,1,.45,1,1v22c0,.55-.45,1-1,1Zm-54-2h53V4H13v20Z"/><circle class="cls-2" cx="57.5" cy="14.5" r="2.5"/><rect class="cls-1" x="242" y="87" width="2" height="82"/><rect class="cls-1" x="219" y="100" width="15" height="2"/><rect class="cls-1" x="220" y="118" width="13" height="2"/><rect class="cls-1" x="222" y="136" width="10" height="2"/><path class="cls-1" d="m209,91h-2v-4.73c0-5.66,4.61-10.27,10.27-10.27h15.47c6.07,0,11,4.93,11,11,0,.55-.45,1-1,1h-27.74v-2h26.68c-.5-4.49-4.32-8-8.94-8h-15.47c-4.56,0-8.27,3.71-8.27,8.27v4.73Z"/><path class="cls-3" d="m130,136h-2v-69c0-.55.45-1,1-1h18c.55,0,1,.45,1,1v12h19c.55,0,1,.45,1,1v33h-2v-32h-19c-.55,0-1-.45-1-1v-12h-16v68Z"/><path class="cls-3" d="m139,119h-2v-3h2v3Zm0-6h-2v-3h2v3Zm0-6h-2v-3h2v3Zm0-6h-2v-3h2v3Zm0-6h-2v-3h2v3Zm0-6h-2v-3h2v3Zm0-6h-2v-3h2v3Zm0-6h-2v-3h2v3Z"/><rect class="cls-3" x="147" y="88" width="19" height="2"/><path class="cls-3" d="m26.91,243.11l-2.32-1.91,36.53-44.4c.04-.05.09-.1.13-.14l7.43-6.94c.25-.23.57-.37.9-.4l9.08-.73c.19-.02.39,0,.57.06l12.46,3.93c3.29,1.04,5.49,4.17,5.33,7.62-.11,2.42-1.32,4.59-3.32,5.95-2,1.37-4.46,1.7-6.75.93l-3.71-1.25c-1.58,1.6-5.57,5.17-9.85,5.17h-1.86c-1.77,4.27-9.1,22.25-10,29.54l-2.98-.37c1.08-8.66,10.21-30.33,10.6-31.25.23-.56.78-.92,1.38-.92h2.86c3.33,0,7.1-3.52,8.28-4.88.4-.46,1.04-.64,1.62-.44l4.62,1.56c1.39.47,2.88.26,4.1-.56,1.21-.83,1.95-2.15,2.01-3.61.09-2.09-1.23-4-3.23-4.63l-12.18-3.84-8.27.66-6.97,6.52-36.46,44.32Z"/><rect class="cls-3" x="30.98" y="199.31" width="3" height="31.9" transform="translate(-28.62 6.32) rotate(-7.72)"/><path class="cls-3" d="m107.11,226.32l-1.63-2.52c.4-.26.79-.53,1.16-.8,6.52-4.73,9.31-11.14,7.66-17.59l-2.96-11.59,2.91-.74,2.96,11.59c1.94,7.6-1.35,15.36-8.8,20.76-.42.3-.85.6-1.29.89Z"/><rect class="cls-3" x="108" y="222" width="3" height="18"/><path class="cls-2" d="m211,157h-2v-60h-39v-2h40c.55,0,1,.45,1,1v61Z"/><rect class="cls-1" x="226" y="168" width="23" height="2"/><path class="cls-2" d="m200,116h-8c-.55,0-1-.45-1-1v-9c0-.55.45-1,1-1h8c.55,0,1,.45,1,1v9c0,.55-.45,1-1,1Zm-7-2h6v-7h-6v7Z"/><path class="cls-2" d="m200,129h-8c-.55,0-1-.45-1-1v-9c0-.55.45-1,1-1h8c.55,0,1,.45,1,1v9c0,.55-.45,1-1,1Zm-7-2h6v-7h-6v7Z"/><g><path class="cls-2" d="m19.83,20.12v-11.1h2.05v9.46h4.64l-.06,1.64h-6.64Z"/><path class="cls-2" d="m27.99,20.12v-11.1h2.05v11.1h-2.05Z"/><path class="cls-2" d="m35.3,20.12l-4.04-11.1h2.11l2.35,6.86c.09.24.3.93.63,2.08.02-.08.11-.41.28-1,.17-.58.28-.94.33-1.07.06-.17.44-1.31,1.15-3.42s1.09-3.26,1.16-3.45h2.09l-3.99,11.1h-2.08Z"/><path class="cls-2" d="m42.43,20.12v-11.1h6.73l-.08,1.63h-4.59v2.86h4.36v1.63h-4.36v3.34h4.76l-.07,1.64h-6.74Z"/></g></g></g></svg>