<?xml version="1.0" encoding="UTF-8"?><svg id="Layer_2" xmlns="http://www.w3.org/2000/svg" viewBox="0 0 244 250.23"><defs><style>.cls-1{fill:#b7b7b7;}.cls-2{fill:#fff;}.cls-3{fill:#909df0;}.cls-4{fill:#0b0e11;}</style></defs><g id="Icons"><g><g><path class="cls-1" d="m230.61,164.35c-3.36-5.56-9.38-9.02-16.12-9.23-6.76-.22-13.24,3.02-16.92,8.45l-1.66-1.12c4.05-5.99,11.19-9.56,18.64-9.33,7.41.24,14.06,4.05,17.77,10.2l-1.71,1.03Z"/><path class="cls-1" d="m238.5,156.76c-4.97-8.26-13.89-13.38-23.86-13.7-10.11-.32-19.45,4.32-24.96,12.42l-1.65-1.12c5.9-8.67,15.86-13.64,26.67-13.29,10.65.34,20.19,5.82,25.51,14.67l-1.71,1.03Z"/><path class="cls-1" d="m214.5,186.23c-3.03,0-5.5-2.47-5.5-5.5s2.47-5.5,5.5-5.5,5.5,2.47,5.5,5.5-2.47,5.5-5.5,5.5Zm0-9c-1.93,0-3.5,1.57-3.5,3.5s1.57,3.5,3.5,3.5,3.5-1.57,3.5-3.5-1.57-3.5-3.5-3.5Z"/><path class="cls-1" d="m220.55,169.09c-1.75-1.58-4.05-2.45-6.47-2.45s-4.68.86-6.42,2.41l-1.33-1.49c2.11-1.88,4.87-2.92,7.75-2.92s5.69,1.05,7.81,2.97l-1.34,1.48Z"/></g><g><polygon class="cls-3" points="171 133.23 7 133.23 7 104.23 147 104.23 147 116.32 150.88 119.23 171 119.06 171 133.23"/><path class="cls-4" d="m146,217.23H13.53c-4.7,0-8.53-3.83-8.53-8.53v-109.94c0-4.7,3.83-8.53,8.53-8.53h56.47v3H13.53c-3.05,0-5.53,2.48-5.53,5.53v109.94c0,3.05,2.48,5.53,5.53,5.53h132.47v3Z"/><rect class="cls-4" x="112" y="90.23" width="35" height="3"/><rect class="cls-4" x="169" y="118.23" width="3" height="67"/><path class="cls-4" d="m73.76,239.1l-2.66-1.38c1.89-3.65,3.91-9.25,3.91-14v-6.49h3v6.49c0,5.29-2.19,11.41-4.24,15.38Z"/><path class="cls-4" d="m104.31,239.1c-2.7-5.22-4.31-10.96-4.31-15.38v-6.49h3v6.49c0,4.66,2.05,10.29,3.97,14l-2.66,1.38Z"/><path class="cls-4" d="m119.5,250.23h-61c-.83,0-1.5-.67-1.5-1.5v-10c0-.83.67-1.5,1.5-1.5h21.5v3h-20v7h58v-7h-27v-3h28.5c.83,0,1.5.67,1.5,1.5v10c0,.83-.67,1.5-1.5,1.5Z"/><rect class="cls-4" y="247.23" width="149" height="3"/><rect class="cls-4" x="7" y="201.23" width="139" height="3"/><rect class="cls-4" x="24" y="189.23" width="34" height="3"/><rect class="cls-4" x="24" y="158.23" width="34" height="3"/><rect class="cls-4" x="24" y="173.23" width="25" height="3"/><path class="cls-4" d="m111.5,192.23h-33c-.83,0-1.5-.67-1.5-1.5v-31c0-.83.67-1.5,1.5-1.5h33c.83,0,1.5.67,1.5,1.5v31c0,.83-.67,1.5-1.5,1.5Zm-31.5-3h30v-28h-30v28Z"/><path class="cls-4" d="m139,192.23h-13.5c-.83,0-1.5-.67-1.5-1.5v-31c0-.83.67-1.5,1.5-1.5h29c.83,0,1.5.67,1.5,1.5v15.5h-3v-14h-26v28h12v3Z"/></g><g><path class="cls-4" d="m212.12,120.23h-59.24c-3.79,0-6.88-3.09-6.88-6.88V13.12c0-3.79,3.09-6.88,6.88-6.88h59.24c3.79,0,6.88,3.09,6.88,6.88v8.12h-2v-8.12c0-2.69-2.19-4.88-4.88-4.88h-59.24c-2.69,0-4.88,2.19-4.88,4.88v100.24c0,2.69,2.19,4.88,4.88,4.88h59.24c2.69,0,4.88-2.19,4.88-4.88v-53.12h2v53.12c0,3.79-3.09,6.88-6.88,6.88Z"/><path class="cls-3" d="m201.19,65.13c-.16,0-.32-.04-.46-.11-.35-.18-.56-.56-.54-.96l.6-8.83h-5.32c-3.57,0-6.47-2.9-6.47-6.47v-16.05c0-3.57,2.9-6.47,6.47-6.47h42.05c3.57,0,6.47,2.9,6.47,6.47v16.05c0,3.57-2.9,6.47-6.47,6.47h-23.76l-11.94,9.68c-.18.15-.4.22-.63.22Zm-5.72-36.9c-2.47,0-4.47,2.01-4.47,4.47v16.05c0,2.47,2.01,4.47,4.47,4.47h6.39c.28,0,.54.11.73.32s.29.47.27.75l-.52,7.61,10.44-8.46c.18-.14.4-.22.63-.22h24.12c2.47,0,4.47-2.01,4.47-4.47v-16.05c0-2.47-2.01-4.47-4.47-4.47h-42.05Z"/><rect class="cls-3" x="159" y="52.23" width="21" height="2"/><rect class="cls-3" x="159" y="62.23" width="30" height="2"/><rect class="cls-3" x="159" y="72.23" width="16" height="2"/><path class="cls-4" d="m173.6,97.97c-.94,0-1.69.76-1.69,1.69s.76,1.69,1.69,1.69,1.69-.76,1.69-1.69-.76-1.69-1.69-1.69Z"/><path class="cls-4" d="m182.63,97.97c-.93,0-1.69.76-1.69,1.69s.76,1.69,1.69,1.69,1.69-.76,1.69-1.69-.76-1.69-1.69-1.69Z"/><path class="cls-4" d="m191.66,97.97c-.93,0-1.69.76-1.69,1.69s.76,1.69,1.69,1.69,1.69-.76,1.69-1.69-.76-1.69-1.69-1.69Z"/><rect class="cls-4" x="147" y="17.23" width="70" height="2"/><rect class="cls-4" x="147" y="107.23" width="70" height="2"/></g><g><path class="cls-4" d="m12.65,73.26c-.32,0-.62-.15-.81-.42-.22-.3-.25-.7-.08-1.03,2.86-5.72,3.9-9.7,5.2-14.97C6.71,50.88.61,41.5.61,31.61.61,14.18,19.07,0,41.76,0c12.34,0,23.92,4.2,31.77,11.51l-1.36,1.46c-7.48-6.98-18.57-10.98-30.41-10.98C20.17,2,2.61,15.28,2.61,31.61c0,9.37,5.98,18.28,15.99,23.86.39.22.59.68.48,1.11-1.28,5.2-2.24,9.1-4.68,14.35,2.97-.63,6.05-1.77,9.36-3.45l.9,1.78c-4.22,2.14-8.11,3.44-11.88,3.98-.05,0-.09.01-.14.01Z"/><path class="cls-1" d="m102.24,98.34s-.09,0-.14-.01c-7.27-1.04-14.95-4.62-24.87-11.62-2.47.31-4.94.46-7.37.46-25.18,0-45.66-15.72-45.66-35.05s20.48-35.05,45.66-35.05,45.66,15.72,45.66,35.05c0,10.98-6.79,21.41-18.2,28.01,1.46,5.91,2.61,10.35,5.82,16.76.17.33.13.73-.08,1.03-.19.26-.49.42-.81.42Zm-24.75-13.67c.21,0,.41.06.58.18,8.93,6.33,15.94,9.83,22.42,11.17-2.78-5.93-3.86-10.3-5.29-16.15-.11-.44.09-.89.48-1.11,11.17-6.22,17.84-16.18,17.84-26.64,0-18.23-19.59-33.05-43.66-33.05s-43.66,14.83-43.66,33.05,19.59,33.05,43.66,33.05c2.46,0,4.99-.17,7.49-.5.04,0,.09,0,.13,0Z"/><rect class="cls-1" x="49" y="45.23" width="41" height="2"/><rect class="cls-1" x="49" y="56.23" width="29" height="2"/></g><polygon class="cls-3" points="169.55 249.41 184.61 224.99 212.31 217.56 156.33 187.01 169.55 249.41"/><path class="cls-4" d="m162.11,247.6c-.09,0-.17,0-.26-.02-.6-.1-1.08-.57-1.21-1.17l-13.22-62.4c-.12-.57.1-1.16.57-1.51.47-.35,1.1-.39,1.61-.11l55.99,30.55c.54.29.84.89.77,1.49-.07.61-.51,1.11-1.1,1.27l-27.13,7.27-14.75,23.91c-.28.45-.76.71-1.28.71Zm-11.08-61.02l11.77,55.54,13.09-21.22c.2-.33.52-.56.89-.66l24.09-6.46-49.84-27.2Z"/><g><rect class="cls-4" x="122" y="4.23" width="2" height="5"/><rect class="cls-4" x="122" y="19.23" width="2" height="5"/><rect class="cls-4" x="113" y="13.23" width="6" height="2"/><rect class="cls-4" x="128" y="13.23" width="5" height="2"/></g><g><rect class="cls-4" x="225" y="219.23" width="2" height="6"/><rect class="cls-4" x="225" y="234.23" width="2" height="5"/><rect class="cls-4" x="216" y="228.23" width="6" height="2"/><rect class="cls-4" x="231" y="228.23" width="5" height="2"/></g><path class="cls-2" d="m38.51,121.07l-7-11.79h-4.23v17.65h3.21v-11.51l6.9,11.51h4.34v-17.65h-3.21v11.79Zm11.23-2.16h8.02v-3.21h-8.02v-3.21h9.63v-3.21h-12.84v17.65h12.84v-3.21h-9.63v-4.81Zm27.14,2.7l-3.09-12.33h-4.24l-3.23,12.12-2.66-12.12h-3.65l4.21,17.65h3.86l3.5-13.2,3.52,13.2h3.78l4.29-17.65h-3.59l-2.71,12.33Zm20.57-2.39c-.46-.75-1.11-1.34-1.93-1.77-.82-.43-2.09-.85-3.8-1.26-1.71-.4-2.79-.79-3.24-1.17-.35-.29-.52-.65-.52-1.06,0-.45.19-.81.56-1.08.58-.42,1.38-.63,2.4-.63s1.74.2,2.23.59c.49.39.82,1.04.97,1.94l3.52-.15c-.06-1.6-.64-2.88-1.74-3.85-1.11-.96-2.76-1.44-4.95-1.44-1.34,0-2.49.2-3.44.61-.95.4-1.67.99-2.18,1.77-.51.77-.76,1.6-.76,2.49,0,1.38.54,2.55,1.61,3.51.76.68,2.09,1.26,3.98,1.73,1.47.37,2.41.62,2.82.76.6.21,1.03.47,1.27.76.24.29.36.64.36,1.05,0,.64-.29,1.2-.86,1.68-.57.48-1.43.72-2.56.72-1.07,0-1.92-.27-2.55-.81-.63-.54-1.05-1.38-1.26-2.54l-3.43.33c.23,1.95.94,3.44,2.12,4.46,1.18,1.02,2.88,1.53,5.08,1.53,1.52,0,2.78-.21,3.8-.64,1.02-.43,1.8-1.07,2.36-1.95.56-.87.83-1.81.83-2.81,0-1.1-.23-2.03-.7-2.78Z"/></g></g></svg>