<?xml version="1.0" encoding="UTF-8"?><svg id="Layer_2" xmlns="http://www.w3.org/2000/svg" viewBox="0 0 1362.37 599.54"><defs><style>.cls-1{stroke-dasharray:0 0 0 10.03;}.cls-1,.cls-2,.cls-3,.cls-4,.cls-5,.cls-6,.cls-7{stroke:#231f20;stroke-miterlimit:10;stroke-width:5px;}.cls-1,.cls-2,.cls-3,.cls-4,.cls-6,.cls-7{fill:none;stroke-linecap:round;}.cls-2{stroke-dasharray:0 0 0 9.88;}.cls-4{stroke-dasharray:0 0 0 10.09;}.cls-5{fill:#fff;}.cls-6{stroke-dasharray:0 0 0 10;}.cls-7{stroke-dasharray:0 0 0 9.89;}.cls-8{fill:#231f20;}</style></defs><g id="Layer_1-2"><g><g><line class="cls-3" x1="105.28" y1="481.62" x2="105.28" y2="481.62"/><line class="cls-2" x1="109.15" y1="472.53" x2="223.48" y2="204.27"/><line class="cls-3" x1="225.42" y1="199.72" x2="225.42" y2="199.72"/><line class="cls-4" x1="233.32" y1="205.99" x2="427.02" y2="359.69"/><line class="cls-3" x1="430.97" y1="362.83" x2="430.97" y2="362.83"/><line class="cls-1" x1="436.6" y1="354.52" x2="602.55" y2="109.43"/><line class="cls-3" x1="605.36" y1="105.28" x2="605.36" y2="105.28"/><line class="cls-7" x1="609.79" y1="114.12" x2="798.07" y2="489.84"/><line class="cls-3" x1="800.29" y1="494.26" x2="800.29" y2="494.26"/><polyline class="cls-6" points="806.8 486.67 979.9 285.04 1252.54 161.31"/><line class="cls-3" x1="1257.09" y1="159.24" x2="1257.09" y2="159.24"/></g><circle class="cls-5" cx="105.28" cy="481.62" r="102.78"/><g><path class="cls-8" d="m41.1,467.61h4.46v4.04h6.54v-4.04h4.5v15.05h-15.5v-15.05Zm24.75,23.77c-.02,3.96-4.13,6.26-10.79,6.26s-10.99-2.3-10.97-6.26c-.02-3.9,4.2-6.19,10.97-6.19s10.78,2.29,10.79,6.19Zm-13.75-12.27v-3.97h-6.54v3.97h6.54Zm2.95,15.05c4.15,0,6.36-.95,6.36-2.78s-2.21-2.69-6.36-2.71c-4.2.02-6.5.88-6.47,2.71-.04,1.83,2.27,2.78,6.47,2.78Zm5.98-28.55h4.5v7.42h4.32v3.76h-4.32v7.7h-4.5v-18.88Z"/><path class="cls-8" d="m88.03,480.87h12.41v3.59h-29.18v-3.59h12.34v-3.94h4.43v3.94Zm-4.5-13.68v-1.05h4.57v1.05c-.02,3.74,3.57,7.26,10.79,8.16l-1.72,3.48c-5.41-.81-9.39-3.08-11.41-6.28-2.04,3.18-6.01,5.48-11.41,6.28l-1.58-3.48c7.07-.9,10.74-4.55,10.76-8.16Zm2.29,19.02c6.96.02,11.11,2.09,11.14,5.73-.04,3.64-4.18,5.68-11.14,5.66-7.01.02-11.21-2.02-11.21-5.66s4.2-5.71,11.21-5.73Zm0,8.05c4.38,0,6.63-.76,6.64-2.32-.02-1.6-2.27-2.3-6.64-2.32-4.48.02-6.66.72-6.64,2.32-.02,1.56,2.16,2.32,6.64,2.32Z"/><path class="cls-8" d="m130.78,481.25l-2.29,3.52c-3.59-1.14-6.1-3.45-7.54-6.33-1.46,3.16-4.06,5.68-7.82,6.93l-2.32-3.52c5.33-1.71,7.77-5.87,7.77-9.91v-.46h-6.57v-3.59h17.58v3.59h-6.43v.46c-.02,3.81,2.37,7.72,7.63,9.32Zm-14.77,5.41h4.54v6.79h17.75v3.59h-22.29v-10.37Zm16.95-21.02h4.5v23.13h-4.5v-23.13Z"/><path class="cls-8" d="m141.61,468.91h5.66v-3.02h4.46v3.02h5.59v3.48h-15.71v-3.48Zm7.91,4.54c4.06,0,6.98,2.23,7,5.59-.02,3.32-2.94,5.54-7,5.55-4.01-.02-6.94-2.23-6.93-5.55-.02-3.36,2.92-5.59,6.93-5.59Zm0,7.95c1.74.02,2.94-.88,2.95-2.36-.02-1.49-1.21-2.37-2.95-2.36-1.74-.02-2.94.86-2.92,2.36-.02,1.48,1.16,2.37,2.92,2.36Zm8.82,4.57c6.91.02,11.07,2.13,11.11,5.84-.04,3.69-4.2,5.82-11.11,5.8-6.89.02-11.09-2.11-11.07-5.8-.02-3.71,4.18-5.82,11.07-5.84Zm0,8.26c4.36,0,6.57-.81,6.57-2.43s-2.21-2.48-6.57-2.46c-4.34-.02-6.61.77-6.57,2.46-.04,1.62,2.23,2.43,6.57,2.43Zm10.93-8.54h-4.25v-8.51h-2.57v7.45h-4.18v-18.42h4.18v7.31h2.57v-7.91h4.25v20.07Z"/></g><circle class="cls-5" cx="225.42" cy="199.72" r="102.78"/><g><path class="cls-8" d="m162.4,187.03h5.66v-3.02h4.46v3.02h5.59v3.48h-15.71v-3.48Zm7.91,4.54c4.06,0,6.98,2.23,7,5.59-.02,3.32-2.94,5.54-7,5.55-4.01-.02-6.94-2.23-6.93-5.55-.02-3.36,2.92-5.59,6.93-5.59Zm0,7.95c1.74.02,2.94-.88,2.95-2.36-.02-1.49-1.21-2.37-2.95-2.36-1.74-.02-2.94.86-2.92,2.36-.02,1.48,1.16,2.37,2.92,2.36Zm8.82,4.57c6.91.02,11.07,2.13,11.11,5.84-.04,3.69-4.2,5.82-11.11,5.8-6.89.02-11.09-2.11-11.07-5.8-.02-3.71,4.18-5.82,11.07-5.84Zm0,8.26c4.36,0,6.57-.81,6.57-2.43s-2.21-2.48-6.57-2.46c-4.34-.02-6.61.77-6.57,2.46-.04,1.62,2.23,2.43,6.57,2.43Zm10.93-8.54h-4.25v-8.51h-2.57v7.45h-4.18v-18.42h4.18v7.31h2.57v-7.91h4.25v20.07Z"/><path class="cls-8" d="m213.02,204.96l-2.71,3.59c-3.43-1.71-5.75-4.87-7.07-8.72-1.41,4.13-3.87,7.52-7.49,9.32l-2.78-3.62c5.43-2.5,7.98-8.61,7.98-14.55v-4.78h4.5v4.78c-.02,5.73,2.43,11.51,7.56,13.99Zm1.41-21.23h4.5v12.34h4.71v3.8h-4.71v15.86h-4.5v-31.99Z"/><path class="cls-8" d="m240.83,187.03l7.07,17.26h.28l7.07-17.26h6.54v25.45h-5.13v-16.66h-.21l-6.64,16.56h-3.52l-6.64-16.63h-.21v16.73h-5.13v-25.45h6.54Z"/><path class="cls-8" d="m277.53,191.35c-3.96.02-6.57,3.04-6.57,8.4s2.65,8.38,6.54,8.4c2.9-.02,5.08-1.6,5.59-4.36l5.34.04c-.58,4.71-4.54,9-11,9-6.8,0-11.85-4.8-11.85-13.08s5.13-13.08,11.85-13.08c5.87,0,10.3,3.36,11,9.21h-5.34c-.42-2.81-2.58-4.52-5.55-4.54Z"/></g><circle class="cls-5" cx="430.97" cy="362.83" r="102.78"/><g><path class="cls-8" d="m384.09,361.65l.35,3.34c-1.92.37-4.03.62-6.12.79v10.49h-4.22v-10.27c-2.14.07-4.17.07-5.8.07l-.49-3.66c4.31.04,11.21,0,16.28-.77Zm-.67-6.96c-.02,3.57-3.04,6.05-7.1,6.05s-7.19-2.48-7.17-6.05c-.02-3.57,3.01-6.08,7.17-6.08s7.08,2.51,7.1,6.08Zm-7.1,2.74c1.85-.02,3.11-1.04,3.13-2.74-.02-1.71-1.28-2.78-3.13-2.78s-3.2,1.07-3.2,2.78,1.27,2.72,3.2,2.74Zm4.29,9.95h5.1v-20.04h4.22v29.99h-4.22v-6.54h-5.1v-3.41Zm11.57-20.57h4.22v31.99h-4.22v-31.99Z"/><path class="cls-8" d="m401.21,349.21h15.29v3.59h-10.86v7.59c6.06-.02,9.6-.26,13.5-1.02l.39,3.59c-4.32.88-8.24,1.04-15.54,1.02h-2.78v-14.77Zm14.06,17.05c6.73-.02,10.97,2.32,11,6.29-.04,3.96-4.27,6.29-11,6.29s-11.02-2.34-11-6.29c-.02-3.97,4.17-6.31,11-6.29Zm0,9.11c4.24,0,6.56-.95,6.57-2.81-.02-1.92-2.34-2.78-6.57-2.78s-6.5.86-6.5,2.78,2.23,2.81,6.5,2.81Zm10.9-9.42h-4.5v-19.12h4.5v19.12Z"/><path class="cls-8" d="m446.53,350.12l7.07,17.26h.28l7.07-17.26h6.54v25.45h-5.13v-16.66h-.21l-6.64,16.56h-3.52l-6.64-16.63h-.21v16.73h-5.13v-25.45h6.54Z"/><path class="cls-8" d="m483.23,354.45c-3.96.02-6.57,3.04-6.57,8.4s2.65,8.38,6.54,8.4c2.9-.02,5.08-1.6,5.59-4.36l5.34.04c-.58,4.71-4.54,9-11,9-6.8,0-11.85-4.8-11.85-13.08s5.13-13.08,11.85-13.08c5.87,0,10.3,3.36,11,9.21h-5.34c-.42-2.81-2.58-4.52-5.55-4.54Z"/></g><circle class="cls-5" cx="605.36" cy="105.28" r="102.78"/><g><path class="cls-8" d="m523.78,93.4h13.16v11.03h-9.16v5.16c4.14-.02,7.56-.2,11.34-.84l.34,3.19c-4.34.8-8.25.97-13.25.97h-2.41v-11.62h9.16v-4.66h-9.19v-3.22Zm21.28,8.38h4.19v3.28h-4.19v14.47h-3.94v-28.5h3.94v10.75Z"/><path class="cls-8" d="m558.66,93.03c4.28,0,7.47,3.92,7.47,10.12s-3.19,10.16-7.47,10.16-7.55-3.91-7.53-10.16c-.02-6.2,3.16-10.12,7.53-10.12Zm0,16.66c2.16.02,3.61-2.3,3.62-6.53-.02-4.22-1.47-6.53-3.62-6.53s-3.7,2.31-3.69,6.53c-.02,4.23,1.47,6.55,3.69,6.53Zm15.44,9.84h-4.03v-28.5h4.03v28.5Z"/><path class="cls-8" d="m603.97,116.03h-26.03v-3.25h26.03v3.25Zm-23.28-23.19h4v4.72h12.41v-4.72h3.97v15.19h-20.38v-15.19Zm16.41,12.06v-4.25h-12.41v4.25h12.41Z"/><path class="cls-8" d="m607.56,115.15l-2.19-3c4.5-2.36,7.31-5,8.95-8.16l-8.27.75-.53-3.38,10.03-.59c.33-1.2.53-2.48.64-3.84h-9.14v-3.19h13.12c-.02,8.75-2.38,16.08-12.62,21.41Zm12.56-13.19h5.47v-10.94h3.97v28.44h-3.97v-14.25h-5.47v-3.25Z"/><path class="cls-8" d="m647.94,100.87h5.38v-9.84h3.94v28.5h-3.94v-15.44h-5.38v8.44h-13.62v-18.97h13.62v7.31Zm-3.91,8.56v-12.78h-5.75v12.78h5.75Z"/><path class="cls-8" d="m660.91,112.68h26.03v3.28h-26.03v-3.28Zm25.09-8.19l-1.75,3.31c-4.97-.98-8.64-3.78-10.48-7.42-1.88,3.61-5.56,6.42-10.48,7.42l-1.72-3.31c6.33-1.12,10.03-5.59,10.06-9.72v-2.06h4.25v2.06c-.02,4.17,3.69,8.62,10.12,9.72Z"/></g><circle class="cls-5" cx="800.29" cy="494.26" r="102.78"/><g><path class="cls-8" d="m782.96,483.92h-10.27v-3.59h15.15c.02,8.53-5.34,14.5-14.87,17.16l-1.79-3.62c7.05-1.86,11.07-5.52,11.78-9.95Zm3.38,13.25c6.52,0,10.78,2.53,10.79,6.54-.02,4.04-4.27,6.54-10.79,6.54s-10.86-2.5-10.83-6.54c-.04-4.01,4.32-6.54,10.83-6.54Zm0,9.56c3.97.02,6.36-1.09,6.36-3.02s-2.39-3.06-6.36-3.06-6.42,1.09-6.4,3.06c-.02,1.93,2.37,3.04,6.4,3.02Zm10.44-20.99h4.32v3.66h-4.32v7.38h-4.5v-18.56h4.5v7.52Z"/><path class="cls-8" d="m823.1,499.08l.35,3.23c-7.1,1.39-14.7,1.44-20.29,1.44l-.53-3.66c5.71.02,13.62-.05,20.46-1.02Zm-1.37-10.86c-.02,4.61-3.78,7.86-8.86,7.88-5.04-.02-8.91-3.27-8.89-7.88-.02-4.59,3.85-7.86,8.89-7.84,5.08-.02,8.84,3.25,8.86,7.84Zm-8.86,3.97c2.55.02,4.48-1.44,4.5-3.97-.02-2.5-1.95-3.97-4.5-3.97s-4.45,1.48-4.43,3.97c-.02,2.53,1.9,3.99,4.43,3.97Zm12.06-13.96h4.46v32.06h-4.46v-32.06Z"/></g><circle class="cls-5" cx="979.9" cy="285.04" r="102.78"/><g><path class="cls-8" d="m920.06,272.56h4.5v16.72c2.57-.07,5.4-.3,8.47-.9l.46,3.87c-4.29.74-7.95.97-11.25.95h-2.18v-20.64Zm26.3,28.44h-4.32v-16h-2.99v14.45h-4.22v-29.92h4.22v11.85h2.99v-12.38h4.32v31.99Z"/><path class="cls-8" d="m962.11,284.34h-7.03v5.45c3.13-.04,6.06-.19,9.39-.81l.39,3.66c-4.2.77-7.79.84-11.81.88h-2.25v-12.73h7v-5.03h-7.03v-3.55h11.36v12.13Zm1.34-4.39h3.27v-10.34h4.18v29.85h-4.18v-15.89h-3.27v-3.62Zm9.84-10.93h4.25v31.99h-4.25v-31.99Z"/><path class="cls-8" d="m990.41,271.26c4.82,0,8.4,4.41,8.4,11.39s-3.59,11.43-8.4,11.43-8.49-4.39-8.47-11.43c-.02-6.98,3.55-11.39,8.47-11.39Zm0,18.74c2.43.02,4.06-2.58,4.08-7.35-.02-4.75-1.65-7.35-4.08-7.35s-4.17,2.6-4.15,7.35c-.02,4.76,1.65,7.37,4.15,7.35Zm17.37,11.07h-4.54v-32.06h4.54v32.06Z"/><path class="cls-8" d="m1031.33,285.22l-2.5,3.48c-3.36-1.32-5.66-3.85-6.98-7-1.39,3.36-3.87,6.01-7.51,7.38l-2.39-3.52c5.26-1.86,7.58-6.35,7.59-11.04v-3.69h4.54v3.69c0,4.43,2.2,8.81,7.24,10.69Zm-13.57,5.27h4.54v6.36h17.44v3.59h-21.97v-9.95Zm11.36-11.11h5.48v-2.57h-5.48v-3.62h5.48v-4.15h4.46v23.73h-4.46v-9.77h-5.48v-3.62Z"/></g><circle class="cls-5" cx="1257.09" cy="159.24" r="102.78"/><g><path class="cls-8" d="m1197.7,157.85v-5.68h4.46v5.55c3.2-.12,6.45-.33,9.46-.7l.25,3.13c-6.66,1.14-13.96,1.34-19.72,1.34l-.39-3.59c1.83,0,3.83-.02,5.94-.05Zm12.48-10.74c-.04,2.09-.04,4.94-.77,8.4l-4.39-.32c.53-2.67.65-4.78.69-6.57h-12.04v-3.59h16.52v2.07Zm-3.13,16.07c6.86,0,11.11,2.27,11.11,5.94,0,3.87-4.25,6.1-11.11,6.08-6.86.02-11.14-2.21-11.14-6.08s4.29-5.94,11.14-5.94Zm0,8.54c4.2,0,6.5-.79,6.5-2.6,0-1.62-2.3-2.51-6.5-2.5-4.2-.02-6.59.88-6.57,2.5-.02,1.81,2.37,2.6,6.57,2.6Zm6.29-28.44h4.61v7.88h3.9v3.73h-3.9v7.91h-4.61v-19.51Z"/><path class="cls-8" d="m1223.29,167.71h10.44v-11h4.46v11h14.27v3.66h-29.18v-3.66Zm26.37-18.63c-.02,4.01-.02,8.51-1.3,15.29l-4.5-.46c1.23-6.05,1.28-10.55,1.3-14.31h-18.84v-3.55h23.34v3.02Z"/><path class="cls-8" d="m1291.99,171.54h-29.29v-3.69h12.34v-6.54h-9.25v-15.68h22.92v15.68h-9.21v6.54h12.48v3.69Zm-7.7-13.75v-8.58h-14.06v8.58h14.06Z"/><path class="cls-8" d="m1295.19,144.82h12.48v3.52h-8.02v7.35c3.57-.04,6.05-.16,8.93-.63l.28,3.55c-3.48.54-6.43.63-11.46.63h-2.21v-14.41Zm4.22,16.24h22.08v8.51h-17.58v1.83h18.53v3.52h-22.99v-8.68h17.65v-1.65h-17.68v-3.52Zm6.4-11.07h5.03v-6.15h4.22v16.07h-4.22v-6.54h-5.03v-3.38Zm15.68,10.05h-4.25v-16.73h4.25v16.73Z"/></g></g></g></svg>