<svg xmlns="http://www.w3.org/2000/svg" viewBox="0 0 302.27 81.99"><defs><style>.ee4b2f7d-273c-44e9-8b61-d8888c3228bb{fill:#fff;}.bb089af3-92b8-4ff1-bce2-2f4409e345de{fill:#e3705c;}</style></defs><g id="f06eab35-6c2f-4256-b368-c6ee8ce0d750" data-name="Layer 2"><g id="ff041a24-50bf-4d22-a3dd-17172ff99d1d" data-name="Layer 1"><path class="ee4b2f7d-273c-44e9-8b61-d8888c3228bb" d="M35.08,18.27a.51.51,0,0,1-.47-.32l-1.09-2.83H28.59L27.5,18a.51.51,0,0,1-.47.32h-2.3a.49.49,0,0,1-.41-.22.5.5,0,0,1-.05-.46L29.43,4.3A.51.51,0,0,1,29.9,4h2.31a.51.51,0,0,1,.47.32l5.16,13.29a.5.5,0,0,1-.05.46.51.51,0,0,1-.42.22ZM32.32,12,31.05,8.74,29.79,12Z"/><path class="bb089af3-92b8-4ff1-bce2-2f4409e345de" d="M32.21,4.48l5.16,13.29H35.08l-1.22-3.15H28.24L27,17.77h-2.3L29.9,4.48h2.31m-3.15,8h4l-2-5.18-2,5.18m3.15-9H29.9a1,1,0,0,0-.94.64L23.8,17.41a1,1,0,0,0,.11.93,1,1,0,0,0,.82.43H27a1,1,0,0,0,.93-.64l1-2.51h4.25l1,2.51a1,1,0,0,0,.93.64h2.29a1,1,0,0,0,.94-1.36L33.14,4.12a1,1,0,0,0-.93-.64Zm-1.69,8,.53-1.39.54,1.39Z"/><path class="ee4b2f7d-273c-44e9-8b61-d8888c3228bb" d="M47.81,18.27a.51.51,0,0,1-.4-.2l-5.74-7.89v7.59a.5.5,0,0,1-.5.5H38.89a.5.5,0,0,1-.5-.5V4.48a.51.51,0,0,1,.5-.5h2a.52.52,0,0,1,.41.21l5.74,7.9V4.48a.5.5,0,0,1,.5-.5h2.27a.5.5,0,0,1,.5.5V17.77a.5.5,0,0,1-.5.5Z"/><path class="bb089af3-92b8-4ff1-bce2-2f4409e345de" d="M49.86,4.48V17.77h-2L41.17,8.64v9.13H38.89V4.48h2l6.65,9.15V4.48h2.27m0-1H47.59a1,1,0,0,0-1,1v6.07L41.75,3.9a1,1,0,0,0-.81-.42h-2a1,1,0,0,0-1,1V17.77a1,1,0,0,0,1,1h2.28a1,1,0,0,0,1-1V11.71L47,18.36a1,1,0,0,0,.81.41h2a1,1,0,0,0,1-1V4.48a1,1,0,0,0-1-1Z"/><path class="ee4b2f7d-273c-44e9-8b61-d8888c3228bb" d="M61.59,18.27a.51.51,0,0,1-.4-.2l-5.74-7.89v7.59a.5.5,0,0,1-.5.5H52.67a.5.5,0,0,1-.5-.5V4.48a.5.5,0,0,1,.5-.5h2a.52.52,0,0,1,.41.21l5.73,7.9V4.48a.51.51,0,0,1,.5-.5h2.28a.5.5,0,0,1,.5.5V17.77a.5.5,0,0,1-.5.5Z"/><path class="bb089af3-92b8-4ff1-bce2-2f4409e345de" d="M63.64,4.48V17.77h-2L55,8.64v9.13H52.67V4.48h2l6.64,9.15V4.48h2.28m0-1H61.36a1,1,0,0,0-1,1v6.07L55.53,3.9a1,1,0,0,0-.81-.42h-2a1,1,0,0,0-1,1V17.77a1,1,0,0,0,1,1H55a1,1,0,0,0,1-1v-6l4.83,6.64a1,1,0,0,0,.81.41h2a1,1,0,0,0,1-1V4.48a1,1,0,0,0-1-1Z"/><path class="ee4b2f7d-273c-44e9-8b61-d8888c3228bb" d="M67.53,18.5a2,2,0,1,1,2-2A2,2,0,0,1,67.53,18.5Z"/><path class="bb089af3-92b8-4ff1-bce2-2f4409e345de" d="M67.53,15A1.5,1.5,0,1,1,66,16.5a1.49,1.49,0,0,1,1.5-1.5m0-1A2.5,2.5,0,1,0,70,16.5a2.5,2.5,0,0,0-2.5-2.5Z"/><path class="ee4b2f7d-273c-44e9-8b61-d8888c3228bb" d="M77,18.27a.5.5,0,0,1-.5-.5V4.48A.51.51,0,0,1,77,4h4.52a4.67,4.67,0,0,1,4.9,4.76,4.67,4.67,0,0,1-4.9,4.75H79.78v4.28a.5.5,0,0,1-.5.5Zm4.23-7.95c1.21,0,1.88-.56,1.88-1.58s-.67-1.59-1.88-1.59H79.78v3.17Z"/><path class="bb089af3-92b8-4ff1-bce2-2f4409e345de" d="M81.52,4.48a4.16,4.16,0,0,1,4.4,4.26A4.15,4.15,0,0,1,81.52,13H79.28v4.78H77V4.48h4.52m-2.24,6.34h2c1.56,0,2.38-.83,2.38-2.08s-.82-2.09-2.38-2.09h-2v4.17m2.24-7.34H77a1,1,0,0,0-1,1V17.77a1,1,0,0,0,1,1h2.28a1,1,0,0,0,1-1V14h1.24a5.15,5.15,0,0,0,5.4-5.25,5.15,5.15,0,0,0-5.4-5.26ZM80.28,7.65h1c1.38,0,1.38.79,1.38,1.09s0,1.08-1.38,1.08h-1V7.65Z"/><path class="ee4b2f7d-273c-44e9-8b61-d8888c3228bb" d="M93.7,18.5a7.14,7.14,0,0,1-7.22-7.37,7.22,7.22,0,1,1,14.44,0A7.13,7.13,0,0,1,93.7,18.5Zm0-11.58a3.93,3.93,0,0,0-3.9,4.21,3.92,3.92,0,1,0,7.81,0A3.93,3.93,0,0,0,93.7,6.92Z"/><path class="bb089af3-92b8-4ff1-bce2-2f4409e345de" d="M93.7,4.26a6.61,6.61,0,0,1,6.72,6.87,6.72,6.72,0,1,1-13.44,0A6.62,6.62,0,0,1,93.7,4.26m0,11.57a4.43,4.43,0,0,0,4.41-4.7,4.41,4.41,0,1,0-8.81,0,4.43,4.43,0,0,0,4.4,4.7m0-12.57A7.62,7.62,0,0,0,86,11.13a7.72,7.72,0,1,0,15.44,0A7.62,7.62,0,0,0,93.7,3.26Zm0,11.57a3.46,3.46,0,0,1-3.4-3.7,3.42,3.42,0,1,1,6.81,0,3.46,3.46,0,0,1-3.41,3.7Z"/><path class="ee4b2f7d-273c-44e9-8b61-d8888c3228bb" d="M108.94,18.27a.5.5,0,0,1-.42-.23l-3-4.78h-.27v4.51a.5.5,0,0,1-.5.5h-2.28a.5.5,0,0,1-.5-.5V4.48a.51.51,0,0,1,.5-.5h4.37a4.57,4.57,0,0,1,4.9,4.64,4.32,4.32,0,0,1-2.69,4.26l3,4.62a.5.5,0,0,1-.42.77Zm-2.39-8.17c1.25,0,1.88-.5,1.88-1.48s-.63-1.47-1.88-1.47h-1.3V10.1Z"/><path class="bb089af3-92b8-4ff1-bce2-2f4409e345de" d="M106.84,4.48a4.07,4.07,0,0,1,4.4,4.14,3.84,3.84,0,0,1-3,4l3.32,5.16h-2.66l-3.15-5h-1v5h-2.28V4.48h4.37m-2.09,6.12h1.8c1.46,0,2.38-.67,2.38-2s-.92-2-2.38-2h-1.8V10.6m2.09-7.12h-4.37a1,1,0,0,0-1,1V17.77a1,1,0,0,0,1,1h2.28a1,1,0,0,0,1-1v-3.2l2.35,3.73a1,1,0,0,0,.84.47h2.66a1,1,0,0,0,.84-1.54l-2.66-4.14a4.93,4.93,0,0,0,2.46-4.47,5,5,0,0,0-5.4-5.14Zm-1.09,4.17h.8c1.38,0,1.38.66,1.38,1s0,1-1.38,1h-.8V7.65Z"/><path class="ee4b2f7d-273c-44e9-8b61-d8888c3228bb" d="M116.06,18.27a.5.5,0,0,1-.5-.5V7.15H112.4a.5.5,0,0,1-.5-.5V4.48a.5.5,0,0,1,.5-.5H122a.5.5,0,0,1,.5.5V6.65a.5.5,0,0,1-.5.5h-3.16V17.77a.5.5,0,0,1-.5.5Z"/><path class="bb089af3-92b8-4ff1-bce2-2f4409e345de" d="M122,4.48V6.65h-3.66V17.77h-2.28V6.65H112.4V4.48H122m0-1h-9.6a1,1,0,0,0-1,1V6.65a1,1,0,0,0,1,1h2.66V17.77a1,1,0,0,0,1,1h2.28a1,1,0,0,0,1-1V7.65H122a1,1,0,0,0,1-1V4.48a1,1,0,0,0-1-1Z"/><path class="ee4b2f7d-273c-44e9-8b61-d8888c3228bb" d="M8,21.49A7.56,7.56,0,0,1,1.89,9.55a7.42,7.42,0,0,1,.49-.62c.16-.19.31-.33.47-.49L8.39,2.9A.83.83,0,0,0,7.8,1.5.51.51,0,0,1,7.31,1,.51.51,0,0,1,7.81.5h6c.21,0,.4,0,.63,0A7.71,7.71,0,0,1,18,1.66a7.58,7.58,0,0,1,3.53,6.16,7.66,7.66,0,0,1-.77,3.58,7.39,7.39,0,0,1-1,1.54l-.29.33L13.6,19.09a.83.83,0,0,0,.59,1.4.5.5,0,0,1,0,1H8Z"/><path class="bb089af3-92b8-4ff1-bce2-2f4409e345de" d="M13.83,1c.2,0,.39,0,.62,0a7,7,0,0,1,3.24,1.07,7.06,7.06,0,0,1,2.58,9.09,6.73,6.73,0,0,1-.94,1.44,3.65,3.65,0,0,1-.27.3l-.3.31-.63.63-4.88,4.88A1.33,1.33,0,0,0,14.18,21H8A7.07,7.07,0,0,1,2.3,9.84a6.51,6.51,0,0,1,.46-.58c.18-.2.33-.36.52-.54L4.4,7.6,8.74,3.25A1.31,1.31,0,0,0,9,1.83,1.33,1.33,0,0,0,7.81,1h6m0-1h-6a1,1,0,0,0-1,1,1,1,0,0,0,1,1A.33.33,0,0,1,8,2.56L5.86,4.72,3.69,6.89l-.56.56L2.57,8l-.07.07c-.17.17-.32.33-.49.52s-.36.43-.53.66A8.22,8.22,0,0,0,.13,12.47,8.07,8.07,0,0,0,8,22h6.22a1,1,0,0,0,0-2,.32.32,0,0,1-.3-.2.33.33,0,0,1,.06-.36L16.4,17l2.44-2.44.2-.2.43-.42.06-.07c.09-.09.18-.17.26-.26s.21-.23.31-.35a7.71,7.71,0,0,0,1.07-1.64A8.08,8.08,0,0,0,14.52,0c-.25,0-.46,0-.69,0Z"/><path class="ee4b2f7d-273c-44e9-8b61-d8888c3228bb" d="M47.65,80.72a.5.5,0,0,1-.47-.31l-5-12.83H20.68l-5,12.83a.49.49,0,0,1-.46.31H11.58a.51.51,0,0,1-.47-.68L29.08,35a.5.5,0,0,1,.47-.31h3.74a.5.5,0,0,1,.46.31L51.72,80a.5.5,0,0,1-.47.68ZM40.48,63.49,31.42,40.25,22.36,63.49Z"/><path class="bb089af3-92b8-4ff1-bce2-2f4409e345de" d="M33.29,35.14l18,45.08h-3.6L42.5,67.08H20.34L15.19,80.22H11.58l18-45.08h3.74M21.63,64H41.21L31.42,38.87,21.63,64M33.29,34.14H29.55a1,1,0,0,0-.93.63l-18,45.08a1,1,0,0,0,.1.93,1,1,0,0,0,.83.44h3.61a1,1,0,0,0,.93-.63L21,68.08H41.81l4.91,12.51a1,1,0,0,0,.93.63h3.6a1,1,0,0,0,.93-1.37l-18-45.08a1,1,0,0,0-.92-.63ZM23.09,63l8.33-21.36L39.74,63Z"/><path class="ee4b2f7d-273c-44e9-8b61-d8888c3228bb" d="M76.37,81.49c-13,0-22.78-10.23-22.78-23.81s9.79-23.82,22.78-23.82a22.06,22.06,0,0,1,16.41,7.06.5.5,0,0,1,.13.36.54.54,0,0,1-.16.34l-2.39,2.19A.47.47,0,0,1,90,44h0a.51.51,0,0,1-.34-.17,17.69,17.69,0,0,0-13.29-5.63c-10.61,0-18.31,8.21-18.31,19.53s7.7,19.53,18.31,19.53a18,18,0,0,0,14-6.32.47.47,0,0,1,.36-.18h0a.52.52,0,0,1,.36.14l2.32,2.32a.51.51,0,0,1,0,.68A22.36,22.36,0,0,1,76.37,81.49Z"/><path class="bb089af3-92b8-4ff1-bce2-2f4409e345de" d="M76.37,34.36a21.45,21.45,0,0,1,16,6.9L90,43.45a18.14,18.14,0,0,0-13.66-5.8c-11.21,0-18.81,9-18.81,20s7.6,20,18.81,20a18.62,18.62,0,0,0,14.36-6.5l2.32,2.31A21.74,21.74,0,0,1,76.37,81c-13,0-22.28-10.3-22.28-23.31s9.27-23.32,22.28-23.32m0-1c-13.27,0-23.28,10.46-23.28,24.32S63.1,82,76.37,82a22.88,22.88,0,0,0,17.44-7.81,1,1,0,0,0,0-1.36L91.44,70.5a1,1,0,0,0-.71-.29h0a1,1,0,0,0-.72.36,17.58,17.58,0,0,1-13.6,6.14c-10.32,0-17.81-8-17.81-19s7.49-19,17.81-19a17.18,17.18,0,0,1,12.92,5.47,1,1,0,0,0,.69.33h0a1,1,0,0,0,.67-.27L93.08,42a1,1,0,0,0,.33-.69,1,1,0,0,0-.27-.72,22.55,22.55,0,0,0-16.77-7.22Z"/><path class="ee4b2f7d-273c-44e9-8b61-d8888c3228bb" d="M131.44,80.72a.49.49,0,0,1-.47-.31l-5-12.83H104.47l-5,12.83a.49.49,0,0,1-.47.31h-3.6A.51.51,0,0,1,95,80.5a.5.5,0,0,1,0-.46l18-45.09a.5.5,0,0,1,.47-.31h3.73a.5.5,0,0,1,.47.31l18,45.09a.5.5,0,0,1,0,.46.51.51,0,0,1-.42.22Zm-7.18-17.23-9.05-23.24-9.06,23.24Z"/><path class="bb089af3-92b8-4ff1-bce2-2f4409e345de" d="M117.07,35.14l18,45.08h-3.6l-5.16-13.14H104.13L99,80.22h-3.6l18-45.08h3.73M105.42,64H125l-9.79-25.12L105.42,64m11.65-29.85h-3.73a1,1,0,0,0-.93.63l-18,45.08a1,1,0,0,0,.93,1.37H99a1,1,0,0,0,.94-.63l4.9-12.51H125.6l4.9,12.51a1,1,0,0,0,.94.63H135a1,1,0,0,0,.93-1.37L118,34.77a1,1,0,0,0-.93-.63ZM106.88,63l8.33-21.36L123.53,63Z"/><path class="ee4b2f7d-273c-44e9-8b61-d8888c3228bb" d="M141.48,80.72a.5.5,0,0,1-.5-.5V35.14a.5.5,0,0,1,.5-.5h12.3c13.2,0,22.79,9.69,22.79,23s-9.59,23-22.79,23Zm11.66-4.09c11.51,0,19-7.44,19-18.95s-7.44-19-19-19h-7.81v37.9Z"/><path class="bb089af3-92b8-4ff1-bce2-2f4409e345de" d="M153.78,35.14c13,0,22.29,9.53,22.29,22.54s-9.28,22.54-22.29,22.54h-12.3V35.14h12.3m-8.95,42h8.31c11.85,0,19.45-7.79,19.45-19.45S165,38.23,153.14,38.23h-8.31v38.9m8.95-43h-12.3a1,1,0,0,0-1,1V80.22a1,1,0,0,0,1,1h12.3c13.49,0,23.29-9.9,23.29-23.54s-9.8-23.54-23.29-23.54Zm-7.95,5.09h7.31c11.21,0,18.45,7.24,18.45,18.45s-7.24,18.45-18.45,18.45h-7.31V39.23Z"/><path class="ee4b2f7d-273c-44e9-8b61-d8888c3228bb" d="M184.57,80.72a.5.5,0,0,1-.5-.5V35.14a.5.5,0,0,1,.5-.5h25a.5.5,0,0,1,.5.5v3.09a.5.5,0,0,1-.5.5H188.42V55.05H208a.5.5,0,0,1,.5.5v3.1a.5.5,0,0,1-.5.5H188.42V76.63h21.52a.5.5,0,0,1,.5.5v3.09a.5.5,0,0,1-.5.5Z"/><path class="bb089af3-92b8-4ff1-bce2-2f4409e345de" d="M209.56,35.14v3.09H187.92V55.55H208v3.1H187.92V77.13h22v3.09H184.57V35.14h25m0-1h-25a1,1,0,0,0-1,1V80.22a1,1,0,0,0,1,1h25.37a1,1,0,0,0,1-1V77.13a1,1,0,0,0-1-1h-21V59.65H208a1,1,0,0,0,1-1v-3.1a1,1,0,0,0-1-1H188.92V39.23h20.64a1,1,0,0,0,1-1V35.14a1,1,0,0,0-1-1Z"/><path class="ee4b2f7d-273c-44e9-8b61-d8888c3228bb" d="M256.7,80.72a.5.5,0,0,1-.5-.5V43.51L240.06,69.22a.54.54,0,0,1-.43.23h0a.5.5,0,0,1-.42-.23L223,43.56V80.22a.5.5,0,0,1-.5.5h-3.29a.5.5,0,0,1-.5-.5V35.14a.5.5,0,0,1,.5-.5h3.16a.54.54,0,0,1,.43.23l16.83,27,16.84-27a.5.5,0,0,1,.42-.23h3.16a.5.5,0,0,1,.5.5V80.22a.5.5,0,0,1-.5.5Z"/><path class="bb089af3-92b8-4ff1-bce2-2f4409e345de" d="M260.05,35.14V80.22H256.7V41.77L239.63,69,222.5,41.84V80.22h-3.29V35.14h3.16l17.26,27.69,17.26-27.69h3.16m0-1h-3.16a1,1,0,0,0-.85.47L239.63,60.94,223.22,34.61a1,1,0,0,0-.85-.47h-3.16a1,1,0,0,0-1,1V80.22a1,1,0,0,0,1,1h3.29a1,1,0,0,0,1-1V45.29l15.29,24.2a1,1,0,0,0,.84.46h0a1,1,0,0,0,.85-.47L255.7,45.24v35a1,1,0,0,0,1,1h3.35a1,1,0,0,0,1-1V35.14a1,1,0,0,0-1-1Z"/><path class="ee4b2f7d-273c-44e9-8b61-d8888c3228bb" d="M282.33,80.72a.5.5,0,0,1-.5-.5V62.64L266.31,35.39a.5.5,0,0,1,0-.5.48.48,0,0,1,.43-.25h3.87a.5.5,0,0,1,.43.25l13,23.19,13-23.19a.52.52,0,0,1,.44-.25h3.74a.5.5,0,0,1,.43.75L286.18,62.64V80.22a.5.5,0,0,1-.5.5Z"/><path class="bb089af3-92b8-4ff1-bce2-2f4409e345de" d="M301.27,35.14,285.68,62.51V80.22h-3.35V62.51L266.74,35.14h3.87l13.46,24,13.46-24h3.74m0-1h-3.74a1,1,0,0,0-.87.51l-12.59,22.4-12.59-22.4a1,1,0,0,0-.87-.51h-3.87a1,1,0,0,0-.87,1.49l15.46,27.15V80.22a1,1,0,0,0,1,1h3.35a1,1,0,0,0,1-1V62.78l15.45-27.15a1,1,0,0,0,0-1,1,1,0,0,0-.86-.49Z"/></g></g></svg>