<svg xmlns="http://www.w3.org/2000/svg" viewBox="0 0 1370.17 602.65"><defs><style>.eef79342-dd57-42c9-8543-d300441ccf66{fill:#f46756;}.f383240a-6f11-47dc-a1f3-5a15123e0727{fill:#3d5ba9;}.f8ae1f57-7ec8-4d45-96f7-57ae37d00ea4{fill:#fff;}.acab1a15-4ec0-47a9-b1b6-b2e40586479e{fill:#26a191;}</style></defs><g id="e0830017-ca4b-4e73-b66f-4c21dd57690d" data-name="Layer 2"><g id="ac6c1018-472d-4d33-97c6-e10d8974c0a4" data-name="Layer 1"><rect class="eef79342-dd57-42c9-8543-d300441ccf66" y="106.34" width="322.63" height="161.07" rx="10"/><rect class="eef79342-dd57-42c9-8543-d300441ccf66" x="338.94" y="106.34" width="322.63" height="161.07" rx="10"/><rect class="f383240a-6f11-47dc-a1f3-5a15123e0727" x="708.72" y="106.34" width="322.63" height="161.07" rx="10"/><rect class="f383240a-6f11-47dc-a1f3-5a15123e0727" x="1047.54" y="106.34" width="322.63" height="161.07" rx="10"/><path class="f8ae1f57-7ec8-4d45-96f7-57ae37d00ea4" d="M66.57,197.06c0,7.17-3.67,11.64-8.61,11.64s-8.69-4.47-8.65-11.64S53,185.51,58,185.53,66.53,190,66.57,197.06Zm-8.61,7c2.26,0,3.74-2.33,3.76-7s-1.5-7-3.76-7-3.77,2.36-3.73,7S55.71,204.09,58,204.09Zm11.81-20.77h5.06v12H79.4v4.18H74.83v16.14H69.77Z" transform="translate(0 -8.38)"/><path class="f8ae1f57-7ec8-4d45-96f7-57ae37d00ea4" d="M81.26,186.37h5.07v17.18A73.86,73.86,0,0,0,99,202.19l.53,4.19a75.57,75.57,0,0,1-15.36,1.33H81.26Zm29,13.08h-4.33v16h-5.06V183.32h5.06v12h4.33Z" transform="translate(0 -8.38)"/><path class="f8ae1f57-7ec8-4d45-96f7-57ae37d00ea4" d="M140.92,202.79H129v5.31h-5.14v-5.31H111.43v-4h29.49Zm-14.76-18.91c7,0,11.74,2.64,11.74,6.75s-4.71,6.73-11.74,6.71-11.78-2.56-11.78-6.71S119.11,183.9,126.16,183.88Zm-11.32,21.44h5.1V211h17.75v4.08H114.84Zm11.32-12c3.9,0,6.31-.92,6.29-2.71s-2.39-2.78-6.29-2.78-6.31.9-6.29,2.78S122.29,193.32,126.16,193.34Z" transform="translate(0 -8.38)"/><path class="f8ae1f57-7ec8-4d45-96f7-57ae37d00ea4" d="M162.65,204.59l-3.06,4a14,14,0,0,1-7.1-8.4c-1.35,4-3.71,7.22-7.35,9L142,205.08c5.78-2.55,7.91-8.79,7.94-14.91v-4.46h5.14v4.46C155.06,196.32,157.08,202.23,162.65,204.59ZM159,193.19h5.91v-9.87h5v32.34h-5V197.27H159Z" transform="translate(0 -8.38)"/><path class="f8ae1f57-7ec8-4d45-96f7-57ae37d00ea4" d="M194.12,190.59H183.57v-3.93h15.71c0,9.94-3.16,18.05-14.9,23.55l-2.64-4C190,202.34,193.4,197.55,194.12,190.59Zm14.87,25h-5.14V183.32H209Z" transform="translate(0 -8.38)"/><path class="f8ae1f57-7ec8-4d45-96f7-57ae37d00ea4" d="M242.35,212h-29.5v-4.11h12.24v-6h5v6h12.27Zm-17.42-20.5h-9.58v-4h9.74v-3.9h5v3.9h9.77v4h-9.61c.44,3.17,3.67,6.73,11.3,7.56l-1.83,4c-5.9-.7-10-3-12.14-6.17-2.16,3.15-6.19,5.47-12.08,6.17l-1.83-4C221.24,198.27,224.47,194.71,224.93,191.54Z" transform="translate(0 -8.38)"/><path class="f8ae1f57-7ec8-4d45-96f7-57ae37d00ea4" d="M244.81,185.64h5v4.43h5.73v-4.43h5.07v16.45H244.81Zm3.69,19h5.07V211h17.15v4H248.5Zm7-6.51v-4.22H249.8v4.22Zm14.14-5.94h4.18v4.15h-4.18v10.76H264.6V183.35h5.07Z" transform="translate(0 -8.38)"/><path class="f8ae1f57-7ec8-4d45-96f7-57ae37d00ea4" d="M405.51,197.06c0,7.17-3.68,11.64-8.62,11.64s-8.68-4.47-8.65-11.64,3.64-11.55,8.65-11.53S405.47,190,405.51,197.06Zm-8.62,7c2.27,0,3.75-2.33,3.76-7s-1.49-7-3.76-7-3.76,2.36-3.72,7S394.64,204.09,396.89,204.09Zm11.81-20.77h5.07v12h4.57v4.18h-4.57v16.14H408.7Z" transform="translate(0 -8.38)"/><path class="f8ae1f57-7ec8-4d45-96f7-57ae37d00ea4" d="M420.2,186.37h5.06v17.18a74,74,0,0,0,12.66-1.36l.53,4.19a75.67,75.67,0,0,1-15.37,1.33H420.2Zm29,13.08h-4.32v16h-5.06V183.32h5.06v12h4.32Z" transform="translate(0 -8.38)"/><path class="f8ae1f57-7ec8-4d45-96f7-57ae37d00ea4" d="M479.86,202.79H467.94v5.31h-5.13v-5.31H450.36v-4h29.5ZM465.1,183.88c7,0,11.74,2.64,11.74,6.75s-4.71,6.73-11.74,6.71-11.78-2.56-11.78-6.71S458.05,183.9,465.1,183.88Zm-11.32,21.44h5.09V211h17.76v4.08H453.78Zm11.32-12c3.9,0,6.31-.92,6.29-2.71s-2.39-2.78-6.29-2.78-6.32.9-6.3,2.78S461.23,193.32,465.1,193.34Z" transform="translate(0 -8.38)"/><path class="f8ae1f57-7ec8-4d45-96f7-57ae37d00ea4" d="M501.59,204.59l-3.06,4a13.93,13.93,0,0,1-7.1-8.4c-1.36,4-3.71,7.22-7.35,9l-3.16-4.15c5.78-2.55,7.91-8.79,7.94-14.91v-4.46H494v4.46C494,196.32,496,202.23,501.59,204.59ZM498,193.19h5.9v-9.87h5v32.34h-5V197.27H498Z" transform="translate(0 -8.38)"/><path class="f8ae1f57-7ec8-4d45-96f7-57ae37d00ea4" d="M528.06,187.6v-3.09h5.27v3.09c0,3.73,2,7.39,7.35,9l-2.42,3.87a11.87,11.87,0,0,1-7.55-5.82,12.32,12.32,0,0,1-7.82,6.41l-2.46-4C526,195.44,528.06,191.4,528.06,187.6ZM526,202.9h21.79v12.34H526Zm16.84,8.29v-4.32H530.94v4.32Zm4.95-9.66h-5.06V183.35h5.06Z" transform="translate(0 -8.38)"/><path class="f8ae1f57-7ec8-4d45-96f7-57ae37d00ea4" d="M559.07,206.26v-2.54c-3.32-.72-5.47-2.91-5.45-5.81,0-3.61,3.29-6.09,8-6.09s8,2.48,8,6.09c0,2.91-2.2,5.11-5.52,5.83v2.34c2.41-.14,4.83-.33,7.1-.65l.35,3.66c-6.83,1.3-14.16,1.33-19.51,1.33l-.63-4.11C553.69,206.31,556.31,206.31,559.07,206.26Zm-7-19.46h7v-3.27h5.06v3.27h7v4H552Zm9.59,13.39c1.9,0,3.19-.75,3.17-2.28s-1.27-2.25-3.17-2.25-3.23.77-3.19,2.25S559.7,200.17,561.63,200.19Zm16.21-3.94h3.9v4.15h-3.9v15.19h-5.13V183.32h5.13Z" transform="translate(0 -8.38)"/><path class="f8ae1f57-7ec8-4d45-96f7-57ae37d00ea4" d="M583.75,185.64h5v4.43h5.73v-4.43h5.06v16.45H583.75Zm3.69,19h5.06V211h17.16v4H587.44Zm7-6.51v-4.22h-5.73v4.22Zm14.13-5.94h4.19v4.15H608.6v10.76h-5.06V183.35h5.06Z" transform="translate(0 -8.38)"/><path class="f8ae1f57-7ec8-4d45-96f7-57ae37d00ea4" d="M799.57,198.81H783.92V184.53h15.65Zm-4.33,7h-8v-4h21.9v4h-7.94c.8,2.13,3.63,4.31,9.42,5l-1.83,3.87c-5.24-.63-8.75-2.62-10.6-5.24-1.85,2.62-5.33,4.54-10.57,5.14l-1.79-3.8C791.68,210.09,794.45,208,795.24,205.8Zm-.66-11v-6.3h-5.66v6.3Zm9.14-12.34h5.06v6.78H813v4.12h-4.18v7.06h-5.06Z" transform="translate(0 -8.38)"/><path class="f8ae1f57-7ec8-4d45-96f7-57ae37d00ea4" d="M843.62,201.76H831.38v2.18h8.72v10.44H817.57V203.94h8.75v-2.18H814.19v-3.94h29.43ZM825.85,189.1h-8.91v-4h9.38v-2.57h5.06v2.57h9.43v4h-9c.65,1.83,3.52,3.64,10.58,4L841,196.84c-6.12-.37-10.11-1.92-12.14-4.26-2,2.34-6,3.89-12.12,4.26l-1.44-3.73C822.4,192.74,825.21,190.93,825.85,189.1Zm9.33,21.24V208H822.53v2.39Z" transform="translate(0 -8.38)"/><path class="f8ae1f57-7ec8-4d45-96f7-57ae37d00ea4" d="M846.15,184.78h5v4.43h5.73v-4.43h5.07v16.45H846.15Zm3.69,19h5.06v6.36h17.16v4H849.84Zm7-6.51v-4.21h-5.73v4.21ZM871,191.35h4.18v4.15H871v10.76h-5.07V182.49H871Z" transform="translate(0 -8.38)"/><path class="f8ae1f57-7ec8-4d45-96f7-57ae37d00ea4" d="M891.82,185.62h5.73c-2.64,3.27-4.66,9.79-4.64,15.68s2,12.39,4.64,15.68h-5.73a26.65,26.65,0,0,1,0-31.36Z" transform="translate(0 -8.38)"/><path class="f8ae1f57-7ec8-4d45-96f7-57ae37d00ea4" d="M911.75,211.36h-6V191.53h-.14L899.87,195v-5.2l6.29-3.94h5.59Z" transform="translate(0 -8.38)"/><path class="f8ae1f57-7ec8-4d45-96f7-57ae37d00ea4" d="M920.72,189.77a3.17,3.17,0,1,1,0,6.33,3.17,3.17,0,1,1,0-6.33Zm-3.17,15.5a3.14,3.14,0,0,1,3.17-3.12,3.16,3.16,0,1,1,0,6.32A3.16,3.16,0,0,1,917.55,205.27Z" transform="translate(0 -8.38)"/><path class="f8ae1f57-7ec8-4d45-96f7-57ae37d00ea4" d="M939.49,211.36h-6V191.53h-.14L927.61,195v-5.2l6.29-3.94h5.59Z" transform="translate(0 -8.38)"/><path class="f8ae1f57-7ec8-4d45-96f7-57ae37d00ea4" d="M949.65,217h-5.73c2.64-3.27,4.66-9.79,4.64-15.68s-2-12.39-4.64-15.68h5.73a26.65,26.65,0,0,1,0,31.36Z" transform="translate(0 -8.38)"/><path class="f8ae1f57-7ec8-4d45-96f7-57ae37d00ea4" d="M1135.87,198.81h-15.64V184.53h15.64Zm-4.32,7h-8v-4h21.91v4h-8c.81,2.13,3.64,4.31,9.42,5l-1.83,3.87c-5.23-.63-8.75-2.62-10.59-5.24-1.85,2.62-5.33,4.54-10.57,5.14l-1.79-3.8C1128,210.09,1130.76,208,1131.55,205.8Zm-.67-11v-6.3h-5.66v6.3Zm9.14-12.34h5.06v6.78h4.19v4.12h-4.19v7.06H1140Z" transform="translate(0 -8.38)"/><path class="f8ae1f57-7ec8-4d45-96f7-57ae37d00ea4" d="M1179.92,201.76h-12.23v2.18h8.72v10.44h-22.54V203.94h8.76v-2.18H1150.5v-3.94h29.42Zm-17.77-12.66h-8.91v-4h9.39v-2.57h5.06v2.57h9.42v4h-9c.65,1.83,3.51,3.64,10.58,4l-1.44,3.73c-6.12-.37-10.11-1.92-12.15-4.26-2,2.34-6,3.89-12.11,4.26l-1.44-3.73C1158.71,192.74,1161.52,190.93,1162.15,189.1Zm9.34,21.24V208h-12.66v2.39Z" transform="translate(0 -8.38)"/><path class="f8ae1f57-7ec8-4d45-96f7-57ae37d00ea4" d="M1182.46,184.78h5v4.43h5.73v-4.43h5.06v16.45h-15.78Zm3.69,19h5.06v6.36h17.16v4h-22.22Zm7-6.51v-4.21h-5.73v4.21Zm14.13-5.94h4.18v4.15h-4.18v10.76h-5.06V182.49h5.06Z" transform="translate(0 -8.38)"/><path class="f8ae1f57-7ec8-4d45-96f7-57ae37d00ea4" d="M1228.12,185.62h5.73c-2.63,3.27-4.65,9.79-4.64,15.68s2,12.39,4.64,15.68h-5.73a26.7,26.7,0,0,1,0-31.36Z" transform="translate(0 -8.38)"/><path class="f8ae1f57-7ec8-4d45-96f7-57ae37d00ea4" d="M1248.06,211.36h-6V191.53h-.14l-5.74,3.51v-5.2l6.3-3.94h5.59Z" transform="translate(0 -8.38)"/><path class="f8ae1f57-7ec8-4d45-96f7-57ae37d00ea4" d="M1257,189.77a3.17,3.17,0,1,1,0,6.33,3.17,3.17,0,0,1,0-6.33Zm-3.16,15.5a3.12,3.12,0,0,1,3.16-3.12,3.16,3.16,0,1,1,0,6.32A3.15,3.15,0,0,1,1253.86,205.27Z" transform="translate(0 -8.38)"/><path class="f8ae1f57-7ec8-4d45-96f7-57ae37d00ea4" d="M1264.16,207l9.28-8.15c2.16-2,3.39-3.27,3.41-5.21a3.68,3.68,0,0,0-7.35.25h-5.69c0-5.13,3.74-8.37,9.35-8.37s9.47,3.11,9.49,7.67c0,2.91-1.46,5.36-7,10.16l-3.2,3v.17H1283v4.86h-18.81Z" transform="translate(0 -8.38)"/><path class="f8ae1f57-7ec8-4d45-96f7-57ae37d00ea4" d="M1291,217h-5.73c2.64-3.27,4.66-9.79,4.64-15.68s-2-12.39-4.64-15.68H1291a26.65,26.65,0,0,1,0,31.36Z" transform="translate(0 -8.38)"/><path d="M266.24,18.16H256V11.43h29.18v6.73h-10.2c.41,5.8,3.87,11.66,12,14.36l-4.1,6.62A20,20,0,0,1,270.72,29,20.82,20.82,0,0,1,258,40.49l-4.4-6.68C262.26,31,265.83,24.43,266.24,18.16ZM281,41.31c11.64,0,18.73,3.9,18.75,10.49S292.67,62.26,281,62.29c-11.48,0-18.57-3.9-18.57-10.49S269.55,41.34,281,41.31Zm0,14.53c6.86,0,10.32-1.26,10.38-4s-3.52-4.1-10.38-4.1c-6.7,0-10.19,1.26-10.19,4.1S274.33,55.87,281,55.84Zm18.58-15.53h-8.38V28h-7.62v-6.8h7.62V8.38h8.38Z" transform="translate(0 -8.38)"/><path d="M348.77,14.65a116.16,116.16,0,0,1-1.41,19.63H355v6.79H343.73v21.1h-8.38V41.07H325v21.1h-8.44V41.07h-10.6V34.28h32.93A96.47,96.47,0,0,0,340.54,18H311.62v-6.8h37.15Z" transform="translate(0 -8.38)"/><path d="M359.2,12.25h8.32v7.38h9.55V12.25h8.44V39.67H359.2ZM365.35,44h8.44v10.6h28.59v6.74h-37Zm11.72-10.84v-7h-9.55v7Zm23.55-9.91h7v6.92h-7V48.05h-8.43V8.44h8.43Z" transform="translate(0 -8.38)"/><path d="M991.07,35.62H965V11.84h26.08Zm-7.21,11.67H970.5V40.66H1007v6.63H993.76c1.35,3.54,6.07,7.17,15.71,8.32l-3.05,6.44c-8.73-1-14.59-4.36-17.67-8.73-3.07,4.37-8.87,7.56-17.6,8.56l-3-6.33C977.91,54.43,982.54,50.92,983.86,47.29ZM982.75,29V18.46h-9.43V29ZM998,8.38h8.44V19.69h7v6.85h-7V38.32H998Z" transform="translate(0 -8.38)"/><path d="M1064.49,40.55H1044.1v3.63h14.53v17.4h-37.56V44.18h14.59V40.55h-20.22V34h49Zm-29.62-21.1H1020V12.83h15.65V8.55h8.44v4.28h15.7v6.62h-14.94c1.08,3.05,5.86,6.07,17.63,6.68l-2.4,6.21c-10.19-.61-16.84-3.19-20.24-7.09-3.37,3.9-10,6.48-20.19,7.09l-2.4-6.21C1029.13,25.52,1033.81,22.5,1034.87,19.45Zm15.55,35.39v-4h-21.09v4Z" transform="translate(0 -8.38)"/><path d="M1068.71,12.25H1077v7.38h9.55V12.25H1095V39.67h-26.3Zm6.15,31.7h8.44v10.6h28.59v6.74h-37Zm11.72-10.84v-7H1077v7Zm23.55-9.91h7v6.92h-7V48.05h-8.44V8.44h8.44Z" transform="translate(0 -8.38)"/><path d="M610.7,347.84H635v6.68H619.14v12.6c9.38-.09,14.47-.41,20.1-1.64l.88,6.74c-6.54,1.35-12.66,1.64-24.79,1.64H610.7Zm5.63,30.41h8.44V389.8h28.59v6.73h-37Zm35.27-20.33h7v6.92h-7v17.69h-8.44V343.68h8.44Z" transform="translate(0 -8.38)"/><path d="M669.53,379.89V364.25h8.26v15.38c5.07-.2,10.2-.59,14.94-1.2l.53,6.27c-11,1.87-23,2.05-32.34,2l-.71-6.68C663.09,380,666.22,380,669.53,379.89ZM691,353.64A116.71,116.71,0,0,1,689.51,374l-8.26-.65a115.09,115.09,0,0,0,1.35-17.81H662.91v-6.68H691Zm4-10h8.56V365h6.85v7h-6.85v25.43H695Z" transform="translate(0 -8.38)"/><path d="M713.89,347.49h8.32v7.38h9.55v-7.38h8.44v27.42H713.89Zm6.15,31.7h8.44V389.8h28.59v6.73H720Zm11.72-10.84v-7h-9.55v7Zm23.55-9.9h7v6.91h-7v17.93h-8.44V343.68h8.44Z" transform="translate(0 -8.38)"/><rect class="acab1a15-4ec0-47a9-b1b6-b2e40586479e" y="441.59" width="183.29" height="161.07" rx="10"/><rect class="acab1a15-4ec0-47a9-b1b6-b2e40586479e" x="1186.89" y="441.59" width="183.29" height="161.07" rx="10"/><rect class="acab1a15-4ec0-47a9-b1b6-b2e40586479e" x="197.81" y="441.59" width="183.29" height="161.07" rx="10"/><rect class="acab1a15-4ec0-47a9-b1b6-b2e40586479e" x="395.63" y="441.59" width="183.29" height="161.07" rx="10"/><rect class="acab1a15-4ec0-47a9-b1b6-b2e40586479e" x="593.44" y="441.59" width="183.29" height="161.07" rx="10"/><rect class="acab1a15-4ec0-47a9-b1b6-b2e40586479e" x="791.26" y="441.59" width="183.29" height="161.07" rx="10"/><rect class="acab1a15-4ec0-47a9-b1b6-b2e40586479e" x="989.07" y="441.59" width="183.29" height="161.07" rx="10"/><path class="f8ae1f57-7ec8-4d45-96f7-57ae37d00ea4" d="M27.08,504.24H16.53V500.3H32.25c0,9.95-3.17,18.05-14.91,23.56l-2.64-4C22.91,516,26.36,511.2,27.08,504.24Zm14.87,25H36.82V497H42Z" transform="translate(0 -8.38)"/><path class="f8ae1f57-7ec8-4d45-96f7-57ae37d00ea4" d="M65.05,511l-2.67,3.9a11.37,11.37,0,0,1-7-5.75A12.07,12.07,0,0,1,48,515.81l-2.74-3.94a10.33,10.33,0,0,0,7.56-10.37v-2.78h5.1V502C57.88,505.77,59.81,509.42,65.05,511Zm-4.19,5.55c6.72,0,11,2.36,11,6.33s-4.25,6.4-11,6.36-11.16-2.32-11.14-6.36S54,516.53,60.86,516.54Zm0,8.76c4,0,6-.72,6-2.43s-2-2.41-6-2.39-6.09.81-6.08,2.39S56.86,525.28,60.86,525.3ZM66.45,497h5.07v7.28H75.7v4.18H71.52V516H66.45Z" transform="translate(0 -8.38)"/><path class="f8ae1f57-7ec8-4d45-96f7-57ae37d00ea4" d="M84.65,511.9l-7,.78-.56-4.29,8.94-.42a26.18,26.18,0,0,0,.5-3.24H78.79v-4H91.45c0,9.46-2.2,16.86-11.85,22.43l-2.88-3.52C80.66,517.3,83.14,514.82,84.65,511.9ZM105,529.23h-4.86v-16.1H97.67v14.73H93V497.63h4.71v11.43h2.46V497H105Z" transform="translate(0 -8.38)"/><path class="f8ae1f57-7ec8-4d45-96f7-57ae37d00ea4" d="M108,521.25h29.5v4.15H108Zm28.59-9.31-2.22,4.18C128.63,515,124.67,512,122.6,508c-2.09,3.9-6.08,7-11.81,8.08l-2.15-4.18c7.67-1.34,11.22-6.47,11.25-10.9v-2.25h5.42V501C125.29,505.54,128.79,510.64,136.63,511.94Z" transform="translate(0 -8.38)"/><path class="f8ae1f57-7ec8-4d45-96f7-57ae37d00ea4" d="M140.63,499.6h15.09v4.08h-10v4.88h8.93v3.94H145.7V518a80.63,80.63,0,0,0,11.35-.76l.49,4a98.59,98.59,0,0,1-14.3.88h-2.61Zm25.88,29.71h-5V512.15h-5.31v-4h5.31V497h5Z" transform="translate(0 -8.38)"/><path class="f8ae1f57-7ec8-4d45-96f7-57ae37d00ea4" d="M58.19,547.44H47.65V543.5H63.36c0,10-3.16,18-14.91,23.56l-2.63-4C54,559.18,57.47,554.4,58.19,547.44Zm14.87,25H67.93V540.16h5.13Z" transform="translate(0 -8.38)"/><path class="f8ae1f57-7ec8-4d45-96f7-57ae37d00ea4" d="M85.61,544.24h12v-3h5v13.29H94.12v2.49h12.24v4H76.93v-4H89v-2.49H80.66V541.29h5Zm-5.2,18.46h5.06v5.16H103v4H80.41ZM97.6,550.57v-2.46h-12v2.46Z" transform="translate(0 -8.38)"/><path class="f8ae1f57-7ec8-4d45-96f7-57ae37d00ea4" d="M108.89,542.48h5v4.43h5.73v-4.43h5.06v16.46H108.89Zm3.69,19h5.06v6.36H134.8v4H112.58Zm7-6.5v-4.22h-5.73V555Zm14.13-5.94h4.19v4.14h-4.19V564h-5.06V540.2h5.06Z" transform="translate(0 -8.38)"/><path class="f8ae1f57-7ec8-4d45-96f7-57ae37d00ea4" d="M224.89,504.24H214.35V500.3h15.71c0,9.95-3.16,18.05-14.9,23.56l-2.64-4C220.73,516,224.17,511.2,224.89,504.24Zm14.88,25h-5.14V497h5.14Z" transform="translate(0 -8.38)"/><path class="f8ae1f57-7ec8-4d45-96f7-57ae37d00ea4" d="M262.86,511l-2.67,3.9a11.35,11.35,0,0,1-7-5.75,12.07,12.07,0,0,1-7.42,6.67L243,511.87a10.32,10.32,0,0,0,7.56-10.37v-2.78h5.1V502C255.69,505.77,257.62,509.42,262.86,511Zm-4.18,5.55c6.71,0,11,2.36,11,6.33s-4.26,6.4-11,6.36-11.16-2.32-11.15-6.36S251.84,516.53,258.68,516.54Zm0,8.76c4,0,6-.72,6-2.43s-2-2.41-6-2.39-6.1.81-6.08,2.39S254.67,525.28,258.68,525.3ZM264.27,497h5.06v7.28h4.19v4.18h-4.19V516h-5.06Z" transform="translate(0 -8.38)"/><path class="f8ae1f57-7ec8-4d45-96f7-57ae37d00ea4" d="M282.46,511.9l-7,.78-.56-4.29,8.95-.42a24.45,24.45,0,0,0,.49-3.24h-7.75v-4h12.66c0,9.46-2.2,16.86-11.85,22.43l-2.89-3.52C278.47,517.3,281,514.82,282.46,511.9Zm20.34,17.33H298v-16.1h-2.46v14.73h-4.71V497.63h4.71v11.43H298V497h4.85Z" transform="translate(0 -8.38)"/><path class="f8ae1f57-7ec8-4d45-96f7-57ae37d00ea4" d="M305.86,521.25h29.5v4.15h-29.5Zm28.58-9.31-2.21,4.18c-5.79-1.09-9.74-4.15-11.82-8.08-2.09,3.9-6.08,7-11.81,8.08l-2.14-4.18c7.66-1.34,11.21-6.47,11.25-10.9v-2.25h5.41V501C323.1,505.54,326.6,510.64,334.44,511.94Z" transform="translate(0 -8.38)"/><path class="f8ae1f57-7ec8-4d45-96f7-57ae37d00ea4" d="M338.45,499.6h15.08v4.08h-10v4.88h8.93v3.94h-8.93V518a80.87,80.87,0,0,0,11.36-.76l.49,4a98.73,98.73,0,0,1-14.31.88h-2.6Zm25.87,29.71h-5V512.15H354v-4h5.31V497h5Z" transform="translate(0 -8.38)"/><path class="f8ae1f57-7ec8-4d45-96f7-57ae37d00ea4" d="M251,544.45v-3.09h5.27v3.09c0,3.73,2,7.38,7.35,9l-2.43,3.86a11.79,11.79,0,0,1-7.54-5.82,12.35,12.35,0,0,1-7.82,6.42l-2.46-4C249,552.29,251,548.25,251,544.45Zm-2.08,15.29h21.8v12.34h-21.8Zm16.84,8.3v-4.32H253.9V568Zm5-9.67h-5.06V540.2h5.06Z" transform="translate(0 -8.38)"/><path class="f8ae1f57-7ec8-4d45-96f7-57ae37d00ea4" d="M282,563.1v-2.53c-3.32-.72-5.46-2.92-5.45-5.82,0-3.6,3.29-6.08,8-6.08s8,2.48,8,6.08c0,2.92-2.2,5.12-5.52,5.84v2.34c2.4-.15,4.83-.34,7.1-.66l.35,3.66c-6.84,1.3-14.17,1.34-19.51,1.34l-.64-4.12C276.64,563.15,279.26,563.15,282,563.1Zm-7-19.46h7v-3.27h5.07v3.27h7v4H275Zm9.6,13.4c1.9,0,3.18-.76,3.16-2.29s-1.26-2.25-3.16-2.25-3.23.77-3.2,2.25S282.66,557,284.59,557Zm16.21-3.94h3.9v4.15h-3.9v15.19h-5.14V540.16h5.14Z" transform="translate(0 -8.38)"/><path class="f8ae1f57-7ec8-4d45-96f7-57ae37d00ea4" d="M306.7,542.48h5v4.43h5.73v-4.43h5.06v16.46H306.7Zm3.69,19h5.07v6.36h17.15v4H310.39Zm7-6.5v-4.22H311.7V555Zm14.13-5.94h4.18v4.14h-4.18V564H326.5V540.2h5.06Z" transform="translate(0 -8.38)"/><path class="f8ae1f57-7ec8-4d45-96f7-57ae37d00ea4" d="M405.08,543.66h12.13V540.2c-5.4-.53-8.65-2.78-8.65-6.27,0-4,4.29-6.35,11.18-6.33s11.12,2.37,11.11,6.33c0,3.48-3.27,5.74-8.58,6.27v3.46h12.3v4.05H405.08Zm28.16-17.22h-27v-4h10.94v-3.59h5.06v3.59h11Zm-13.5,9.88c3.86,0,5.9-.69,5.9-2.39s-2-2.4-5.9-2.4-6,.71-5.94,2.4S415.76,536.32,419.74,536.32Z" transform="translate(0 -8.38)"/><path class="f8ae1f57-7ec8-4d45-96f7-57ae37d00ea4" d="M436.19,535h29.43v3.94H436.19Zm1.37-14.31h10.76v-2.32h5.1v2.32h10.72v3.73H437.56Zm7,21H457V540h5.1v10.47H439.53V540h5ZM450.89,525c7.1,0,11,1.51,11,4.5s-3.86,4.43-11,4.46-11-1.53-11-4.46S443.78,525,450.89,525ZM457,546.79v-1.47H444.52v1.47Zm-6.15-16.13c3.92,0,5.53-.3,5.55-1.16s-1.63-1.16-5.55-1.16-5.51.31-5.49,1.16S447,530.64,450.89,530.66Z" transform="translate(0 -8.38)"/><path class="f8ae1f57-7ec8-4d45-96f7-57ae37d00ea4" d="M468.53,536.28a3.14,3.14,0,0,1,3.17-3.13,3.17,3.17,0,1,1,0,6.33A3.16,3.16,0,0,1,468.53,536.28Z" transform="translate(0 -8.38)"/><path class="f8ae1f57-7ec8-4d45-96f7-57ae37d00ea4" d="M483.65,523.62h5.73V520h5.06v14.1H478.66V520h5ZM481.86,536h21.65v9.07H486.89v1.62h17.47v4H481.89v-9.18h16.56v-1.61H481.86Zm7.52-5.8v-2.81h-5.73v2.81Zm9.07-11.64h5.06v6.05h4.19v4.08h-4.19v6.22h-5.06Z" transform="translate(0 -8.38)"/><path class="f8ae1f57-7ec8-4d45-96f7-57ae37d00ea4" d="M528.65,532.55,526,536.49a11.51,11.51,0,0,1-7-6,12.46,12.46,0,0,1-7.79,7l-2.67-4.05A10.39,10.39,0,0,0,516.35,523v-2.78h5.13v2.54C521.44,527,523.32,530.94,528.65,532.55Zm-3.55,5.66c7,0,11.23,2.34,11.25,6.33s-4.27,6.33-11.25,6.3S514,548.57,514,544.54,518.21,538.2,525.1,538.21Zm0,8.72c4.11,0,6.19-.79,6.22-2.39s-2.11-2.42-6.22-2.42-6.12.75-6.12,2.42S521.07,546.93,525.1,546.93Zm.42-22.78h5.7v-5.59h5v18.85h-5V528.3h-5.7Z" transform="translate(0 -8.38)"/><path class="f8ae1f57-7ec8-4d45-96f7-57ae37d00ea4" d="M540.89,520.88h5v4.43h5.73v-4.43h5.06v16.46H540.89Zm3.69,19h5.06v6.37H566.8v4H544.58Zm7-6.5v-4.22h-5.73v4.22Zm14.13-5.94h4.18v4.14h-4.18v10.76h-5.06V518.6h5.06Z" transform="translate(0 -8.38)"/><path class="f8ae1f57-7ec8-4d45-96f7-57ae37d00ea4" d="M624.92,523.45h5.52V518.6h5v23.45h-5v-7.67h-5.52v2.67H609.45V521.13h15.47ZM613.81,539.8h5.13v6.47h17.19v4H613.81Zm6.15-6.68v-8h-5.48v8Zm10.48-2.71v-2.92h-5.52v2.92Z" transform="translate(0 -8.38)"/><path class="f8ae1f57-7ec8-4d45-96f7-57ae37d00ea4" d="M646.52,524h-6.13V519.9h17.5V524h-6.1c.34,3.34,2.43,6.8,7.19,8.36l-2.46,3.87a11.93,11.93,0,0,1-7.29-6.06,12.35,12.35,0,0,1-7.65,6.69l-2.6-4C644,531.24,646.17,527.61,646.52,524Zm-1.67,13.46h5v2.71h11.71v-2.71h5v13H644.85Zm16.7,9V544H649.84v2.42Zm5-10.19h-5v-6.54h-4.68v-4.12h4.68v-7h5Z" transform="translate(0 -8.38)"/><path class="f8ae1f57-7ec8-4d45-96f7-57ae37d00ea4" d="M671.18,522.25h12v4h-6.93v13.2a51.25,51.25,0,0,0,8.33-.72l.35,4.07a58.55,58.55,0,0,1-11.46.88h-2.32Zm27.18,28.59h-4.78v-16H691v14.42h-4.61V519.05H691v11.82h2.6V518.56h4.78Z" transform="translate(0 -8.38)"/><path class="f8ae1f57-7ec8-4d45-96f7-57ae37d00ea4" d="M703,521.09h5.1v7.63h6.08v-7.63h5v22.36H703Zm11.18,18.25v-6.72H708.1v6.72Zm14.41,11.57h-5.1V518.56h5.1Z" transform="translate(0 -8.38)"/><path class="f8ae1f57-7ec8-4d45-96f7-57ae37d00ea4" d="M733.44,520.88h5v4.43h5.73v-4.43h5.06v16.46H733.44Zm3.7,19h5.06v6.37h17.15v4H737.14Zm7-6.5v-4.22h-5.73v4.22Zm14.13-5.94h4.18v4.14H758.3v10.76h-5.06V518.6h5.06Z" transform="translate(0 -8.38)"/><path class="f8ae1f57-7ec8-4d45-96f7-57ae37d00ea4" d="M846.57,499.18c4.9,0,8.56,4.46,8.58,11.53s-3.68,11.63-8.58,11.63-8.65-4.46-8.65-11.63S841.59,499.16,846.57,499.18Zm0,18.56c2.19,0,3.67-2.34,3.69-7s-1.5-7-3.69-7-3.76,2.35-3.73,7S844.3,517.74,846.57,517.74Zm17.61,11.57h-5.1V497h5.1Z" transform="translate(0 -8.38)"/><path class="f8ae1f57-7ec8-4d45-96f7-57ae37d00ea4" d="M885.52,521.68H869.7V499.81h15.82Zm-4.92-4V503.75h-5.84v13.92ZM890.2,497h5.09v32.35H890.2Z" transform="translate(0 -8.38)"/><path class="f8ae1f57-7ec8-4d45-96f7-57ae37d00ea4" d="M920,518.41l-2.7,4a14,14,0,0,1-7.67-8.28c-1.42,4.06-4,7.4-7.73,9.09l-2.88-4c5.58-2.47,7.94-8.39,7.94-13.82v-1.27h-6.61V500h18.25v4.11H912.1v1.27C912.1,510.53,914.37,516.12,920,518.41ZM921.31,497h5.1v32.27h-5.1Z" transform="translate(0 -8.38)"/><path class="f8ae1f57-7ec8-4d45-96f7-57ae37d00ea4" d="M835.3,551.76H838V540.58h4.78V571H838V555.81H835.3v8.68h-13V543.4h13Zm-4.71,8.79V547.33h-3.52v13.22Zm14.13-20.39h4.85v32.28h-4.85Z" transform="translate(0 -8.38)"/><path class="f8ae1f57-7ec8-4d45-96f7-57ae37d00ea4" d="M862.12,542.38c4.91,0,8.56,4.46,8.58,11.53s-3.67,11.63-8.58,11.63-8.64-4.46-8.64-11.63S857.15,542.36,862.12,542.38Zm0,18.56c2.2,0,3.68-2.34,3.7-7s-1.5-7-3.7-7-3.76,2.35-3.72,7S859.86,560.94,862.12,560.94Zm17.62,11.57h-5.1V540.16h5.1Z" transform="translate(0 -8.38)"/><path class="f8ae1f57-7ec8-4d45-96f7-57ae37d00ea4" d="M886.07,560.17l-1.83-4c4.25-1.13,7.08-2.62,8.89-4.45l-8.22.58-.67-3.87,11.12-.31a10.93,10.93,0,0,0,.48-2.11h-10v-4h15.4C901.25,551.15,897.1,557,886.07,560.17Zm13.78-.57c6.76,0,11.11,2.34,11.11,6.44s-4.35,6.36-11.11,6.36c-7,0-11.25-2.3-11.25-6.36S892.9,559.59,899.85,559.6Zm0,9c4,0,6-.86,6-2.53s-2-2.5-6-2.5-6.14.77-6.12,2.5S895.7,568.57,899.85,568.57Zm5.94-28.37h5.06v18.91h-5.06Z" transform="translate(0 -8.38)"/><path class="f8ae1f57-7ec8-4d45-96f7-57ae37d00ea4" d="M915.7,542.48h5v4.43h5.73v-4.43h5.07v16.46H915.7Zm3.69,19h5.07v6.36h17.15v4H919.39Zm7-6.5v-4.22h-5.73V555Zm14.14-5.94h4.18v4.14h-4.18V564h-5.07V540.2h5.07Z" transform="translate(0 -8.38)"/><path class="f8ae1f57-7ec8-4d45-96f7-57ae37d00ea4" d="M1003.78,535.82h29.42v4h-6.47v11h-5.13v-11h-6.22v11h-5.06v-11h-6.54Zm26.19-3.3h-22.68V520h5.06v8.51H1030Z" transform="translate(0 -8.38)"/><path class="f8ae1f57-7ec8-4d45-96f7-57ae37d00ea4" d="M1034.89,542.85h29.5V547h-29.5Zm28.58-9.31-2.21,4.18c-5.79-1.09-9.74-4.15-11.82-8.08-2.09,3.9-6.08,7-11.81,8.08l-2.14-4.18c7.66-1.34,11.21-6.47,11.25-10.9v-2.25h5.41v2.25C1052.13,527.14,1055.63,532.24,1063.47,533.54Z" transform="translate(0 -8.38)"/><path class="f8ae1f57-7ec8-4d45-96f7-57ae37d00ea4" d="M1073.39,522.85v-3.09h5.27v3.09c0,3.73,2,7.38,7.35,9l-2.43,3.86a11.79,11.79,0,0,1-7.54-5.82,12.35,12.35,0,0,1-7.82,6.42l-2.46-4C1071.35,530.69,1073.39,526.65,1073.39,522.85Zm-2.08,15.29h21.8v12.34h-21.8Zm16.84,8.3v-4.32h-11.88v4.32Zm5-9.67h-5.06V518.6h5.06Z" transform="translate(0 -8.38)"/><path class="f8ae1f57-7ec8-4d45-96f7-57ae37d00ea4" d="M1104.39,541.5V539c-3.32-.72-5.46-2.92-5.45-5.82,0-3.6,3.29-6.08,8-6.08s8,2.48,8,6.08c0,2.92-2.2,5.12-5.52,5.84v2.34c2.4-.14,4.83-.34,7.1-.65l.35,3.65c-6.84,1.3-14.17,1.34-19.51,1.34l-.64-4.12C1099,541.55,1101.63,541.55,1104.39,541.5Zm-7-19.46h7v-3.27h5.07V522h7v4h-19.06Zm9.6,13.4c1.9,0,3.18-.76,3.16-2.29s-1.26-2.25-3.16-2.25-3.23.78-3.2,2.25S1105,535.42,1107,535.44Zm16.21-3.94h3.9v4.15h-3.9v15.19H1118V518.56h5.14Z" transform="translate(0 -8.38)"/><path class="f8ae1f57-7ec8-4d45-96f7-57ae37d00ea4" d="M1129.07,520.88h5v4.43h5.73v-4.43h5.06v16.46h-15.79Zm3.69,19h5.07v6.37H1155v4h-22.22Zm7-6.5v-4.22h-5.73v4.22Zm14.13-5.94h4.18v4.14h-4.18v10.76h-5.06V518.6h5.06Z" transform="translate(0 -8.38)"/><path class="f8ae1f57-7ec8-4d45-96f7-57ae37d00ea4" d="M1228.91,537h-5v-2.78h-6.82v-4h6.82v-2.64h-6.52c-2,5.06-6.44,8.49-13.59,10.37l-2-4c7.28-1.85,10.56-5.12,11.2-9.18h-9.41v-4h14.94a21.21,21.21,0,0,1-.17,2.81h5.52V518.6h5Zm-10.8.39c6.54,0,11,2.58,11,6.64s-4.5,6.71-11,6.68S1207,548.08,1207,544,1211.49,537.35,1218.11,537.34Zm0,9.35c3.76,0,6-.86,6-2.71s-2.22-2.72-6-2.71-6,.86-6,2.71S1214.28,546.69,1218.11,546.69Z" transform="translate(0 -8.38)"/><path class="f8ae1f57-7ec8-4d45-96f7-57ae37d00ea4" d="M1238.26,527v-1.3h-5v-4h14.44v4h-4.57V527c0,5.3,1.39,10.66,6.19,13.4l-2.92,3.69a13.09,13.09,0,0,1-5.66-7.51c-1.09,3.52-2.93,6.51-5.76,8.25l-3-3.73C1236.78,538.14,1238.28,532.38,1238.26,527Zm7.2,2.43h3.87V519H1254v30.37h-4.71V533.5h-3.87Zm15.23,21.38h-4.78V518.56h4.78Z" transform="translate(0 -8.38)"/><path class="f8ae1f57-7ec8-4d45-96f7-57ae37d00ea4" d="M1264.66,520.6h5v3.83h5.73V520.6h5.07v15.22h-15.79Zm25.17,23.87c0,4-4.22,6.42-11,6.44s-11.16-2.39-11.14-6.44,4.27-6.33,11.14-6.29S1289.83,540.48,1289.83,544.47Zm-14.45-12.58V528.3h-5.73v3.59Zm3.48,15.08c4,0,6-.79,6-2.5s-2-2.41-6-2.42-6.1.73-6.08,2.42S1274.86,547,1278.86,547Zm5.59-28.41h5.07v7.31h4.18v4.19h-4.18v7.42h-5.07Z" transform="translate(0 -8.38)"/><path class="f8ae1f57-7ec8-4d45-96f7-57ae37d00ea4" d="M1312.12,533.75h12.24v4h-29.43v-4h12.13V530h5.06ZM1307,520v-.92h5.17V520c0,3.6,2.91,7.14,10.68,8.05l-1.93,3.94c-5.55-.79-9.37-3-11.39-6.07-2,3.06-5.84,5.28-11.36,6.07l-1.79-3.94C1304,527.18,1307,523.47,1307,520Zm2.6,19.23c7.05,0,11.25,2.13,11.25,5.8s-4.2,5.8-11.25,5.77-11.36-2-11.36-5.77S1302.49,539.27,1309.59,539.27Zm0,7.84c4.17,0,6.17-.62,6.19-2s-2-2-6.19-2-6.22.56-6.19,2S1305.3,547.11,1309.59,547.11Z" transform="translate(0 -8.38)"/><path class="f8ae1f57-7ec8-4d45-96f7-57ae37d00ea4" d="M1326.89,520.88h5v4.43h5.73v-4.43h5.06v16.46h-15.78Zm3.69,19h5.06v6.37h17.16v4h-22.22Zm7-6.5v-4.22h-5.73v4.22Zm14.13-5.94h4.19v4.14h-4.19v10.76h-5.06V518.6h5.06Z" transform="translate(0 -8.38)"/></g></g></svg>