<svg xmlns="http://www.w3.org/2000/svg" viewBox="0 0 600.08 600.08"><defs><style>.aff4040a-d820-4b85-b5b1-60995806c50a,.b23702da-8f9f-4c51-8ac1-4d6ed93b1289{fill:none;stroke:#e3705c;stroke-miterlimit:10;}.b23702da-8f9f-4c51-8ac1-4d6ed93b1289{stroke-width:5px;opacity:0.3;}.aff4040a-d820-4b85-b5b1-60995806c50a{stroke-width:3px;}</style></defs><g id="f3347e46-7c84-4c79-bbff-c85175976f24" data-name="Layer 2"><g id="be9aedc6-59fe-4deb-9ece-50e20f01aa0f" data-name="Layer 1"><rect class="b23702da-8f9f-4c51-8ac1-4d6ed93b1289" x="2.5" y="2.5" width="595.08" height="595.08"/><line class="b23702da-8f9f-4c51-8ac1-4d6ed93b1289" x1="354.76" y1="354.76" x2="597.58" y2="597.58"/><line class="b23702da-8f9f-4c51-8ac1-4d6ed93b1289" x1="2.5" y1="2.5" x2="250.12" y2="250.12"/><line class="b23702da-8f9f-4c51-8ac1-4d6ed93b1289" x1="246.71" y1="353.37" x2="2.5" y2="597.58"/><line class="b23702da-8f9f-4c51-8ac1-4d6ed93b1289" x1="597.58" y1="2.5" x2="349.96" y2="250.12"/><path class="aff4040a-d820-4b85-b5b1-60995806c50a" d="M168.66,328.88H157.48l-18.91-27.49h-.35v27.49H124.86V278h11.39l18.63,27.35h.42V278h13.36Z"/><path class="aff4040a-d820-4b85-b5b1-60995806c50a" d="M199.88,329.58c-13.89,0-24.64-9.32-24.68-26.16s10.79-26.15,24.68-26.15,24.61,9.21,24.61,26.15S213.63,329.58,199.88,329.58Zm0-11.67c7,0,10.86-5.13,10.83-14.49s-3.87-14.48-10.83-14.48S189,294,189,303.42,192.85,317.87,199.88,317.91Z"/><path class="aff4040a-d820-4b85-b5b1-60995806c50a" d="M260.07,328.88H246.71V278h13.36Z"/><path class="aff4040a-d820-4b85-b5b1-60995806c50a" d="M283.62,278l12.1,29.6h.63L308.44,278h16.67v50.91H312v-30h-.42L300,328.53h-8l-11.53-29.82H280v30.17H267V278Z"/><path class="aff4040a-d820-4b85-b5b1-60995806c50a" d="M330.1,328.88,347,278h18.22l16.87,50.91H367.72l-3.06-10H347.61l-3,10Zm31.46-20.11-5.23-17.09h-.43l-5.2,17.09Z"/><path class="aff4040a-d820-4b85-b5b1-60995806c50a" d="M409.48,288.94c-7.1,0-11.25,5.31-11.25,14.41s3.87,14.52,11.18,14.56c6.33,0,9.63-3,9.71-7.74h-9.43v-9.56h22.36v7c0,13.85-9.49,22-22.78,22-14.76,0-24.78-9.95-24.82-26.09,0-16.73,11-26.22,24.75-26.22,11.95,0,21.17,7.24,22.29,17.44H417.92C417,291.05,414,288.94,409.48,288.94Z"/><path class="aff4040a-d820-4b85-b5b1-60995806c50a" d="M438.73,278h36.35V288.8h-23V298h21.1v10.83h-21.1v9.21H475v10.83H438.73Z"/></g></g></svg>