<svg xmlns="http://www.w3.org/2000/svg" viewBox="0 0 223.12 81.58"><defs><style>.cls-1{fill:#1d1e23;}</style></defs><g id="Layer_2" data-name="Layer 2"><g id="Layer_1-2" data-name="Layer 1"><path class="cls-1" d="M19.91,56.52l6.23-16c-.79-1.81-1.57-3.2-3.81-3.38V35.58H35.22V37.1c-4.18.3-4.12,1.51-3,4.47l5.45,14.89,5.44-14c4.48-11.62,11.38-19.91,21-19.91,4.66,0,9.08,2.36,9.08,5.57a2.87,2.87,0,0,1-2.84,3c-4,0-2.67-5.32-8.42-5.32-6.29,0-12.22,7-16.27,17.55L38.06,62.88H34.37L27.53,44.24l-7.2,18.64H16.58L9.07,42.36c-1.33-3.63-1.93-5-4.72-5.26V35.58H17.43V37.1c-4.18.3-4.06,1.51-3,4.47Z"/><path class="cls-1" d="M56.94,46.29c-.06,1-.12,1.94-.12,2.91,0,7,2.48,12,9.44,12,3.94,0,7.32-2.66,9.14-7l2.24,1c-2.12,5-6,8.47-11.74,8.47C56.22,63.78,51,57.49,51,49.2s5.15-14.52,13.68-14.52c7.08,0,11.92,4.17,11.92,11.61Zm14.28-2.42c0-4.41-2.78-6.83-6.47-6.83-4.66,0-6.72,2.66-7.5,6.83Z"/><path class="cls-1" d="M96.88,24.33l7.51-4.72h1.87V58.22c0,2.17.79,2.84,4.12,3.14v1.52a50.22,50.22,0,0,0-9.44.9V60.64c-1.82,2-4.48,3.14-8,3.14-8,0-12.59-6.35-12.59-14.58s4.54-14.52,12.59-14.52c3.57,0,6.23,1.15,8,3.14V27.53c0-1.45-.55-2-1.94-2H96.88Zm4.06,16.28a8,8,0,0,0-6.72-3.33c-6,0-8.11,4.9-8.11,11.92s2.06,12,8.11,12a8,8,0,0,0,6.72-3.33Z"/><path class="cls-1" d="M129.14,24.33l7.5-4.72h1.88V58.22c0,2.17.79,2.84,4.11,3.14v1.52a50.37,50.37,0,0,0-9.44.9V60.64c-1.81,2-4.47,3.14-8,3.14-8,0-12.58-6.35-12.58-14.58s4.54-14.52,12.58-14.52c3.58,0,6.24,1.15,8,3.14V27.53c0-1.45-.54-2-1.93-2h-2.12Zm4.05,16.28a8,8,0,0,0-6.71-3.33c-6.06,0-8.11,4.9-8.11,11.92s2,12,8.11,12a8,8,0,0,0,6.71-3.33Z"/><path class="cls-1" d="M144.27,62.88V61.36c3.33-.3,4.11-1,4.11-3.14V42.6c0-1.45-.54-2-1.87-2h-2.24V39.4l7.56-4.72h1.88V58.22c0,2.17.78,2.84,4,3.14v1.52Zm10.47-37.95a3.43,3.43,0,0,1-3.57,3.39,3.42,3.42,0,1,1,0-6.84A3.45,3.45,0,0,1,154.74,24.93Z"/><path class="cls-1" d="M177.43,62.88V61.36c3.33-.3,4-1,4-3.14V42.85c0-3.58-1.87-5.09-4.72-5.09a13.92,13.92,0,0,0-7.86,2.6V58.22c0,2.17.78,2.84,4,3.14v1.52H159.46V61.36c3.32-.3,4.11-1,4.11-3.14V42.6c0-1.45-.54-2-1.87-2h-2.24V39.4L167,34.68h1.88v3a19.59,19.59,0,0,1,9.38-3c3.57,0,8.59,1.39,8.59,8.17V58.22c0,2.17.79,2.84,4.06,3.14v1.52Z"/><path class="cls-1" d="M222.88,70c0,6.05-4.84,11.62-16.7,11.62-8.72,0-15.5-2.24-15.5-8.3,0-4.84,3.94-7.74,8.11-7.74C201,65.54,203,66.69,203,69a3,3,0,0,1-3,3c-1.69,0-1.93-1.09-3.63-1.09a2.66,2.66,0,0,0-2.66,2.73c0,4.17,5.81,5.57,12.53,5.57,8.71,0,12.83-3.64,12.83-7.93,0-3.63-3.15-5.63-11.44-5.81-11.14-.36-14.34-2.6-14.34-7a5.22,5.22,0,0,1,4.47-5.09,10.1,10.1,0,0,1-3.51-8c0-6.12,4.24-10.71,11.62-10.71a12.58,12.58,0,0,1,7.39,2.11c1.63-2.48,4.11-4.17,6.53-4.17,1.94,0,3.39,1,3.39,2.78a2.24,2.24,0,0,1-2.3,2.36c-1.81,0-2-1.51-3.51-1.51-1,0-1.75.85-2.42,2.12a10.36,10.36,0,0,1,2.48,7c0,6-4.23,10.65-11.56,10.65-3.14,0-3.87-.73-5.75-.73-2.24,0-3.45,1-3.45,2.06,0,2.12,2.42,2.54,11.74,2.84C218.22,60.52,222.88,64.21,222.88,70ZM199.7,45.39c0,4.78,1.33,8.29,6.11,8.29s6.05-3.51,6.05-8.29S210.53,37,205.81,37,199.7,40.61,199.7,45.39Z"/><path class="cls-1" d="M22.9,2.76h1.83l4.09,10.53H27l-1-2.5H21.59l-1,2.5H18.8Zm-.67,6.38h3.16L23.81,5Z"/><path class="cls-1" d="M31.65,2.76,36.91,10V2.76h1.81V13.29H37.09L31.83,6.05v7.24H30V2.76Z"/><path class="cls-1" d="M42.57,2.76,47.83,10V2.76h1.8V13.29H48L42.75,6.05v7.24H40.94V2.76Z"/><path class="cls-1" d="M52.72,11.09a1.19,1.19,0,1,1-1.19,1.19A1.18,1.18,0,0,1,52.72,11.09Z"/><path class="cls-1" d="M60.22,2.76H63.8a3.29,3.29,0,0,1,3.49,3.37A3.3,3.3,0,0,1,63.8,9.5H62v3.79H60.22Zm5.23,3.37c0-1-.64-1.65-1.88-1.65H62v3.3h1.54C64.81,7.78,65.45,7.12,65.45,6.13Z"/><path class="cls-1" d="M78.78,8A5.33,5.33,0,1,1,68.13,8,5.33,5.33,0,1,1,78.78,8ZM76.94,8a3.49,3.49,0,1,0-7,0,3.49,3.49,0,1,0,7,0Z"/><path class="cls-1" d="M80.4,2.76h3.46A3.22,3.22,0,0,1,87.35,6,3,3,0,0,1,85,9.2l2.64,4.09H85.53l-2.5-4h-.82v4H80.4ZM85.52,6c0-1-.73-1.56-1.88-1.56H82.21V7.6h1.43C84.79,7.6,85.52,7.08,85.52,6Z"/><path class="cls-1" d="M91.17,4.48h-2.9V2.76h7.61V4.48H93v8.81h-1.8Z"/><path class="cls-1" d="M10.44,15.84a1.05,1.05,0,0,1-.73-1.79l3.86-3.86.5-.5.24-.24a2.62,2.62,0,0,0,.22-.25A5.59,5.59,0,0,0,13.22.86,5.44,5.44,0,0,0,10.65,0c-.25,0-.44,0-.69,0H5.4a1.06,1.06,0,0,1,.95.65,1.07,1.07,0,0,1-.22,1.14L2.69,5.23l-.88.88c-.15.15-.28.27-.42.43A5.19,5.19,0,0,0,1,7,5.72,5.72,0,0,0,.09,9.23a5.61,5.61,0,0,0,5.44,6.61h4.91Z"/></g></g></svg>