<svg xmlns="http://www.w3.org/2000/svg" viewBox="0 0 846 171"><defs><style>.cls-1{fill:#95c9c5;}.cls-2{fill:#6f7b89;}.cls-3{fill:#f6895b;}.cls-4{fill:none;stroke:#afb5bf;stroke-miterlimit:10;}</style></defs><g id="Layer_2" data-name="Layer 2"><g id="Layer_1-2" data-name="Layer 1"><path class="cls-1" d="M72.54,101.32v9.54a5.74,5.74,0,0,1-5.72,5.73h-42a5.75,5.75,0,0,1-5.73-5.73v-9.54Z"/><path class="cls-1" d="M36.37,28.78H55.27a2,2,0,0,1,2,2v5.64a0,0,0,0,1,0,0H34.37a0,0,0,0,1,0,0V30.78a2,2,0,0,1,2-2Z" transform="translate(91.64 65.2) rotate(-180)"/><polygon class="cls-1" points="57.27 51.69 57.27 70.78 45.82 76.5 34.37 70.78 34.37 47.87 53.45 47.87 57.27 51.69"/><path class="cls-2" d="M66.59,66.08c0-.13-.44-.56-.54-.65l-6.87-5.15V51.69a2,2,0,0,0-.55-1.36C54.53,46.24,54.5,46,53.46,46H34.37a1.92,1.92,0,0,0-1.91,1.91V60.28c-7.63,5.72-7.34,5.29-7.6,6.34,0,1.95,0-7.13,0,19.43a5.75,5.75,0,0,0,5.73,5.73H61.09a5.75,5.75,0,0,0,5.73-5.73C66.82,69.4,66.94,66.08,66.59,66.08Zm-7.41-1,2.12,1.58-2.12,1.05ZM36.28,49.78H52.67l2.69,2.69V69.59l-9.54,4.78-9.54-4.78ZM32.46,65.05v2.63l-2.12-1.05ZM63,86.05A1.92,1.92,0,0,1,61.09,88H30.55a1.92,1.92,0,0,1-1.91-1.91v-16c17.8,8.89,16.56,8.36,17.18,8.36s-.6.52,17.18-8.36Z"/><path class="cls-2" d="M49.64,57.41H42a1.91,1.91,0,1,1,0-3.81h7.64a1.91,1.91,0,1,1,0,3.81Z"/><path class="cls-2" d="M49.64,65.05H42a1.91,1.91,0,1,1,0-3.82h7.64a1.91,1.91,0,0,1,0,3.82Z"/><path class="cls-2" d="M49.64,107.05H42a1.91,1.91,0,1,0,0,3.81h7.64a1.91,1.91,0,1,0,0-3.81Z"/><polygon class="cls-3" points="93.54 95.59 90.69 99.7 85.91 101.14 88.93 105.12 88.82 110.12 93.54 108.47 98.26 110.12 98.15 105.12 101.18 101.14 96.39 99.7 93.54 95.59"/><path class="cls-2" d="M95.45,88.09V78.41a1.91,1.91,0,0,0-1.91-1.91H74.45V68.87H93.54A1.91,1.91,0,0,0,95.45,67V57.28a15.27,15.27,0,1,0-3.82,0v7.77H74.45V34.51a7.63,7.63,0,0,0-7.63-7.64h-42a7.63,7.63,0,0,0-7.63,7.64v76.35a7.63,7.63,0,0,0,7.63,7.64h42a7.63,7.63,0,0,0,7.63-7.64V80.32H91.63v7.77a15.27,15.27,0,1,0,3.82,0ZM82.09,42.14A11.46,11.46,0,1,1,93.54,53.6,11.47,11.47,0,0,1,82.09,42.14ZM36.28,30.69H55.36V32.6a1.91,1.91,0,0,1-1.9,1.91H38.18a1.91,1.91,0,0,1-1.9-1.91Zm34.36,80.17a3.83,3.83,0,0,1-3.82,3.82h-42A3.83,3.83,0,0,1,21,110.86v-7.63H70.64Zm0-11.45H21V34.51a3.83,3.83,0,0,1,3.82-3.82h7.64V32.6a5.74,5.74,0,0,0,5.72,5.73H53.46a5.74,5.74,0,0,0,5.72-5.73V30.69h7.64a3.83,3.83,0,0,1,3.82,3.82Zm22.9,15.27A11.45,11.45,0,1,1,105,103.23,11.47,11.47,0,0,1,93.54,114.68Z"/><path class="cls-3" d="M100,43.33l-6.45,6.45-6.45-6.45a4,4,0,0,1-1.18-2.86,4.05,4.05,0,0,1,6.91-2.87l.72.73.73-.73a4,4,0,0,1,2.86-1.18A4.05,4.05,0,0,1,100,43.33Z"/><path d="M40.67,139.58a7.25,7.25,0,0,1-.44,2.54,5.47,5.47,0,0,1-3.55,3.33l-1-1.56a5.18,5.18,0,0,0,1.89-1,4.37,4.37,0,0,0,1.13-1.51,4.59,4.59,0,0,0,.37-1.79v-1.37h1.61Zm-.44,6.5v1.3h5.52v-1.3h2v5.66H38.25v-5.66Zm.85-6.36a4,4,0,0,0,.34,1.64,3.8,3.8,0,0,0,1.07,1.38,5,5,0,0,0,1.81.92l-1,1.55A5.7,5.7,0,0,1,41.16,144a5.2,5.2,0,0,1-1.3-1.91,6.52,6.52,0,0,1-.42-2.37v-1.51h1.64Zm-.85,10.42h5.52v-1.22H40.23Zm5.79-10v1.59H43.08v-1.59Zm1.71-2.42v7.83h-2v-7.83Z"/><path d="M49.65,147.43l3.1,0c1,0,2-.07,3-.13s2.05-.17,3-.3l.14,1.44c-1,.18-2,.32-3,.41s-2,.15-2.95.18-1.93,0-3,0Zm4.54-8.91a4.47,4.47,0,0,1,2,.45,3.47,3.47,0,0,1,1.41,1.24,3.36,3.36,0,0,1,0,3.59A3.54,3.54,0,0,1,56.21,145a4.83,4.83,0,0,1-4,0,3.5,3.5,0,0,1-1.42-1.24,3.36,3.36,0,0,1,0-3.59A3.5,3.5,0,0,1,52.18,139,4.43,4.43,0,0,1,54.19,138.52Zm0,1.71a2.31,2.31,0,0,0-1,.21,1.63,1.63,0,0,0-.71.61,1.73,1.73,0,0,0-.25.95,1.77,1.77,0,0,0,.25.95,1.72,1.72,0,0,0,.71.62,2.17,2.17,0,0,0,1,.21,2.32,2.32,0,0,0,1-.21,1.72,1.72,0,0,0,.71-.62,1.76,1.76,0,0,0,.26-.95,1.73,1.73,0,0,0-.26-.95,1.63,1.63,0,0,0-.71-.61A2.46,2.46,0,0,0,54.19,140.23Zm1,4.54v3h-2v-3Zm6.36-7.1v14.26h-2V137.67Z"/><path d="M76.41,144.7v1.59h-13V144.7Zm-9.49,2.81v3.07h-2v-3.07ZM75,150v1.61h-10V150Zm-.23-11.75v5.25H65v-5.25ZM67,139.84V142h5.81v-2.15Zm4.09,5.87v3h-2v-3Z"/><path d="M77.32,147.4q1.61,0,3.06,0c1,0,2-.06,3-.13s2-.16,3-.3l.15,1.44a28.53,28.53,0,0,1-3,.42c-1.05.1-2,.16-3,.18s-1.93,0-3,0Zm4.54-8.78a4.47,4.47,0,0,1,2,.45,3.61,3.61,0,0,1,1.41,1.24,3.39,3.39,0,0,1,0,3.61,3.61,3.61,0,0,1-1.41,1.24,4.74,4.74,0,0,1-4,0,3.6,3.6,0,0,1-1.42-1.25,3.36,3.36,0,0,1,0-3.59,3.53,3.53,0,0,1,1.42-1.25A4.43,4.43,0,0,1,81.86,138.62Zm0,1.73a2.38,2.38,0,0,0-1,.21,1.66,1.66,0,0,0-.7.61,1.91,1.91,0,0,0,0,1.89,1.66,1.66,0,0,0,.7.61,2.38,2.38,0,0,0,1,.21,2.46,2.46,0,0,0,1-.21,1.57,1.57,0,0,0,.71-.61,1.85,1.85,0,0,0,0-1.89,1.63,1.63,0,0,0-.71-.61A2.46,2.46,0,0,0,81.86,140.35Zm7.34-2.68v14.26h-2V137.67Z"/><rect class="cls-4" x="0.5" y="0.5" width="125" height="170" rx="5"/><path class="cls-1" d="M269.73,111.51v5.08H216.28v-5.08a7.65,7.65,0,0,1,6.26-7.52l14.73-2.67a8.09,8.09,0,0,0,11.46,0L263.46,104A7.66,7.66,0,0,1,269.73,111.51Z"/><path class="cls-1" d="M246.82,70.78c-.25-.25-7.28,3.81-19.09,3.81V68.87a11.46,11.46,0,0,1,11.45-11.46h4.15a13.07,13.07,0,0,1,9.22,3.82A5.73,5.73,0,0,1,258.27,67v7.63H256A13,13,0,0,1,246.82,70.78Z"/><path class="cls-3" d="M243,26.87a11.46,11.46,0,1,0,11.45,11.46A11.46,11.46,0,0,0,243,26.87Zm7.08,9-7.64,7.63a1.87,1.87,0,0,1-1.35.56c-1,0-1.08-.29-5.17-4.38a1.91,1.91,0,1,1,2.7-2.69l2.47,2.46,6.29-6.28a1.91,1.91,0,1,1,2.7,2.7Z"/><path class="cls-1" d="M197.19,65.05A11.45,11.45,0,1,0,208.64,53.6,11.45,11.45,0,0,0,197.19,65.05Zm8.75,0-3.42-3.42a1.91,1.91,0,0,1,2.7-2.7l3.42,3.42,3.42-3.42a1.91,1.91,0,0,1,2.7,2.7l-3.42,3.42,3.42,3.42a1.91,1.91,0,0,1-2.7,2.7l-3.42-3.42-3.42,3.42a1.91,1.91,0,0,1-2.7-2.7Z"/><path class="cls-1" d="M277.36,53.6a11.45,11.45,0,1,0,11.45,11.45A11.45,11.45,0,0,0,277.36,53.6Zm6.12,14.87a1.91,1.91,0,0,1-1.35,3.26c-1,0-1.14-.35-4.77-4-3.64,3.64-3.71,4-4.77,4a1.91,1.91,0,0,1-1.35-3.26l3.42-3.42-3.42-3.42a1.91,1.91,0,0,1,2.7-2.7l3.42,3.42,3.42-3.42a1.91,1.91,0,0,1,2.7,2.7l-3.42,3.42Z"/><path class="cls-2" d="M263.81,102.12l-13.17-2.38V95.1a13.39,13.39,0,0,0,5.57-9h1.11a6.67,6.67,0,0,0,2.86-12.7V67a7.66,7.66,0,0,0-6.83-7.6c-4.82-4.34-9.53-3.85-14.17-3.85a13.37,13.37,0,0,0-13.36,13.36v4.48a6.67,6.67,0,0,0,2.86,12.7h1.11a13.43,13.43,0,0,0,5.57,9v4.64l-13.17,2.38a9.52,9.52,0,0,0-7.82,9.39v5.08a1.92,1.92,0,0,0,1.91,1.91h53.45a1.91,1.91,0,0,0,1.9-1.91v-5.08A9.52,9.52,0,0,0,263.81,102.12Zm-3.63-22.75a2.86,2.86,0,0,1-2.86,2.86h-1V76.5h1A2.86,2.86,0,0,1,260.18,79.37Zm-30.54,2.86h-1a2.87,2.87,0,0,1,0-5.73h1Zm0-9.58V68.87a9.55,9.55,0,0,1,9.54-9.55h4.14a11.06,11.06,0,0,1,7.87,3.27,2,2,0,0,0,1.36.55A3.83,3.83,0,0,1,256.36,67v5.73a11.09,11.09,0,0,1-8.19-3.27,1.92,1.92,0,0,0-1.35-.55C245.59,68.87,240,72.25,229.64,72.65Zm3.82,11.49v-8a51.43,51.43,0,0,0,13-3.19,14.54,14.54,0,0,0,6.13,3.09v8.06a9.55,9.55,0,0,1-19.09,0ZM246.82,97v3.51a6.19,6.19,0,0,1-7.64,0V97A13.51,13.51,0,0,0,246.82,97Zm21,17.73H218.18v-3.17a5.78,5.78,0,0,1,4.7-5.65l13.88-2.52a9.77,9.77,0,0,0,12.48,0l13.88,2.52a5.78,5.78,0,0,1,4.7,5.65Z"/><path class="cls-2" d="M217.11,52a1.91,1.91,0,0,1-1.44-3.15A35.54,35.54,0,0,1,225.43,41a1.91,1.91,0,0,1,1.85,3.34,31.85,31.85,0,0,0-8.72,7.08A1.9,1.9,0,0,1,217.11,52Z"/><path class="cls-2" d="M218.85,99a1.87,1.87,0,0,1-1.33-.55,36,36,0,0,1-9.38-15.78,1.91,1.91,0,0,1,3.67-1,32.24,32.24,0,0,0,8.38,14.11A1.91,1.91,0,0,1,218.85,99Z"/><path class="cls-2" d="M268.89,52a1.9,1.9,0,0,1-1.45-.66,31.85,31.85,0,0,0-8.72-7.08A1.91,1.91,0,0,1,260.57,41a35.54,35.54,0,0,1,9.76,7.93A1.91,1.91,0,0,1,268.89,52Z"/><path class="cls-2" d="M267.15,99a1.91,1.91,0,0,1-1.34-3.27,32.24,32.24,0,0,0,8.38-14.11,1.91,1.91,0,1,1,3.67,1,36,36,0,0,1-9.38,15.78A1.87,1.87,0,0,1,267.15,99Z"/><path d="M219,138.69a2.44,2.44,0,0,1,1.65.62,4.05,4.05,0,0,1,1.1,1.79,8.56,8.56,0,0,1,.39,2.73,8.73,8.73,0,0,1-.39,2.75,4.09,4.09,0,0,1-1.1,1.8A2.44,2.44,0,0,1,219,149a2.4,2.4,0,0,1-1.63-.62,4,4,0,0,1-1.08-1.8,8.74,8.74,0,0,1-.38-2.75,8.57,8.57,0,0,1,.38-2.73,3.94,3.94,0,0,1,1.08-1.79A2.4,2.4,0,0,1,219,138.69Zm0,1.88a.89.89,0,0,0-.71.36,2.66,2.66,0,0,0-.43,1.09,11,11,0,0,0,0,3.62,2.6,2.6,0,0,0,.43,1.09.89.89,0,0,0,.71.36.9.9,0,0,0,.71-.36,2.52,2.52,0,0,0,.46-1.09,8.43,8.43,0,0,0,.16-1.81,9,9,0,0,0-.16-1.8,2.63,2.63,0,0,0-.46-1.1A.9.9,0,0,0,219,140.57Zm4.91.26v1.59h-2.44v-1.59Zm0,4.39v1.62h-2.44v-1.62Zm1.29-7.33v13.35h-1.88V137.89Zm2.91-.22V151.9h-1.91V137.67Z"/><path d="M233.58,138.45a4.31,4.31,0,0,1,2,.45,3.48,3.48,0,0,1,1.39,1.24,3.26,3.26,0,0,1,.52,1.78,3.33,3.33,0,0,1-1.91,3,4.31,4.31,0,0,1-2,.45,4.38,4.38,0,0,1-2-.45,3.44,3.44,0,0,1-1.4-1.24,3.24,3.24,0,0,1-.5-1.79,3.16,3.16,0,0,1,.5-1.78,3.51,3.51,0,0,1,1.4-1.24A4.38,4.38,0,0,1,233.58,138.45Zm7.29,8.18v5.27h-2v-3.66H231.3v-1.61Zm-7.29-6.48a2.45,2.45,0,0,0-1,.22,1.58,1.58,0,0,0-.69.61,1.67,1.67,0,0,0-.25.94,1.76,1.76,0,0,0,.25,1,1.6,1.6,0,0,0,.69.62,2.29,2.29,0,0,0,1,.21,2.33,2.33,0,0,0,1-.21,1.65,1.65,0,0,0,.69-.62,1.76,1.76,0,0,0,.25-1,1.67,1.67,0,0,0-.25-.94,1.63,1.63,0,0,0-.69-.61A2.49,2.49,0,0,0,233.58,140.15Zm7.29-2.48v8.39h-2v-8.39Zm1.84,1.88v1.61h-2.46v-1.61Zm0,3.07v1.65h-2.46v-1.65Z"/><path d="M243.26,145.53c1.08,0,2.09,0,3,0s1.94-.06,3-.11,2-.14,2.87-.25l.15,1.37c-.93.16-1.9.28-2.92.36s-2,.14-2.88.16-1.91,0-3,0Zm8.51-6.8v1.44h-8.13v-1.44Zm-4.07,1.77a6,6,0,0,1,1.83.26,2.71,2.71,0,0,1,1.22.73,1.63,1.63,0,0,1,.43,1.13,1.61,1.61,0,0,1-.43,1.13,2.64,2.64,0,0,1-1.22.74,6.61,6.61,0,0,1-3.67,0,2.72,2.72,0,0,1-1.22-.74,1.63,1.63,0,0,1-.43-1.13,1.6,1.6,0,0,1,.43-1.12,2.64,2.64,0,0,1,1.22-.74A6,6,0,0,1,247.7,140.5Zm7.09,7.42v4h-2v-2.44h-7.72v-1.54Zm-7.09-6.09a3.58,3.58,0,0,0-.87.08,1.25,1.25,0,0,0-.53.26.61.61,0,0,0-.18.45.64.64,0,0,0,.18.45,1.24,1.24,0,0,0,.54.28,3.6,3.6,0,0,0,.86.09,3.46,3.46,0,0,0,.85-.09,1.24,1.24,0,0,0,.54-.28.65.65,0,0,0,.19-.45.62.62,0,0,0-.19-.45,1.25,1.25,0,0,0-.53-.26A3.54,3.54,0,0,0,247.7,141.83Zm1-4.26v1.84h-2v-1.84Zm0,6.62v2h-2v-2Zm6.08-6.5v9.66h-2v-9.66Zm1.82,4.06v1.64h-2.53v-1.64Z"/><path d="M262.21,140a7.4,7.4,0,0,1-.44,2.6,6,6,0,0,1-1.35,2.12,5.49,5.49,0,0,1-2.22,1.37l-1-1.58a5.19,5.19,0,0,0,1.9-1.08,4.58,4.58,0,0,0,1.15-1.59,4.89,4.89,0,0,0,.38-1.84v-.93h1.61Zm3.25-1.5v1.61h-7.71v-1.61Zm-1.08,7.9a9.23,9.23,0,0,1,2.62.33,3.75,3.75,0,0,1,1.69.94,2.06,2.06,0,0,1,.59,1.47,2,2,0,0,1-.59,1.47,3.76,3.76,0,0,1-1.69,1,9.6,9.6,0,0,1-2.62.33,9.47,9.47,0,0,1-2.61-.33,3.81,3.81,0,0,1-1.69-1,2,2,0,0,1-.58-1.47,2,2,0,0,1,.58-1.47,3.86,3.86,0,0,1,1.69-.94A9.2,9.2,0,0,1,264.38,146.43ZM262.62,140a4.19,4.19,0,0,0,.36,1.7,4.08,4.08,0,0,0,1.09,1.46,5.1,5.1,0,0,0,1.82,1l-1,1.56a5.31,5.31,0,0,1-2.16-1.28,5.58,5.58,0,0,1-1.32-2A6.86,6.86,0,0,1,261,140v-.91h1.62Zm1.76,7.94a8.07,8.07,0,0,0-1.6.13,2.25,2.25,0,0,0-1,.41.87.87,0,0,0,0,1.36,2.25,2.25,0,0,0,1,.4,9.21,9.21,0,0,0,3.2,0,2.3,2.3,0,0,0,1-.4.85.85,0,0,0,0-1.36,2.3,2.3,0,0,0-1-.41A8.07,8.07,0,0,0,264.38,148Zm3.39-6.81v1.62H265v-1.62Zm1.47-3.47v8.45h-2v-8.45Z"/><rect class="cls-4" x="180.5" y="0.5" width="125" height="170" rx="5"/><path class="cls-1" d="M434.72,109l-2.18,7.63H407.73a5.71,5.71,0,0,0,5.38-7.63Z"/><path class="cls-1" d="M466.9,89.87l-7.63,26.72H432.54c2.75-9.63,1.08-3.79,7.64-26.72Z"/><polygon class="cls-1" points="405.82 84.14 400.09 89.87 392.02 81.79 400.09 80.32 405.82 84.14"/><polygon class="cls-1" points="405.82 84.14 411.55 89.87 419.62 81.79 411.55 80.32 405.82 84.14"/><path class="cls-1" d="M409.64,49.78c-.26-.25-7.28,3.82-19.09,3.82V47.87A11.44,11.44,0,0,1,402,36.42h4.15a13,13,0,0,1,9.21,3.81A5.74,5.74,0,0,1,421.09,46V53.6h-2.24A13,13,0,0,1,409.64,49.78Z"/><path class="cls-1" d="M388.73,53.6h5.64a0,0,0,0,1,0,0v9.54a0,0,0,0,1,0,0h-5.64a2,2,0,0,1-2-2V55.6A2,2,0,0,1,388.73,53.6Z"/><path class="cls-1" d="M419.27,53.6h5.64a0,0,0,0,1,0,0v9.54a0,0,0,0,1,0,0h-5.64a2,2,0,0,1-2-2V55.6A2,2,0,0,1,419.27,53.6Z" transform="translate(842.18 116.74) rotate(180)"/><polygon class="cls-3" points="407.73 91.78 403.91 91.78 402 87.96 405.82 84.14 409.64 87.96 407.73 91.78"/><polygon class="cls-3" points="409.64 99.41 405.82 103.23 402 99.41 403.91 91.78 407.73 91.78 409.64 99.41"/><circle class="cls-2" cx="449.72" cy="103.23" r="1.91"/><path class="cls-2" d="M449.72,65.05H432.54a1.91,1.91,0,0,1-1.77-2.62l2.63-6.58a19.08,19.08,0,1,1,16.32,9.2Zm-14.36-3.82h14.36a15.27,15.27,0,1,0-12.61-6.67,1.9,1.9,0,0,1,.2,1.79Z"/><path class="cls-1" d="M449.72,49.78a1.92,1.92,0,0,1-1.91-1.91v-1a5.5,5.5,0,0,1,2.82-4.92,1.91,1.91,0,1,0-2.82-1.69,1.9,1.9,0,0,1-1.9,1.91c-3.65,0-1.87-7.63,3.81-7.63a5.73,5.73,0,0,1,2.71,10.77,1.75,1.75,0,0,0-.8,1.56v1A1.91,1.91,0,0,1,449.72,49.78Z"/><circle class="cls-1" cx="449.72" cy="55.51" r="1.91"/><path class="cls-2" d="M466.9,88H440.18a1.9,1.9,0,0,0-1.83,1.39L434.45,103V90.52a9.53,9.53,0,0,0-7.82-9.4l-13.18-2.4V74.1a13.4,13.4,0,0,0,5.58-9c1.88,0,2.76.1,4-.36V67a1.92,1.92,0,0,1-1.91,1.91h-1.91a1.91,1.91,0,0,0,0,3.82h1.91A5.75,5.75,0,0,0,426.82,67V57.41A5.75,5.75,0,0,0,423,52V46a7.66,7.66,0,0,0-6.84-7.6c-4.77-4.34-9.51-3.85-14.16-3.85a13.37,13.37,0,0,0-13.36,13.36V52a5.74,5.74,0,0,0-3.82,5.38v1.91a5.75,5.75,0,0,0,5.73,5.73h2.06a13.36,13.36,0,0,0,5.57,9v4.62L385,81.12a9.54,9.54,0,0,0-7.83,9.4v20.34a7.64,7.64,0,0,0,7.64,7.64h74.45a1.9,1.9,0,0,0,1.83-1.39l7.64-26.73A1.9,1.9,0,0,0,466.9,88ZM415.71,83l-4.17,4.16-2.72-2.73,3.14-2.1Zm-9.89-1.16L402,79.29V76a13.42,13.42,0,0,0,7.64,0v3.34Zm15.27-26.34a1.91,1.91,0,0,1,1.91,1.9v1.91a1.92,1.92,0,0,1-1.91,1.91h-1.91V55.51Zm-28.63,5.72h-1.91a1.92,1.92,0,0,1-1.91-1.91V57.41a1.91,1.91,0,0,1,1.91-1.9h1.91Zm0-9.58V47.87A9.54,9.54,0,0,1,402,38.33h4.14A11.05,11.05,0,0,1,414,41.59a2,2,0,0,0,1.35.55A3.83,3.83,0,0,1,419.18,46v5.73A11.08,11.08,0,0,1,411,48.42a1.92,1.92,0,0,0-1.35-.55C408.41,47.87,402.77,51.25,392.46,51.65Zm3.81,11.49v-8a51.4,51.4,0,0,0,13-3.19,14.7,14.7,0,0,0,6.12,3.1v8a9.55,9.55,0,1,1-19.09,0Zm3.4,19.2,3.15,2.1-2.73,2.73L396,83Zm8.06,32.34h-7.64v-7.63h7.64a3.82,3.82,0,0,1,0,7.63Zm0-11.45H392.46V95.59a1.91,1.91,0,1,0-3.82,0v9.55a1.92,1.92,0,0,0,1.91,1.91h5.72v7.63H384.82a3.83,3.83,0,0,1-3.82-3.82V90.52a5.76,5.76,0,0,1,4.7-5.66l5.67-1,7.37,7.37a1.93,1.93,0,0,0,2.71,0l4.37-4.39,4.37,4.39a1.93,1.93,0,0,0,2.71,0l7.37-7.39,5.67,1a5.75,5.75,0,0,1,4.69,5.66v16.53H423V95.59a1.91,1.91,0,0,0-3.82,0v11.46h-4.89A7.57,7.57,0,0,0,407.73,103.23Zm23.38,11.45h-16.8a7.59,7.59,0,0,0,1.05-3.82H432.2Zm26.73,0H435.08l6.53-22.9h22.75Z"/><path d="M400.61,140.89a12.82,12.82,0,0,1-.44,3.4,8.32,8.32,0,0,1-1.32,2.82,6.11,6.11,0,0,1-2.18,1.87l-1.22-1.62a5.47,5.47,0,0,0,2-1.55,6.94,6.94,0,0,0,1.19-2.27,9.34,9.34,0,0,0,.4-2.65v-2.12h1.61Zm.38,0a8.86,8.86,0,0,0,.36,2.54,6.85,6.85,0,0,0,1.13,2.18,5.24,5.24,0,0,0,1.87,1.5l-1.21,1.59a5.66,5.66,0,0,1-2.1-1.8,8.37,8.37,0,0,1-1.25-2.72,12.84,12.84,0,0,1-.4-3.29v-2.12H401Zm6-3.22V151.9h-2V137.67Zm2.1,5.48v1.69h-2.54v-1.69Z"/><path d="M414.55,140.46a7.27,7.27,0,0,1-.45,2.57,5.61,5.61,0,0,1-1.35,2.11,5.54,5.54,0,0,1-2.22,1.34l-1-1.61a5.19,5.19,0,0,0,1.9-1,4.48,4.48,0,0,0,1.14-1.56,4.7,4.7,0,0,0,.38-1.81v-.93h1.62Zm3.24-1.82v1.6h-7.71v-1.6Zm-3.66,8.52V151h-2v-3.83Zm7.78,2.88v1.61h-9.77V150Zm-7-9.57a4.24,4.24,0,0,0,.35,1.67,4.33,4.33,0,0,0,1.09,1.47,5.2,5.2,0,0,0,1.83,1l-1,1.58a5.56,5.56,0,0,1-2.16-1.29,5.35,5.35,0,0,1-1.31-2,6.76,6.76,0,0,1-.44-2.43v-.94H415Zm5.67.9V143h-3.37v-1.61Zm.95-3.68v10.38h-2V137.69Z"/><path d="M431,139v9.55h-6.87V139Zm-4.88,1.56v6.41h2.95v-6.41Zm9.21-2.85v14.26h-2V137.67Z"/><path d="M444.93,138.67v1.58H440v4.48h-2v-6.06Zm-5.66,5.38h.53l2.5,0c.64,0,1.25,0,1.84-.09s1.19-.12,1.79-.22l.2,1.57c-.66.1-1.31.18-2,.23s-1.36.09-2.09.11-1.67,0-2.8,0H438v-1.6Zm5.24-2.68v1.54h-5.09v-1.54Zm-.18,5.13a9.15,9.15,0,0,1,2.6.32,3.82,3.82,0,0,1,1.7.92,2.06,2.06,0,0,1,0,2.91,3.93,3.93,0,0,1-1.7.93,11.14,11.14,0,0,1-5.22,0,3.83,3.83,0,0,1-1.7-.93,2,2,0,0,1-.58-1.45,2,2,0,0,1,.58-1.46,3.82,3.82,0,0,1,1.7-.92A9.16,9.16,0,0,1,444.33,146.5Zm0,1.53a8.11,8.11,0,0,0-1.61.13,2.44,2.44,0,0,0-1,.39.78.78,0,0,0-.32.65.81.81,0,0,0,.32.65,2.18,2.18,0,0,0,1,.39,8,8,0,0,0,1.61.14,7.88,7.88,0,0,0,1.59-.14,2.18,2.18,0,0,0,1-.39.8.8,0,0,0,.34-.65.76.76,0,0,0-.34-.64,2.3,2.3,0,0,0-1-.4A8.09,8.09,0,0,0,444.33,148Zm4.83-10.34v8.61h-2v-8.61Z"/><rect class="cls-4" x="360.5" y="0.5" width="125" height="170" rx="5"/><rect class="cls-1" x="582" y="89.87" width="42" height="26.72"/><rect class="cls-1" x="578.18" y="82.23" width="49.63" height="7.64"/><path class="cls-1" d="M610.64,47.87v1.91c-4.9,0-9,.16-15.28-1.91a7.64,7.64,0,1,1,15.28,0Z"/><polygon class="cls-1" points="559.1 59.32 559.1 32.6 578.18 32.6 582 36.42 582 59.32 559.1 59.32"/><polygon class="cls-1" points="604.91 65.05 601.09 65.05 599.18 61.23 606.82 61.23 604.91 65.05"/><polygon class="cls-1" points="606.82 72.69 603 76.5 599.18 72.69 601.09 65.05 604.91 65.05 606.82 72.69"/><path class="cls-2" d="M627.82,80.32h-7.64V68a7.61,7.61,0,0,0-6.38-7.52l-3.64-.61a9.48,9.48,0,0,0,2.38-6.26V47.87a9.54,9.54,0,0,0-19.08,0V53.6a9.48,9.48,0,0,0,2.38,6.26l-3.64.61A7.61,7.61,0,0,0,585.82,68V80.32h-7.64a1.91,1.91,0,0,0-1.9,1.91v7.64a1.91,1.91,0,0,0,1.9,1.91h1.91v24.81A1.92,1.92,0,0,0,582,118.5h42a1.92,1.92,0,0,0,1.91-1.91V91.78h1.91a1.91,1.91,0,0,0,1.9-1.91V82.23A1.91,1.91,0,0,0,627.82,80.32ZM603,42.14a5.75,5.75,0,0,1,5.73,5.73,36.5,36.5,0,0,1-11.27-1.37A5.71,5.71,0,0,1,603,42.14Zm-5.73,8.27a41,41,0,0,0,11.46,1.28V53.6a5.73,5.73,0,0,1-11.46,0ZM589.64,68a3.79,3.79,0,0,1,3.19-3.76l6.5-1.09c8.81,0,5.65-.28,13.84,1.09A3.79,3.79,0,0,1,616.36,68V80.32H589.64Zm32.45,46.69H583.91V91.78h38.18ZM625.91,88H580.09V84.14h45.82Z"/><path class="cls-3" d="M641.18,26.87H618.27a1.92,1.92,0,0,0-1.91,1.91V44.05A1.92,1.92,0,0,0,618.27,46h1.91v3.82L625.91,46h15.27a1.92,1.92,0,0,0,1.91-1.91V28.78A1.92,1.92,0,0,0,641.18,26.87ZM622.09,38.33A1.91,1.91,0,1,1,624,36.42,1.91,1.91,0,0,1,622.09,38.33Zm7.63,0a1.91,1.91,0,1,1,1.91-1.91A1.91,1.91,0,0,1,629.72,38.33Zm7.64,0a1.91,1.91,0,1,1,1.91-1.91A1.92,1.92,0,0,1,637.36,38.33Z"/><path class="cls-2" d="M582,61.23H559.09a1.9,1.9,0,0,1-1.9-1.91V32.6a1.9,1.9,0,0,1,1.9-1.91h19.09a1.88,1.88,0,0,1,1.35.56c4.09,4.09,4.38,4.12,4.38,5.17v22.9A1.9,1.9,0,0,1,582,61.23Zm-21-3.82h19.09V37.21l-2.7-2.7H561Z"/><path class="cls-2" d="M646.91,76.5H627.82a1.9,1.9,0,0,1-1.91-1.91V51.69a1.9,1.9,0,0,1,1.91-1.91h15.27a1.92,1.92,0,0,1,1.35.56c4.08,4.09,4.37,4.12,4.37,5.17V74.59A1.9,1.9,0,0,1,646.91,76.5Zm-17.19-3.81H645V56.3l-2.7-2.7H629.72Z"/><path class="cls-2" d="M574.37,44.05h-7.64a1.91,1.91,0,1,1,0-3.82h7.64a1.91,1.91,0,0,1,0,3.82Z"/><path class="cls-2" d="M574.37,51.69h-7.64a1.91,1.91,0,1,1,0-3.82h7.64a1.91,1.91,0,0,1,0,3.82Z"/><path class="cls-1" d="M639.27,61.23h-3.82a1.91,1.91,0,0,1,0-3.82h3.82a1.91,1.91,0,0,1,0,3.82Z"/><path class="cls-1" d="M639.27,68.87h-3.82a1.91,1.91,0,0,1,0-3.82h3.82a1.91,1.91,0,0,1,0,3.82Z"/><path d="M579,138.69a2.44,2.44,0,0,1,1.65.62,4,4,0,0,1,1.1,1.79,8.56,8.56,0,0,1,.39,2.73,8.73,8.73,0,0,1-.39,2.75,4,4,0,0,1-1.1,1.8A2.44,2.44,0,0,1,579,149a2.4,2.4,0,0,1-1.63-.62,4,4,0,0,1-1.08-1.8,9,9,0,0,1-.38-2.75,8.86,8.86,0,0,1,.38-2.73,3.94,3.94,0,0,1,1.08-1.79A2.4,2.4,0,0,1,579,138.69Zm0,1.88a.86.86,0,0,0-.7.36,2.52,2.52,0,0,0-.44,1.09,11.77,11.77,0,0,0,0,3.62,2.47,2.47,0,0,0,.44,1.09.86.86,0,0,0,.7.36.9.9,0,0,0,.71-.36,2.52,2.52,0,0,0,.46-1.09,8.43,8.43,0,0,0,.16-1.81,8.27,8.27,0,0,0-.16-1.8,2.63,2.63,0,0,0-.46-1.1A.9.9,0,0,0,579,140.57Zm4.91.26v1.59h-2.44v-1.59Zm0,4.39v1.62h-2.44v-1.62Zm1.29-7.33v13.35h-1.88V137.89Zm2.91-.22V151.9h-1.91V137.67Z"/><path d="M594.62,139.69a7.29,7.29,0,0,1-.46,2.58,5.84,5.84,0,0,1-1.37,2.09,5.76,5.76,0,0,1-2.25,1.32l-1-1.56a5.27,5.27,0,0,0,1.91-1.06,4.48,4.48,0,0,0,1.14-1.56,4.7,4.7,0,0,0,.38-1.81v-1.37h1.65Zm6.87,7.08v5.13h-2v-3.53h-7.77v-1.6ZM595,139.69a4.52,4.52,0,0,0,.35,1.75,4,4,0,0,0,1.12,1.47,5.08,5.08,0,0,0,1.88,1l-1,1.57a5.77,5.77,0,0,1-2.22-1.27,5.41,5.41,0,0,1-1.35-2,6.66,6.66,0,0,1-.44-2.51v-1.37H595Zm6.46-2v8.49h-2v-8.49Z"/><path d="M608.6,140.48a7.18,7.18,0,0,1-.46,2.56,5.77,5.77,0,0,1-3.63,3.41l-1-1.56a5.54,5.54,0,0,0,1.92-1,4.61,4.61,0,0,0,1.16-1.55,4.52,4.52,0,0,0,.38-1.81v-1.23h1.66Zm3.22-1.79v1.6H604v-1.6Zm-4,8.34v3.82h-2V147Zm7.89,3v1.61h-9.9V150ZM609,140.48a4,4,0,0,0,.37,1.7,4.15,4.15,0,0,0,1.14,1.46,5.29,5.29,0,0,0,1.89,1l-1,1.57a5.64,5.64,0,0,1-2.2-1.27,5.41,5.41,0,0,1-1.35-2,6.59,6.59,0,0,1-.45-2.45v-1.23H609Zm6.37-2.79V148h-2V137.69Z"/><path d="M624.17,139.14v1.54h-7v-1.54Zm-3.48,2a4.09,4.09,0,0,1,1.61.31,2.61,2.61,0,0,1,1.1.88,2.18,2.18,0,0,1,.4,1.3,2.12,2.12,0,0,1-.4,1.28,2.67,2.67,0,0,1-1.1.87,4.09,4.09,0,0,1-1.61.31,3.94,3.94,0,0,1-1.58-.31,2.61,2.61,0,0,1-1.1-.87,2.19,2.19,0,0,1-.4-1.28,2.25,2.25,0,0,1,.4-1.3,2.55,2.55,0,0,1,1.1-.88A3.94,3.94,0,0,1,620.69,141.16Zm0,1.44a1.79,1.79,0,0,0-.68.12,1,1,0,0,0-.45.36,1,1,0,0,0,0,1.13,1,1,0,0,0,.45.36,1.48,1.48,0,0,0,.68.12,1.45,1.45,0,0,0,.68-.12,1,1,0,0,0,.46-.36.91.91,0,0,0,.17-.56.92.92,0,0,0-.17-.57,1,1,0,0,0-.46-.36A1.76,1.76,0,0,0,620.69,142.6Zm1-4.8v2.41h-2V137.8Zm2.94,8.93a10.1,10.1,0,0,1,2.64.3,3.75,3.75,0,0,1,1.7.89,1.93,1.93,0,0,1,.6,1.39,2,2,0,0,1-.6,1.4,3.74,3.74,0,0,1-1.7.88,11.72,11.72,0,0,1-5.27,0,3.79,3.79,0,0,1-1.7-.88,1.86,1.86,0,0,1-.58-1.4,1.84,1.84,0,0,1,.58-1.39A3.8,3.8,0,0,1,622,147,10.18,10.18,0,0,1,624.61,146.73Zm0,1.49a10.38,10.38,0,0,0-1.62.11,2.31,2.31,0,0,0-1,.37.72.72,0,0,0-.32.61.74.74,0,0,0,.32.61,2.32,2.32,0,0,0,1,.35,11,11,0,0,0,3.24,0,2.27,2.27,0,0,0,1-.35.75.75,0,0,0,.33-.61.73.73,0,0,0-.33-.61,2.26,2.26,0,0,0-1-.37A10.33,10.33,0,0,0,624.61,148.22Zm1.83-10.28v8.18h-1.86v-8.18Zm1.65,3.26v1.62h-2.33V141.2Zm1.39-3.53v8.92h-1.89v-8.92Z"/><rect class="cls-4" x="540.5" y="0.5" width="125" height="170" rx="5"/><path class="cls-1" d="M820.47,105.69l-7.9,7.88a9.53,9.53,0,0,1-12.08,1.15A225.29,225.29,0,0,1,740.74,55a9.55,9.55,0,0,1,1.14-12.09l7.9-7.88,16.84,16.84-3.38,3.36a147.42,147.42,0,0,0,37,37l3.38-3.36Z"/><path class="cls-2" d="M826.87,92.55l-10.1-10.09a6.83,6.83,0,0,0-9.43,0l-7.29,7.27a143.63,143.63,0,0,1-34.33-34.32l7.28-7.3a6.64,6.64,0,0,0,0-9.43L762.9,28.59a6.68,6.68,0,0,0-9.43,0L740.53,41.53A11.42,11.42,0,0,0,739.17,56a226.12,226.12,0,0,0,60.25,60.24,11.42,11.42,0,0,0,14.5-1.35l13-13A6.69,6.69,0,0,0,826.87,92.55ZM756.18,31.3a2.84,2.84,0,0,1,4,0l10.1,10.1a2.82,2.82,0,0,1,0,4l-3.71,3.71L752.48,35Zm55,80.92a7.63,7.63,0,0,1-9.66.91A222.49,222.49,0,0,1,742.32,53.9a7.63,7.63,0,0,1,.92-9.66l6.54-6.55,14.13,14.13-2,2a1.88,1.88,0,0,0-.21,2.43,147.3,147.3,0,0,0,37.51,37.51,1.88,1.88,0,0,0,2.42-.21l2-2,14.12,14.13Zm12.95-13L820.45,103,806.33,88.85l3.7-3.7a2.91,2.91,0,0,1,4,0l10.1,10.1A2.86,2.86,0,0,1,824.16,99.27Z"/><path class="cls-2" d="M802.09,64.82H784.91a1.91,1.91,0,0,1-1.77-2.62l2.63-6.58a19.08,19.08,0,1,1,16.32,9.2ZM787.73,61h14.36a15.27,15.27,0,1,0-12.61-6.67,1.9,1.9,0,0,1,.2,1.79Z"/><path class="cls-1" d="M811.63,47.64H792.54a1.91,1.91,0,0,1,0-3.82h19.09a1.91,1.91,0,0,1,0,3.82Z"/><path class="cls-1" d="M805.91,40h-7.64a1.91,1.91,0,1,1,0-3.82h7.64a1.91,1.91,0,1,1,0,3.82Z"/><path class="cls-1" d="M805.91,55.27h-7.64a1.91,1.91,0,1,1,0-3.81h7.64a1.91,1.91,0,1,1,0,3.81Z"/><path class="cls-3" d="M746.73,118.27h22.91a1.92,1.92,0,0,0,1.91-1.91V101.09a1.92,1.92,0,0,0-1.91-1.91h-1.91V95.36L762,99.18H746.73a1.92,1.92,0,0,0-1.91,1.91v15.27A1.92,1.92,0,0,0,746.73,118.27Zm19.09-11.46a1.91,1.91,0,1,1-1.91,1.91A1.92,1.92,0,0,1,765.82,106.81Zm-7.64,0a1.91,1.91,0,1,1-1.91,1.91A1.91,1.91,0,0,1,758.18,106.81Zm-7.63,0a1.91,1.91,0,1,1-1.91,1.91A1.92,1.92,0,0,1,750.55,106.81Z"/><path d="M762.64,147c1.63,0,3.21,0,4.73-.09s3-.17,4.28-.33l.1,1.48a37.42,37.42,0,0,1-4.21.45c-1.45.07-3,.11-4.71.11Zm8.44-8v1.61H763V139Zm-4.87,1.24v7.22h-1.92v-7.22Zm3.6,0v7.22h-1.94v-7.22Zm4.81-2.55V151.9h-2V137.67Z"/><path d="M789.51,148.52v1.64h-13v-1.64ZM788,138.86v1.61h-8v4.46h-2v-6.07Zm.1,5.4v1.59H778v-1.59Z"/><path d="M792.72,138.57v2h1.94v-2h1.85v6.88h-5.67v-6.88Zm0,5.31h1.94v-1.77h-1.94Zm9.84,3v5h-2v-3.4h-7.85v-1.6Zm-3.08-9v8.23h-1.86v-8.23Zm1.71,3.22v1.61H798.9v-1.61Zm1.37-3.47v8.56h-1.89v-8.56Z"/><rect class="cls-4" x="720.5" y="0.5" width="125" height="170" rx="5"/><polygon class="cls-4" points="170.5 85.5 153.23 75.53 153.23 81.5 135.5 81.5 135.5 89.5 153.23 89.5 153.23 95.47 170.5 85.5"/><polygon class="cls-4" points="350.5 85.5 333.23 75.53 333.23 81.5 315.5 81.5 315.5 89.5 333.23 89.5 333.23 95.47 350.5 85.5"/><polygon class="cls-4" points="530.5 85.5 513.23 75.53 513.23 81.5 495.5 81.5 495.5 89.5 513.23 89.5 513.23 95.47 530.5 85.5"/><polygon class="cls-4" points="710.5 85.5 693.23 75.53 693.23 81.5 675.5 81.5 675.5 89.5 693.23 89.5 693.23 95.47 710.5 85.5"/></g></g></svg>