<svg xmlns="http://www.w3.org/2000/svg" viewBox="0 0 56.26 56.26"><defs><style>.cls-1{fill:#95c9c5;}.cls-2{fill:#6f7b89;}.cls-3{fill:#f6895b;}</style></defs><g id="Layer_2" data-name="Layer 2"><g id="Layer_1-2" data-name="Layer 1"><path class="cls-1" d="M51.14,48.54l-4.85,4.84a5.86,5.86,0,0,1-7.42.7A138.25,138.25,0,0,1,2.18,17.39,5.85,5.85,0,0,1,2.88,10L7.74,5.13,18.07,15.47,16,17.54A90.53,90.53,0,0,0,38.73,40.26L40.8,38.2Z"/><path class="cls-2" d="M55.07,40.47l-6.2-6.2a4.21,4.21,0,0,0-5.79,0L38.6,38.74A88.28,88.28,0,0,1,17.52,17.66L22,13.19A4.07,4.07,0,0,0,22,7.4l-6.2-6.2A4.09,4.09,0,0,0,10,1.2L2.05,9.14a7,7,0,0,0-.83,8.91,138.77,138.77,0,0,0,37,37,7,7,0,0,0,8.91-.83l8-8A4.11,4.11,0,0,0,55.07,40.47ZM11.66,2.86a1.75,1.75,0,0,1,2.48,0l6.2,6.2a1.74,1.74,0,0,1,0,2.47l-2.28,2.28L9.39,5.13Zm33.8,49.69a4.71,4.71,0,0,1-5.94.56A136.63,136.63,0,0,1,3.15,16.74a4.68,4.68,0,0,1,.57-5.93l4-4,8.67,8.67L15.17,16.7A1.16,1.16,0,0,0,15,18.19a90.2,90.2,0,0,0,23,23,1.17,1.17,0,0,0,1.49-.12l1.24-1.25,8.68,8.68ZM53.4,44.6l-2.27,2.27L42.46,38.2l2.27-2.27a1.78,1.78,0,0,1,2.47,0l6.2,6.2A1.75,1.75,0,0,1,53.4,44.6Z"/><path class="cls-2" d="M39.85,23.44H29.3a1.16,1.16,0,0,1-1.08-1.6l1.61-4.05a11.72,11.72,0,1,1,10,5.65ZM31,21.1h8.82A9.38,9.38,0,1,0,32.11,17a1.17,1.17,0,0,1,.12,1.1Z"/><path class="cls-1" d="M45.71,12.89H34a1.17,1.17,0,0,1,0-2.34H45.71a1.17,1.17,0,1,1,0,2.34Z"/><path class="cls-1" d="M42.2,8.21H37.51a1.18,1.18,0,0,1,0-2.35H42.2a1.18,1.18,0,0,1,0,2.35Z"/><path class="cls-1" d="M42.2,17.58H37.51a1.17,1.17,0,1,1,0-2.34H42.2a1.17,1.17,0,1,1,0,2.34Z"/><path class="cls-3" d="M5.86,56.26H19.93a1.17,1.17,0,0,0,1.17-1.17V45.71a1.18,1.18,0,0,0-1.17-1.17H18.75V42.2l-3.51,2.34H5.86a1.18,1.18,0,0,0-1.17,1.17v9.38A1.17,1.17,0,0,0,5.86,56.26Zm11.72-7a1.17,1.17,0,1,1-1.17,1.17A1.17,1.17,0,0,1,17.58,49.23Zm-4.69,0a1.17,1.17,0,1,1-1.17,1.17A1.18,1.18,0,0,1,12.89,49.23Zm-4.69,0A1.17,1.17,0,1,1,7,50.4,1.18,1.18,0,0,1,8.2,49.23Z"/></g></g></svg>