<svg xmlns="http://www.w3.org/2000/svg" viewBox="0 0 56.26 56.26"><defs><style>.cls-1{fill:#95c9c5;}.cls-2{fill:#6f7b89;}.cls-3{fill:#f6895b;}</style></defs><g id="Layer_2" data-name="Layer 2"><g id="Layer_1-2" data-name="Layer 1"><path class="cls-1" d="M34,45.71v5.86a3.52,3.52,0,0,1-3.51,3.52H4.69a3.53,3.53,0,0,1-3.52-3.52V45.71Z"/><path class="cls-1" d="M12.55,1.17H22.62a2,2,0,0,1,2,2V5.86a0,0,0,0,1,0,0H10.55a0,0,0,0,1,0,0V3.17a2,2,0,0,1,2-2Z" transform="translate(35.16 7.03) rotate(-180)"/><polygon class="cls-1" points="24.61 15.24 24.61 26.96 17.58 30.48 10.55 26.96 10.55 12.89 22.27 12.89 24.61 15.24"/><path class="cls-2" d="M30.34,24.08c0-.08-.28-.35-.33-.4l-4.22-3.17V15.24a1.2,1.2,0,0,0-.34-.83c-2.52-2.52-2.54-2.69-3.18-2.69H10.55a1.17,1.17,0,0,0-1.17,1.17v7.62C4.7,24,4.87,23.76,4.71,24.4c0,1.21,0-4.37,0,11.94a3.52,3.52,0,0,0,3.52,3.51H27a3.53,3.53,0,0,0,3.52-3.51C30.48,26.11,30.55,24.08,30.34,24.08Zm-4.55-.64,1.3,1-1.3.64ZM11.72,14.07H21.79l1.65,1.65V26.23l-5.86,2.93-5.86-2.93ZM9.38,23.44v1.62l-1.3-.64Zm18.75,12.9A1.18,1.18,0,0,1,27,37.51H8.21A1.18,1.18,0,0,1,7,36.34V26.51C18,32,17.2,31.65,17.58,31.65s-.36.32,10.55-5.14Z"/><path class="cls-2" d="M19.93,18.75H15.24a1.17,1.17,0,1,1,0-2.34h4.69a1.17,1.17,0,1,1,0,2.34Z"/><path class="cls-2" d="M19.93,23.44H15.24a1.17,1.17,0,1,1,0-2.34h4.69a1.17,1.17,0,1,1,0,2.34Z"/><path class="cls-2" d="M19.93,49.23H15.24a1.17,1.17,0,1,0,0,2.34h4.69a1.17,1.17,0,0,0,0-2.34Z"/><polygon class="cls-3" points="46.89 42.2 45.14 44.72 42.2 45.6 44.05 48.05 43.99 51.12 46.89 50.1 49.78 51.12 49.72 48.05 51.58 45.6 48.64 44.72 46.89 42.2"/><path class="cls-2" d="M48.06,37.59V31.65a1.17,1.17,0,0,0-1.17-1.17H35.16V25.79H46.89a1.18,1.18,0,0,0,1.17-1.17V18.67a9.38,9.38,0,1,0-2.35,0v4.77H35.16V4.69A4.68,4.68,0,0,0,30.48,0H4.69A4.69,4.69,0,0,0,0,4.69V51.57a4.69,4.69,0,0,0,4.69,4.69H30.48a4.68,4.68,0,0,0,4.68-4.69V32.82H45.71v4.77a9.38,9.38,0,1,0,2.35,0ZM39.85,9.38a7,7,0,1,1,7,7A7.05,7.05,0,0,1,39.85,9.38Zm-28.13-7H23.44V3.52a1.17,1.17,0,0,1-1.17,1.17H12.89a1.18,1.18,0,0,1-1.17-1.17Zm21.1,49.23a2.35,2.35,0,0,1-2.34,2.35H4.69a2.36,2.36,0,0,1-2.35-2.35V46.89H32.82Zm0-7H2.34V4.69A2.36,2.36,0,0,1,4.69,2.34H9.38V3.52A3.52,3.52,0,0,0,12.89,7h9.38a3.53,3.53,0,0,0,3.52-3.51V2.34h4.69a2.35,2.35,0,0,1,2.34,2.35Zm14.07,9.38a7,7,0,1,1,7-7A7,7,0,0,1,46.89,53.92Z"/><path class="cls-3" d="M50.85,10.11l-4,4-4-4a2.46,2.46,0,0,1-.73-1.76,2.49,2.49,0,0,1,4.24-1.76l.45.44.44-.44a2.49,2.49,0,1,1,3.52,3.52Z"/></g></g></svg>