<svg xmlns="http://www.w3.org/2000/svg" viewBox="0 0 56.26 56.26"><defs><style>.cls-1{fill:#95c9c5;}.cls-2{fill:#f6895b;}.cls-3{fill:#6f7b89;}</style></defs><g id="Layer_2" data-name="Layer 2"><g id="Layer_1-2" data-name="Layer 1"><path class="cls-1" d="M44.54,52v3.12H11.72V52a4.71,4.71,0,0,1,3.85-4.62l9.05-1.64a5,5,0,0,0,7,0l9.05,1.64A4.71,4.71,0,0,1,44.54,52Z"/><path class="cls-1" d="M30.48,27A31.36,31.36,0,0,1,18.75,29.3V25.79a7,7,0,0,1,7-7h2.54A8,8,0,0,1,34,21.1a3.52,3.52,0,0,1,3.52,3.52V29.3H36.14A8,8,0,0,1,30.48,27Z"/><path class="cls-2" d="M28.13,0a7,7,0,1,0,7,7A7,7,0,0,0,28.13,0Zm4.35,5.52-4.69,4.69a1.21,1.21,0,0,1-.83.34c-.64,0-.66-.18-3.17-2.69A1.17,1.17,0,0,1,25.44,6.2L27,7.72l3.86-3.86a1.17,1.17,0,0,1,1.66,0A1.19,1.19,0,0,1,32.48,5.52Z"/><path class="cls-1" d="M0,23.44a7,7,0,1,0,7-7A7,7,0,0,0,0,23.44Zm5.38,0-2.11-2.1a1.17,1.17,0,1,1,1.66-1.66L7,21.79l2.1-2.11a1.19,1.19,0,0,1,1.66,0,1.17,1.17,0,0,1,0,1.66l-2.1,2.1,2.1,2.1A1.17,1.17,0,0,1,9.13,27.2L7,25.1l-2.1,2.1a1.17,1.17,0,0,1-1.66,0,1.19,1.19,0,0,1,0-1.66Z"/><path class="cls-1" d="M49.23,16.41a7,7,0,1,0,7,7A7,7,0,0,0,49.23,16.41ZM53,25.54a1.18,1.18,0,0,1-.83,2c-.64,0-.7-.22-2.93-2.45C47,27.34,47,27.55,46.3,27.55a1.18,1.18,0,0,1-.83-2l2.1-2.1-2.1-2.1a1.17,1.17,0,0,1,0-1.66,1.19,1.19,0,0,1,1.66,0l2.1,2.11,2.1-2.11a1.19,1.19,0,0,1,1.66,0,1.17,1.17,0,0,1,0,1.66l-2.1,2.1Z"/><path class="cls-3" d="M40.91,46.21l-8.09-1.47V41.89a8.21,8.21,0,0,0,3.42-5.55h.68a4.1,4.1,0,0,0,1.76-7.8V24.62A4.7,4.7,0,0,0,34.48,20c-2.95-2.67-5.84-2.37-8.69-2.37a8.22,8.22,0,0,0-8.21,8.21v2.75a4.1,4.1,0,0,0,1.76,7.8H20a8.25,8.25,0,0,0,3.42,5.55v2.85l-8.08,1.47A5.85,5.85,0,0,0,10.55,52v3.12a1.17,1.17,0,0,0,1.17,1.17H44.54a1.17,1.17,0,0,0,1.17-1.17V52A5.84,5.84,0,0,0,40.91,46.21Zm-2.23-14A1.75,1.75,0,0,1,36.92,34h-.58V30.48h.58A1.75,1.75,0,0,1,38.68,32.23ZM19.93,34h-.59a1.76,1.76,0,1,1,0-3.51h.59Zm0-5.88V25.79a5.86,5.86,0,0,1,5.86-5.86h2.54a6.78,6.78,0,0,1,4.83,2,1.22,1.22,0,0,0,.83.34,2.36,2.36,0,0,1,2.35,2.35v3.51a6.81,6.81,0,0,1-5-2,1.15,1.15,0,0,0-.83-.34C29.72,25.79,26.26,27.86,19.93,28.11Zm2.34,7V30.28a31.54,31.54,0,0,0,8-2A9,9,0,0,0,34,30.22v4.94a5.86,5.86,0,1,1-11.72,0ZM30.48,43v2.16a3.83,3.83,0,0,1-4.69,0V43A8.23,8.23,0,0,0,30.48,43ZM43.37,53.92H12.89V52a3.54,3.54,0,0,1,2.89-3.47L24.3,47A6,6,0,0,0,32,47l8.53,1.54A3.54,3.54,0,0,1,43.37,52Z"/><path class="cls-3" d="M12.24,15.45a1.18,1.18,0,0,1-.89-1.94,21.69,21.69,0,0,1,6-4.86,1.18,1.18,0,0,1,1.6.45,1.19,1.19,0,0,1-.46,1.6A19.26,19.26,0,0,0,13.13,15,1.18,1.18,0,0,1,12.24,15.45Z"/><path class="cls-3" d="M13.3,44.31a1.16,1.16,0,0,1-.82-.34,22.14,22.14,0,0,1-5.75-9.69A1.17,1.17,0,1,1,9,33.64a19.77,19.77,0,0,0,5.15,8.66A1.18,1.18,0,0,1,13.3,44.31Z"/><path class="cls-3" d="M44,15.45a1.17,1.17,0,0,1-.89-.41,19.45,19.45,0,0,0-5.36-4.34,1.18,1.18,0,0,1-.45-1.6,1.16,1.16,0,0,1,1.59-.45,21.55,21.55,0,0,1,6,4.86A1.17,1.17,0,0,1,44,15.45Z"/><path class="cls-3" d="M43,44.31a1.17,1.17,0,0,1-.82-2,19.84,19.84,0,0,0,5.14-8.66,1.17,1.17,0,0,1,1.45-.81,1.19,1.19,0,0,1,.81,1.45A22.07,22.07,0,0,1,43.78,44,1.16,1.16,0,0,1,43,44.31Z"/></g></g></svg>