<svg xmlns="http://www.w3.org/2000/svg" viewBox="0 0 56.26 56.26"><defs><style>.cls-1{fill:#95c9c5;}.cls-2{fill:#f6895b;}.cls-3{fill:#6f7b89;}</style></defs><g id="Layer_2" data-name="Layer 2"><g id="Layer_1-2" data-name="Layer 1"><path class="cls-1" d="M35.33,50.4,34,55.09H18.75a3.52,3.52,0,0,0,3.31-4.69Z"/><path class="cls-1" d="M55.09,38.68,50.4,55.09H34c1.69-5.91.66-2.32,4.69-16.41Z"/><polygon class="cls-1" points="17.58 35.16 14.07 38.68 9.11 33.72 14.07 32.82 17.58 35.16"/><polygon class="cls-1" points="17.58 35.16 21.1 38.68 26.06 33.72 21.1 32.82 17.58 35.16"/><path class="cls-1" d="M19.93,14.07A31.58,31.58,0,0,1,8.21,16.41V12.89a7,7,0,0,1,7-7h2.54a8,8,0,0,1,5.66,2.35A3.52,3.52,0,0,1,27,11.72v4.69H25.59A8,8,0,0,1,19.93,14.07Z"/><path class="cls-1" d="M7.86,16.41h2.69a0,0,0,0,1,0,0v5.86a0,0,0,0,1,0,0H7.86a2,2,0,0,1-2-2V18.41A2,2,0,0,1,7.86,16.41Z"/><path class="cls-1" d="M26.62,16.41H29.3a0,0,0,0,1,0,0v5.86a0,0,0,0,1,0,0H26.62a2,2,0,0,1-2-2V18.41A2,2,0,0,1,26.62,16.41Z" transform="translate(53.92 38.68) rotate(180)"/><polygon class="cls-2" points="18.75 39.85 16.41 39.85 15.24 37.51 17.58 35.16 19.93 37.51 18.75 39.85"/><polygon class="cls-2" points="19.93 44.54 17.58 46.89 15.24 44.54 16.41 39.85 18.75 39.85 19.93 44.54"/><circle class="cls-3" cx="44.54" cy="46.89" r="1.17"/><path class="cls-3" d="M44.54,23.44H34a1.17,1.17,0,0,1-1.09-1.6l1.62-4.05a11.72,11.72,0,1,1,10,5.65ZM35.72,21.1h8.82A9.38,9.38,0,1,0,36.8,17a1.17,1.17,0,0,1,.12,1.1Z"/><path class="cls-1" d="M44.54,14.07a1.17,1.17,0,0,1-1.17-1.18v-.63a3.38,3.38,0,0,1,1.73-3,1.17,1.17,0,1,0-1.73-1A1.18,1.18,0,0,1,42.2,9.38c-2.24,0-1.15-4.69,2.34-4.69a3.52,3.52,0,0,1,1.67,6.61,1.08,1.08,0,0,0-.5,1v.63A1.17,1.17,0,0,1,44.54,14.07Z"/><circle class="cls-1" cx="44.54" cy="17.58" r="1.17"/><path class="cls-3" d="M55.09,37.51H38.68a1.16,1.16,0,0,0-1.12.85l-2.4,8.36V39.08a5.85,5.85,0,0,0-4.8-5.77l-8.09-1.47V29a8.18,8.18,0,0,0,3.42-5.56,6.1,6.1,0,0,0,2.44-.22v1.4A1.18,1.18,0,0,1,27,25.79H25.79a1.17,1.17,0,0,0,0,2.34H27a3.53,3.53,0,0,0,3.52-3.51V18.75a3.53,3.53,0,0,0-2.35-3.3V11.72a4.69,4.69,0,0,0-4.19-4.66C21,4.39,18.09,4.69,15.24,4.69A8.21,8.21,0,0,0,7,12.89v2.56a3.52,3.52,0,0,0-2.34,3.3v1.18a3.52,3.52,0,0,0,3.52,3.51H9.47A8.25,8.25,0,0,0,12.89,29v2.84L4.81,33.31A5.86,5.86,0,0,0,0,39.08V51.57a4.69,4.69,0,0,0,4.69,4.69H50.4a1.17,1.17,0,0,0,1.13-.85L56.22,39A1.17,1.17,0,0,0,55.09,37.51Zm-31.44-3L21.1,37l-1.68-1.68,1.94-1.29Zm-6.07-.71-2.34-1.57v-2a8.31,8.31,0,0,0,4.69,0v2ZM27,17.58a1.18,1.18,0,0,1,1.17,1.17v1.18A1.18,1.18,0,0,1,27,21.1H25.79V17.58ZM9.38,21.1H8.21A1.18,1.18,0,0,1,7,19.93V18.75a1.18,1.18,0,0,1,1.18-1.17H9.38Zm0-5.89V12.89A5.86,5.86,0,0,1,15.24,7h2.54a6.79,6.79,0,0,1,4.83,2,1.22,1.22,0,0,0,.83.34,2.35,2.35,0,0,1,2.35,2.34v3.52a6.78,6.78,0,0,1-5-2,1.19,1.19,0,0,0-.83-.34C19.17,12.89,15.71,15,9.38,15.21Zm2.34,7.06V17.38a31.52,31.52,0,0,0,8-1.95,9,9,0,0,0,3.76,1.89v4.95a5.86,5.86,0,0,1-11.72,0Zm2.09,11.79,1.93,1.29L14.07,37l-2.55-2.56Zm4.94,19.86H14.07V49.23h4.68a2.35,2.35,0,1,1,0,4.69Zm0-7H9.38V42.2A1.18,1.18,0,0,0,7,42.2v5.86a1.18,1.18,0,0,0,1.18,1.17h3.51v4.69h-7a2.36,2.36,0,0,1-2.35-2.35V39.08a3.53,3.53,0,0,1,2.89-3.47L8.71,35l4.52,4.52a1.18,1.18,0,0,0,1.67,0l2.68-2.69,2.69,2.69a1.17,1.17,0,0,0,1.66,0L26.46,35l3.48.63a3.54,3.54,0,0,1,2.88,3.47V49.23H28.13v-7a1.17,1.17,0,1,0-2.34,0v7h-3A4.68,4.68,0,0,0,18.75,46.89Zm14.36,7H22.8a4.67,4.67,0,0,0,.64-2.35H33.78Zm16.41,0h-14l4-14.07h14Z"/></g></g></svg>