<svg xmlns="http://www.w3.org/2000/svg" viewBox="0 0 56.26 56.26"><defs><style>.cls-1{fill:#95c9c5;}.cls-2{fill:#6f7b89;}.cls-3{fill:#f6895b;}</style></defs><g id="Layer_2" data-name="Layer 2"><g id="Layer_1-2" data-name="Layer 1"><rect class="cls-1" x="15.24" y="38.68" width="25.79" height="16.41"/><rect class="cls-1" x="12.89" y="33.99" width="30.48" height="4.69"/><path class="cls-1" d="M32.82,12.89v1.18a25.63,25.63,0,0,1-9.38-1.18,4.69,4.69,0,0,1,9.38,0Z"/><polygon class="cls-1" points="1.17 19.93 1.17 3.52 12.89 3.52 15.24 5.86 15.24 19.93 1.17 19.93"/><polygon class="cls-1" points="29.3 23.44 26.96 23.44 25.79 21.1 30.48 21.1 29.3 23.44"/><polygon class="cls-1" points="30.48 28.13 28.13 30.48 25.79 28.13 26.96 23.44 29.3 23.44 30.48 28.13"/><path class="cls-2" d="M43.37,32.82H38.68V25.25a4.67,4.67,0,0,0-3.91-4.62l-2.24-.38A5.81,5.81,0,0,0,34,16.41V12.89a5.86,5.86,0,0,0-11.72,0v3.52a5.76,5.76,0,0,0,1.47,3.84l-2.24.38a4.67,4.67,0,0,0-3.92,4.62v7.57H12.89A1.18,1.18,0,0,0,11.72,34v4.69a1.17,1.17,0,0,0,1.17,1.17h1.18V55.09a1.17,1.17,0,0,0,1.17,1.17H41a1.17,1.17,0,0,0,1.17-1.17V39.85h1.17a1.17,1.17,0,0,0,1.17-1.17V34A1.18,1.18,0,0,0,43.37,32.82ZM28.13,9.38a3.52,3.52,0,0,1,3.52,3.51,22.25,22.25,0,0,1-6.92-.84A3.5,3.5,0,0,1,28.13,9.38Zm-3.51,5.07a24.91,24.91,0,0,0,7,.79v1.17a3.52,3.52,0,1,1-7,0Zm-4.69,10.8a2.33,2.33,0,0,1,1.95-2.31l4-.67c5.41,0,3.47-.17,8.5.67a2.33,2.33,0,0,1,2,2.31v7.57H19.93ZM39.85,53.92H16.41V39.85H39.85ZM42.2,37.51H14.07V35.16H42.2Z"/><path class="cls-3" d="M51.57,0H37.51a1.17,1.17,0,0,0-1.17,1.17v9.38a1.17,1.17,0,0,0,1.17,1.17h1.17v2.35l3.52-2.35h9.37a1.18,1.18,0,0,0,1.18-1.17V1.17A1.18,1.18,0,0,0,51.57,0ZM39.85,7A1.17,1.17,0,1,1,41,5.86,1.17,1.17,0,0,1,39.85,7Zm4.69,0a1.17,1.17,0,1,1,1.17-1.17A1.17,1.17,0,0,1,44.54,7Zm4.69,0A1.17,1.17,0,1,1,50.4,5.86,1.17,1.17,0,0,1,49.23,7Z"/><path class="cls-2" d="M15.24,21.1H1.17A1.17,1.17,0,0,1,0,19.93V3.52A1.17,1.17,0,0,1,1.17,2.34H12.89a1.18,1.18,0,0,1,.83.35c2.51,2.51,2.69,2.53,2.69,3.17V19.93A1.17,1.17,0,0,1,15.24,21.1ZM2.34,18.75H14.07V6.35L12.41,4.69H2.34Z"/><path class="cls-2" d="M55.09,30.48H43.37A1.17,1.17,0,0,1,42.2,29.3V15.24a1.17,1.17,0,0,1,1.17-1.17h9.38a1.17,1.17,0,0,1,.83.34c2.51,2.51,2.68,2.53,2.68,3.17V29.3A1.17,1.17,0,0,1,55.09,30.48ZM44.54,28.13h9.38V18.07l-1.66-1.66H44.54Z"/><path class="cls-2" d="M10.55,10.55H5.86a1.17,1.17,0,1,1,0-2.34h4.69a1.17,1.17,0,1,1,0,2.34Z"/><path class="cls-2" d="M10.55,15.24H5.86a1.18,1.18,0,0,1,0-2.35h4.69a1.18,1.18,0,0,1,0,2.35Z"/><path class="cls-1" d="M50.4,21.1H48.06a1.18,1.18,0,0,1,0-2.35H50.4a1.18,1.18,0,0,1,0,2.35Z"/><path class="cls-1" d="M50.4,25.79H48.06a1.18,1.18,0,0,1,0-2.35H50.4a1.18,1.18,0,0,1,0,2.35Z"/></g></g></svg>