<?xml version="1.0" encoding="UTF-8"?><svg id="Layer_2" xmlns="http://www.w3.org/2000/svg" viewBox="0 0 219.64 243.47"><defs><style>.cls-1{fill:#231f20;}</style></defs><g id="Layer_1-2"><path class="cls-1" d="m138.65,179.99c-4.75-.12-8.97-3.04-10.78-7.43-1.81-4.39-.86-9.44,2.42-12.87,14.64-14.64,29.29-29.29,43.93-43.93,1.89-1.89,3.77-3.77,5.66-5.66.92-.92,1.84-1.82,2.73-2.76.84-.89,1.66-1.81,2.45-2.75,3.36-4,6.13-8.25,8.43-12.94,4.58-9.34,6.8-19.68,6.47-30.08-.69-21.12-11.81-40.52-29.69-51.78-8.81-5.55-18.83-8.85-29.22-9.62-2.88-.21-5.03-.17-7.91-.17-2.57,0-5.14,0-7.72,0-5.14,0-10.29,0-15.43,0-9.55,0-19.11,0-28.66,0,4.75.12,8.97,3.04,10.78,7.43,1.81,4.39.86,9.44-2.42,12.87-13.04,13.04-26.08,26.09-39.13,39.13-3.35,3.35-6.7,6.7-10.04,10.04-1.7,1.7-3.11,3.08-4.7,4.88-1.47,1.68-2.85,3.42-4.14,5.24-5.35,7.56-8.98,16.19-10.65,25.3-3.38,18.44,1.55,37.43,13.46,51.91,11.91,14.47,29.58,22.95,48.31,23.2,9.06,0,18.12,0,27.18,0,9.55,0,19.11,0,28.66,0Z"/><g><path class="cls-1" d="m11.66,212.95h5.23l11.66,30h-5.19l-2.74-7.12H7.93l-2.74,7.12H0l11.66-30Zm-1.89,18.17h9l-4.5-11.7-4.5,11.7Z"/><path class="cls-1" d="m36.6,212.95l15,20.66v-20.66h5.14v30h-4.63l-15-20.62v20.62h-5.14v-30h4.63Z"/><path class="cls-1" d="m67.71,212.95l15,20.66v-20.66h5.14v30h-4.63l-15-20.62v20.62h-5.14v-30h4.63Z"/><path class="cls-1" d="m96.64,236.69c1.89,0,3.39,1.5,3.39,3.39s-1.5,3.39-3.39,3.39-3.39-1.5-3.39-3.39,1.5-3.39,3.39-3.39Z"/><path class="cls-1" d="m118.03,212.95h10.2c5.96,0,9.94,4.12,9.94,9.6s-3.99,9.6-9.94,9.6h-5.06v10.8h-5.14v-30Zm14.92,9.6c0-2.83-1.84-4.71-5.36-4.71h-4.42v9.43h4.42c3.51,0,5.36-1.89,5.36-4.71Z"/><path class="cls-1" d="m170.92,227.95c0,8.87-6.43,15.52-15.17,15.52s-15.17-6.64-15.17-15.52,6.43-15.52,15.17-15.52,15.17,6.64,15.17,15.52Zm-5.23,0c0-5.79-3.9-10.63-9.94-10.63s-9.94,4.84-9.94,10.63,3.9,10.63,9.94,10.63,9.94-4.84,9.94-10.63Z"/><path class="cls-1" d="m175.54,212.95h9.86c5.96,0,9.94,3.86,9.94,9.34,0,4.5-2.4,7.93-6.69,9l7.5,11.66h-6l-7.12-11.32h-2.36v11.32h-5.14v-30Zm14.57,9.34c0-2.96-2.06-4.46-5.36-4.46h-4.07v8.92h4.07c3.3,0,5.36-1.5,5.36-4.46Z"/><path class="cls-1" d="m206.23,217.83h-8.27v-4.89h21.69v4.89h-8.27v25.12h-5.14v-25.12Z"/></g></g></svg>