<?xml version="1.0" encoding="UTF-8"?><svg id="Layer_2" xmlns="http://www.w3.org/2000/svg" viewBox="0 0 313.24 80"><defs><style>.cls-1{fill:#1d1e23;}</style></defs><g id="Layer_1-2"><g><g><path class="cls-1" d="m105.25,25.3h5.23l11.66,30h-5.19l-2.74-7.12h-12.69l-2.74,7.12h-5.19l11.66-30Zm-1.89,18.17h9l-4.5-11.7-4.5,11.7Z"/><path class="cls-1" d="m130.19,25.3l15,20.66v-20.66h5.14v30h-4.63l-15-20.62v20.62h-5.14v-30h4.63Z"/><path class="cls-1" d="m161.31,25.3l15,20.66v-20.66h5.14v30h-4.63l-15-20.62v20.62h-5.14v-30h4.63Z"/><path class="cls-1" d="m190.23,49.04c1.89,0,3.39,1.5,3.39,3.39s-1.5,3.39-3.39,3.39-3.39-1.5-3.39-3.39,1.5-3.39,3.39-3.39Z"/><path class="cls-1" d="m211.62,25.3h10.2c5.96,0,9.94,4.11,9.94,9.6s-3.99,9.6-9.94,9.6h-5.06v10.8h-5.14v-30Zm14.92,9.6c0-2.83-1.84-4.71-5.36-4.71h-4.42v9.43h4.42c3.51,0,5.36-1.89,5.36-4.71Z"/><path class="cls-1" d="m264.51,40.3c0,8.87-6.43,15.52-15.17,15.52s-15.17-6.64-15.17-15.52,6.43-15.52,15.17-15.52,15.17,6.64,15.17,15.52Zm-5.23,0c0-5.79-3.9-10.63-9.94-10.63s-9.94,4.84-9.94,10.63,3.9,10.63,9.94,10.63,9.94-4.84,9.94-10.63Z"/><path class="cls-1" d="m269.13,25.3h9.86c5.96,0,9.94,3.86,9.94,9.34,0,4.5-2.4,7.93-6.69,9l7.5,11.66h-6l-7.12-11.32h-2.36v11.32h-5.14v-30Zm14.57,9.34c0-2.96-2.06-4.46-5.36-4.46h-4.07v8.92h4.07c3.3,0,5.36-1.5,5.36-4.46Z"/><path class="cls-1" d="m299.82,30.18h-8.27v-4.89h21.69v4.89h-8.27v25.12h-5.14v-25.12Z"/></g><path class="cls-1" d="m52.74,80c-2.11-.06-3.99-1.35-4.79-3.3-.8-1.95-.38-4.19,1.08-5.72,6.51-6.51,13.02-13.02,19.53-19.53.84-.84,1.68-1.68,2.51-2.51.41-.41.82-.81,1.21-1.23.38-.4.74-.8,1.09-1.22,1.49-1.78,2.73-3.67,3.75-5.75,2.04-4.15,3.02-8.75,2.87-13.37-.31-9.39-5.25-18.01-13.2-23.01C62.88,1.89,58.42.42,53.81.08,52.52-.02,51.57,0,50.29,0c-1.14,0-2.29,0-3.43,0-2.29,0-4.57,0-6.86,0-4.25,0-8.49,0-12.74,0,2.11.06,3.99,1.35,4.79,3.3.8,1.95.38,4.19-1.08,5.72-5.8,5.8-11.59,11.59-17.39,17.39-1.49,1.49-2.98,2.98-4.46,4.46-.76.76-1.38,1.37-2.09,2.17-.65.75-1.27,1.52-1.84,2.33-2.38,3.36-3.99,7.19-4.73,11.24-1.5,8.2.69,16.64,5.98,23.07,5.29,6.43,13.15,10.2,21.47,10.31,4.03,0,8.05,0,12.08,0,4.25,0,8.49,0,12.74,0Z"/></g></g></svg>