<svg xmlns="http://www.w3.org/2000/svg" viewBox="0 0 77.07 10.89"><defs><style>.cls-1{fill:#44515c;}</style></defs><g id="Layer_2" data-name="Layer 2"><g id="Layer_1-2" data-name="Layer 1"><path class="cls-1" d="M4.09.18H5.93L10,10.71H8.2l-1-2.5H2.78l-1,2.5H0ZM3.43,6.56H6.59L5,2.45Z"/><path class="cls-1" d="M12.84.18l5.27,7.25V.18h1.8V10.71H18.29L13,3.47v7.24h-1.8V.18Z"/><path class="cls-1" d="M23.76.18,29,7.43V.18h1.8V10.71H29.21L23.94,3.47v7.24h-1.8V.18Z"/><path class="cls-1" d="M33.91,8.51A1.19,1.19,0,1,1,32.72,9.7,1.19,1.19,0,0,1,33.91,8.51Z"/><path class="cls-1" d="M41.42.18H45a3.29,3.29,0,0,1,3.48,3.37A3.29,3.29,0,0,1,45,6.92H43.22v3.79h-1.8Zm5.23,3.37c0-1-.65-1.66-1.88-1.66H43.22V5.2h1.55C46,5.2,46.65,4.54,46.65,3.55Z"/><path class="cls-1" d="M60,5.44a5.32,5.32,0,1,1-10.64,0A5.32,5.32,0,1,1,60,5.44Zm-1.83,0a3.5,3.5,0,1,0-7,0,3.5,3.5,0,1,0,7,0Z"/><path class="cls-1" d="M61.6.18h3.46a3.22,3.22,0,0,1,3.49,3.28A3.05,3.05,0,0,1,66.2,6.62l2.63,4.09h-2.1l-2.5-4H63.4v4H61.6Zm5.11,3.28c0-1-.72-1.57-1.88-1.57H63.4V5h1.43C66,5,66.71,4.5,66.71,3.46Z"/><path class="cls-1" d="M72.36,1.89h-2.9V.18h7.61V1.89h-2.9v8.82H72.36Z"/></g></g></svg>